# MagicaVoxel @ Ephtracy

# group
o 

# material
mtllib building10.mtl
usemtl palette

# normals
vn -1 0 0
vn 1 0 0
vn 0 0 1
vn 0 0 -1
vn 0 -1 0
vn 0 1 0

# texcoords
vt 0.947266 0.5
vt 0.978516 0.5
vt 0.982422 0.5
vt 0.986328 0.5

# verts
v -0.5 0 0.5
v -0.5 0 -0.5
v -0.5 0.2 0.5
v -0.5 0.2 -0.5
v -0.4 0.2 0.4
v -0.4 0.2 0.1
v -0.4 0.6 0.3
v -0.4 0.6 0.2
v -0.4 0.7 0.3
v -0.4 0.7 0.2
v -0.4 1 0.3
v -0.4 1 0.2
v -0.4 1.1 0.3
v -0.4 1.1 0.2
v -0.4 1.5 0.3
v -0.4 1.5 0.2
v -0.4 1.6 0.3
v -0.4 1.6 0.2
v -0.4 1.9 0.3
v -0.4 1.9 0.2
v -0.4 2 0.3
v -0.4 2 0.2
v -0.4 2.2 0.4
v -0.4 2.2 0.1
v -0.3 0.6 0.3
v -0.3 0.6 0.2
v -0.3 0.7 0.3
v -0.3 0.7 0.2
v -0.3 1 0.3
v -0.3 1 0.2
v -0.3 1.1 0.3
v -0.3 1.1 0.2
v -0.3 1.5 0.3
v -0.3 1.5 0.2
v -0.3 1.6 0.3
v -0.3 1.6 0.2
v -0.3 1.9 0.3
v -0.3 1.9 0.2
v -0.3 2 0.3
v -0.3 2 0.2
v -0.3 2.2 0.2
v -0.3 2.2 0.1
v -0.3 2.3 0.2
v -0.3 2.3 0.1
v -0.2 0.2 -0.1
v -0.2 0.2 -0.4
v -0.2 0.6 -0.2
v -0.2 0.6 -0.3
v -0.2 0.7 -0.2
v -0.2 0.7 -0.3
v -0.2 1 -0.2
v -0.2 1 -0.3
v -0.2 1.1 -0.2
v -0.2 1.1 -0.3
v -0.2 1.4 -0.2
v -0.2 1.4 -0.3
v -0.2 1.5 -0.2
v -0.2 1.5 -0.3
v -0.2 1.6 -0.1
v -0.2 1.6 -0.4
v -0.1 0.6 -0.2
v -0.1 0.6 -0.3
v -0.1 0.7 -0.2
v -0.1 0.7 -0.3
v -0.1 1 -0.2
v -0.1 1 -0.3
v -0.1 1.1 -0.2
v -0.1 1.1 -0.3
v -0.1 1.4 -0.2
v -0.1 1.4 -0.3
v -0.1 1.5 -0.2
v -0.1 1.5 -0.3
v -0.1 1.6 -0.2
v -0.1 1.6 -0.3
v -0.1 1.8 -0.2
v -0.1 1.8 -0.3
v -0.1 2.2 0.3
v -0.1 2.2 0.2
v -0.1 2.4 0.3
v -0.1 2.4 0.2
v 0.1 0.6 0.4
v 0.1 0.6 0.3
v 0.1 0.7 0.4
v 0.1 0.7 0.3
v 0.1 1.1 0.4
v 0.1 1.1 0.3
v 0.1 1.2 0.4
v 0.1 1.2 0.3
v 0.1 1.2 0.1
v 0.1 1.2 -0.1
v 0.1 1.4 0.1
v 0.1 1.4 -0.1
v 0.1 1.6 0.4
v 0.1 1.6 0.3
v 0.1 1.7 0.4
v 0.1 1.7 0.3
v 0.1 2 0.4
v 0.1 2 0.3
v 0.1 2.1 0.4
v 0.1 2.1 0.3
v 0.1 2.2 0.4
v 0.1 2.2 0.3
v 0.1 2.4 0.4
v 0.1 2.4 0.3
v 0.3 0.4 -0.3
v 0.3 0.4 -0.4
v 0.3 0.5 -0.3
v 0.3 0.5 -0.4
v 0.3 0.8 -0.3
v 0.3 0.8 -0.4
v 0.3 0.9 -0.3
v 0.3 0.9 -0.4
v 0.3 1.2 -0.3
v 0.3 1.2 -0.4
v 0.3 1.3 -0.3
v 0.3 1.3 -0.4
v 0.3 1.6 -0.3
v 0.3 1.6 -0.4
v 0.3 1.8 -0.3
v 0.3 1.8 -0.4
v -0.3 0.6 0.4
v -0.3 0.6 0.3
v -0.3 0.7 0.4
v -0.3 0.7 0.3
v -0.3 1.1 0.4
v -0.3 1.1 0.3
v -0.3 1.2 0.4
v -0.3 1.2 0.3
v -0.3 1.6 0.4
v -0.3 1.6 0.3
v -0.3 1.7 0.4
v -0.3 1.7 0.3
v -0.3 2 0.4
v -0.3 2 0.3
v -0.3 2.1 0.4
v -0.3 2.1 0.3
v -0.2 2.2 0.2
v -0.2 2.2 0.1
v -0.2 2.3 0.2
v -0.2 2.3 0.1
v -0.1 0.4 -0.3
v -0.1 0.4 -0.4
v -0.1 0.5 -0.3
v -0.1 0.5 -0.4
v -0.1 0.8 -0.3
v -0.1 0.8 -0.4
v -0.1 0.9 -0.3
v -0.1 0.9 -0.4
v -0.1 1.2 -0.3
v -0.1 1.2 -0.4
v -0.1 1.3 -0.3
v -0.1 1.3 -0.4
v 0 1.6 -0.2
v 0 1.6 -0.3
v 0 1.8 -0.2
v 0 1.8 -0.3
v 0 2.2 0.3
v 0 2.2 0.2
v 0 2.4 0.3
v 0 2.4 0.2
v 0.1 0.6 0.3
v 0.1 0.6 0.2
v 0.1 0.7 0.3
v 0.1 0.7 0.2
v 0.1 0.9 0.3
v 0.1 0.9 0.2
v 0.1 1 0.3
v 0.1 1 0.2
v 0.1 1.5 0.3
v 0.1 1.5 0.2
v 0.1 1.6 0.3
v 0.1 1.6 0.2
v 0.1 1.9 0.3
v 0.1 1.9 0.2
v 0.1 2 0.3
v 0.1 2 0.2
v 0.2 0.2 0.4
v 0.2 0.2 0.1
v 0.2 0.6 0.3
v 0.2 0.6 0.2
v 0.2 0.7 0.3
v 0.2 0.7 0.2
v 0.2 0.9 0.3
v 0.2 0.9 0.2
v 0.2 1 0.3
v 0.2 1 0.2
v 0.2 1.2 0.2
v 0.2 1.2 0.1
v 0.2 1.4 0.2
v 0.2 1.4 0.1
v 0.2 1.5 0.3
v 0.2 1.5 0.2
v 0.2 1.6 0.3
v 0.2 1.6 0.2
v 0.2 1.9 0.3
v 0.2 1.9 0.2
v 0.2 2 0.3
v 0.2 2 0.2
v 0.2 2.2 0.4
v 0.2 2.2 0.3
v 0.2 2.2 0.1
v 0.2 2.4 0.4
v 0.2 2.4 0.3
v 0.3 0.4 -0.2
v 0.3 0.4 -0.3
v 0.3 0.5 -0.2
v 0.3 0.5 -0.3
v 0.3 0.8 -0.2
v 0.3 0.8 -0.3
v 0.3 0.9 -0.2
v 0.3 0.9 -0.3
v 0.3 1.2 0.2
v 0.3 1.2 -0.1
v 0.3 1.3 -0.2
v 0.3 1.3 -0.3
v 0.3 1.4 0.2
v 0.3 1.4 -0.1
v 0.3 1.4 -0.2
v 0.3 1.4 -0.3
v 0.4 0.2 -0.1
v 0.4 0.2 -0.4
v 0.4 0.4 -0.2
v 0.4 0.4 -0.3
v 0.4 0.5 -0.2
v 0.4 0.5 -0.3
v 0.4 0.8 -0.2
v 0.4 0.8 -0.3
v 0.4 0.9 -0.2
v 0.4 0.9 -0.3
v 0.4 1.3 -0.2
v 0.4 1.3 -0.3
v 0.4 1.4 -0.2
v 0.4 1.4 -0.3
v 0.4 1.6 -0.1
v 0.4 1.6 -0.3
v 0.4 1.6 -0.4
v 0.4 1.8 -0.3
v 0.4 1.8 -0.4
v 0.5 0 0.5
v 0.5 0 -0.5
v 0.5 0.2 0.5
v 0.5 0.2 -0.5
v -0.5 0 0.5
v -0.5 0.2 0.5
v 0.5 0 0.5
v 0.5 0.2 0.5
v -0.4 0.2 0.4
v -0.4 2.2 0.4
v -0.3 0.6 0.4
v -0.3 0.7 0.4
v -0.3 1.1 0.4
v -0.3 1.2 0.4
v -0.3 1.6 0.4
v -0.3 1.7 0.4
v -0.3 2 0.4
v -0.3 2.1 0.4
v 0.1 0.6 0.4
v 0.1 0.7 0.4
v 0.1 1.1 0.4
v 0.1 1.2 0.4
v 0.1 1.6 0.4
v 0.1 1.7 0.4
v 0.1 2 0.4
v 0.1 2.1 0.4
v 0.1 2.2 0.4
v 0.1 2.4 0.4
v 0.2 0.2 0.4
v 0.2 2.2 0.4
v 0.2 2.4 0.4
v -0.3 0.6 0.3
v -0.3 0.7 0.3
v -0.3 1.1 0.3
v -0.3 1.2 0.3
v -0.3 1.6 0.3
v -0.3 1.7 0.3
v -0.3 2 0.3
v -0.3 2.1 0.3
v -0.1 2.2 0.3
v -0.1 2.4 0.3
v 0 2.2 0.3
v 0 2.4 0.3
v 0.1 0.6 0.3
v 0.1 0.7 0.3
v 0.1 1.1 0.3
v 0.1 1.2 0.3
v 0.1 1.6 0.3
v 0.1 1.7 0.3
v 0.1 2 0.3
v 0.1 2.1 0.3
v -0.4 0.6 0.2
v -0.4 0.7 0.2
v -0.4 1 0.2
v -0.4 1.1 0.2
v -0.4 1.5 0.2
v -0.4 1.6 0.2
v -0.4 1.9 0.2
v -0.4 2 0.2
v -0.3 0.6 0.2
v -0.3 0.7 0.2
v -0.3 1 0.2
v -0.3 1.1 0.2
v -0.3 1.5 0.2
v -0.3 1.6 0.2
v -0.3 1.9 0.2
v -0.3 2 0.2
v -0.3 2.2 0.2
v -0.3 2.3 0.2
v -0.2 2.2 0.2
v -0.2 2.3 0.2
v 0.1 0.6 0.2
v 0.1 0.7 0.2
v 0.1 0.9 0.2
v 0.1 1 0.2
v 0.1 1.5 0.2
v 0.1 1.6 0.2
v 0.1 1.9 0.2
v 0.1 2 0.2
v 0.2 0.6 0.2
v 0.2 0.7 0.2
v 0.2 0.9 0.2
v 0.2 1 0.2
v 0.2 1.2 0.2
v 0.2 1.4 0.2
v 0.2 1.5 0.2
v 0.2 1.6 0.2
v 0.2 1.9 0.2
v 0.2 2 0.2
v 0.3 1.2 0.2
v 0.3 1.4 0.2
v -0.2 0.2 -0.1
v -0.2 1.6 -0.1
v 0.1 1.2 -0.1
v 0.1 1.4 -0.1
v 0.3 1.2 -0.1
v 0.3 1.4 -0.1
v 0.4 0.2 -0.1
v 0.4 1.6 -0.1
v -0.1 1.6 -0.2
v -0.1 1.8 -0.2
v 0 1.6 -0.2
v 0 1.8 -0.2
v -0.2 0.6 -0.3
v -0.2 0.7 -0.3
v -0.2 1 -0.3
v -0.2 1.1 -0.3
v -0.2 1.4 -0.3
v -0.2 1.5 -0.3
v -0.1 0.6 -0.3
v -0.1 0.7 -0.3
v -0.1 1 -0.3
v -0.1 1.1 -0.3
v -0.1 1.4 -0.3
v -0.1 1.5 -0.3
v 0.3 0.4 -0.3
v 0.3 0.5 -0.3
v 0.3 0.8 -0.3
v 0.3 0.9 -0.3
v 0.3 1.3 -0.3
v 0.3 1.4 -0.3
v 0.3 1.6 -0.3
v 0.3 1.8 -0.3
v 0.4 0.4 -0.3
v 0.4 0.5 -0.3
v 0.4 0.8 -0.3
v 0.4 0.9 -0.3
v 0.4 1.3 -0.3
v 0.4 1.4 -0.3
v 0.4 1.6 -0.3
v 0.4 1.8 -0.3
v -0.4 0.6 0.3
v -0.4 0.7 0.3
v -0.4 1 0.3
v -0.4 1.1 0.3
v -0.4 1.5 0.3
v -0.4 1.6 0.3
v -0.4 1.9 0.3
v -0.4 2 0.3
v -0.3 0.6 0.3
v -0.3 0.7 0.3
v -0.3 1 0.3
v -0.3 1.1 0.3
v -0.3 1.5 0.3
v -0.3 1.6 0.3
v -0.3 1.9 0.3
v -0.3 2 0.3
v 0.1 0.6 0.3
v 0.1 0.7 0.3
v 0.1 0.9 0.3
v 0.1 1 0.3
v 0.1 1.5 0.3
v 0.1 1.6 0.3
v 0.1 1.9 0.3
v 0.1 2 0.3
v 0.1 2.2 0.3
v 0.1 2.4 0.3
v 0.2 0.6 0.3
v 0.2 0.7 0.3
v 0.2 0.9 0.3
v 0.2 1 0.3
v 0.2 1.5 0.3
v 0.2 1.6 0.3
v 0.2 1.9 0.3
v 0.2 2 0.3
v 0.2 2.2 0.3
v 0.2 2.4 0.3
v -0.1 2.2 0.2
v -0.1 2.4 0.2
v 0 2.2 0.2
v 0 2.4 0.2
v -0.4 0.2 0.1
v -0.4 2.2 0.1
v -0.3 2.2 0.1
v -0.3 2.3 0.1
v -0.2 2.2 0.1
v -0.2 2.3 0.1
v 0.1 1.2 0.1
v 0.1 1.4 0.1
v 0.2 0.2 0.1
v 0.2 1.2 0.1
v 0.2 1.4 0.1
v 0.2 2.2 0.1
v -0.2 0.6 -0.2
v -0.2 0.7 -0.2
v -0.2 1 -0.2
v -0.2 1.1 -0.2
v -0.2 1.4 -0.2
v -0.2 1.5 -0.2
v -0.1 0.6 -0.2
v -0.1 0.7 -0.2
v -0.1 1 -0.2
v -0.1 1.1 -0.2
v -0.1 1.4 -0.2
v -0.1 1.5 -0.2
v 0.3 0.4 -0.2
v 0.3 0.5 -0.2
v 0.3 0.8 -0.2
v 0.3 0.9 -0.2
v 0.3 1.3 -0.2
v 0.3 1.4 -0.2
v 0.4 0.4 -0.2
v 0.4 0.5 -0.2
v 0.4 0.8 -0.2
v 0.4 0.9 -0.2
v 0.4 1.3 -0.2
v 0.4 1.4 -0.2
v -0.1 0.4 -0.3
v -0.1 0.5 -0.3
v -0.1 0.8 -0.3
v -0.1 0.9 -0.3
v -0.1 1.2 -0.3
v -0.1 1.3 -0.3
v -0.1 1.6 -0.3
v -0.1 1.8 -0.3
v 0 1.6 -0.3
v 0 1.8 -0.3
v 0.3 0.4 -0.3
v 0.3 0.5 -0.3
v 0.3 0.8 -0.3
v 0.3 0.9 -0.3
v 0.3 1.2 -0.3
v 0.3 1.3 -0.3
v -0.2 0.2 -0.4
v -0.2 1.6 -0.4
v -0.1 0.4 -0.4
v -0.1 0.5 -0.4
v -0.1 0.8 -0.4
v -0.1 0.9 -0.4
v -0.1 1.2 -0.4
v -0.1 1.3 -0.4
v 0.3 0.4 -0.4
v 0.3 0.5 -0.4
v 0.3 0.8 -0.4
v 0.3 0.9 -0.4
v 0.3 1.2 -0.4
v 0.3 1.3 -0.4
v 0.3 1.6 -0.4
v 0.3 1.8 -0.4
v 0.4 0.2 -0.4
v 0.4 1.6 -0.4
v 0.4 1.8 -0.4
v -0.5 0 -0.5
v -0.5 0.2 -0.5
v 0.5 0 -0.5
v 0.5 0.2 -0.5
v -0.5 0 0.5
v 0.5 0 0.5
v -0.5 0 -0.5
v 0.5 0 -0.5
v 0.3 0.5 -0.2
v 0.4 0.5 -0.2
v -0.1 0.5 -0.3
v 0.3 0.5 -0.3
v 0.4 0.5 -0.3
v -0.1 0.5 -0.4
v 0.3 0.5 -0.4
v -0.3 0.7 0.4
v 0.1 0.7 0.4
v -0.4 0.7 0.3
v -0.3 0.7 0.3
v 0.1 0.7 0.3
v 0.2 0.7 0.3
v -0.4 0.7 0.2
v -0.3 0.7 0.2
v 0.1 0.7 0.2
v 0.2 0.7 0.2
v -0.2 0.7 -0.2
v -0.1 0.7 -0.2
v -0.2 0.7 -0.3
v -0.1 0.7 -0.3
v 0.3 0.9 -0.2
v 0.4 0.9 -0.2
v -0.1 0.9 -0.3
v 0.3 0.9 -0.3
v 0.4 0.9 -0.3
v -0.1 0.9 -0.4
v 0.3 0.9 -0.4
v 0.1 1 0.3
v 0.2 1 0.3
v 0.1 1 0.2
v 0.2 1 0.2
v -0.4 1.1 0.3
v -0.3 1.1 0.3
v -0.4 1.1 0.2
v -0.3 1.1 0.2
v -0.2 1.1 -0.2
v -0.1 1.1 -0.2
v -0.2 1.1 -0.3
v -0.1 1.1 -0.3
v -0.3 1.2 0.4
v 0.1 1.2 0.4
v -0.3 1.2 0.3
v 0.1 1.2 0.3
v 0.2 1.2 0.2
v 0.3 1.2 0.2
v 0.1 1.2 0.1
v 0.2 1.2 0.1
v 0.1 1.2 -0.1
v 0.3 1.2 -0.1
v -0.1 1.3 -0.3
v 0.3 1.3 -0.3
v -0.1 1.3 -0.4
v 0.3 1.3 -0.4
v 0.3 1.4 -0.2
v 0.4 1.4 -0.2
v 0.3 1.4 -0.3
v 0.4 1.4 -0.3
v -0.2 1.5 -0.2
v -0.1 1.5 -0.2
v -0.2 1.5 -0.3
v -0.1 1.5 -0.3
v -0.4 1.6 0.3
v -0.3 1.6 0.3
v 0.1 1.6 0.3
v 0.2 1.6 0.3
v -0.4 1.6 0.2
v -0.3 1.6 0.2
v 0.1 1.6 0.2
v 0.2 1.6 0.2
v -0.3 1.7 0.4
v 0.1 1.7 0.4
v -0.3 1.7 0.3
v 0.1 1.7 0.3
v -0.4 2 0.3
v -0.3 2 0.3
v 0.1 2 0.3
v 0.2 2 0.3
v -0.4 2 0.2
v -0.3 2 0.2
v 0.1 2 0.2
v 0.2 2 0.2
v -0.3 2.1 0.4
v 0.1 2.1 0.4
v -0.3 2.1 0.3
v 0.1 2.1 0.3
v -0.5 0.2 0.5
v 0.5 0.2 0.5
v -0.4 0.2 0.4
v 0.2 0.2 0.4
v -0.4 0.2 0.1
v 0.2 0.2 0.1
v -0.2 0.2 -0.1
v 0.4 0.2 -0.1
v -0.2 0.2 -0.4
v 0.4 0.2 -0.4
v -0.5 0.2 -0.5
v 0.5 0.2 -0.5
v 0.3 0.4 -0.2
v 0.4 0.4 -0.2
v -0.1 0.4 -0.3
v 0.3 0.4 -0.3
v 0.4 0.4 -0.3
v -0.1 0.4 -0.4
v 0.3 0.4 -0.4
v -0.3 0.6 0.4
v 0.1 0.6 0.4
v -0.4 0.6 0.3
v -0.3 0.6 0.3
v 0.1 0.6 0.3
v 0.2 0.6 0.3
v -0.4 0.6 0.2
v -0.3 0.6 0.2
v 0.1 0.6 0.2
v 0.2 0.6 0.2
v -0.2 0.6 -0.2
v -0.1 0.6 -0.2
v -0.2 0.6 -0.3
v -0.1 0.6 -0.3
v 0.3 0.8 -0.2
v 0.4 0.8 -0.2
v -0.1 0.8 -0.3
v 0.3 0.8 -0.3
v 0.4 0.8 -0.3
v -0.1 0.8 -0.4
v 0.3 0.8 -0.4
v 0.1 0.9 0.3
v 0.2 0.9 0.3
v 0.1 0.9 0.2
v 0.2 0.9 0.2
v -0.4 1 0.3
v -0.3 1 0.3
v -0.4 1 0.2
v -0.3 1 0.2
v -0.2 1 -0.2
v -0.1 1 -0.2
v -0.2 1 -0.3
v -0.1 1 -0.3
v -0.3 1.1 0.4
v 0.1 1.1 0.4
v -0.3 1.1 0.3
v 0.1 1.1 0.3
v -0.1 1.2 -0.3
v 0.3 1.2 -0.3
v -0.1 1.2 -0.4
v 0.3 1.2 -0.4
v 0.3 1.3 -0.2
v 0.4 1.3 -0.2
v 0.3 1.3 -0.3
v 0.4 1.3 -0.3
v 0.2 1.4 0.2
v 0.3 1.4 0.2
v 0.1 1.4 0.1
v 0.2 1.4 0.1
v 0.1 1.4 -0.1
v 0.3 1.4 -0.1
v -0.2 1.4 -0.2
v -0.1 1.4 -0.2
v -0.2 1.4 -0.3
v -0.1 1.4 -0.3
v -0.4 1.5 0.3
v -0.3 1.5 0.3
v 0.1 1.5 0.3
v 0.2 1.5 0.3
v -0.4 1.5 0.2
v -0.3 1.5 0.2
v 0.1 1.5 0.2
v 0.2 1.5 0.2
v -0.3 1.6 0.4
v 0.1 1.6 0.4
v -0.3 1.6 0.3
v 0.1 1.6 0.3
v -0.2 1.6 -0.1
v 0.4 1.6 -0.1
v -0.1 1.6 -0.2
v 0 1.6 -0.2
v -0.1 1.6 -0.3
v 0 1.6 -0.3
v 0.3 1.6 -0.3
v 0.4 1.6 -0.3
v -0.2 1.6 -0.4
v 0.3 1.6 -0.4
v -0.1 1.8 -0.2
v 0 1.8 -0.2
v -0.1 1.8 -0.3
v 0 1.8 -0.3
v 0.3 1.8 -0.3
v 0.4 1.8 -0.3
v 0.3 1.8 -0.4
v 0.4 1.8 -0.4
v -0.4 1.9 0.3
v -0.3 1.9 0.3
v 0.1 1.9 0.3
v 0.2 1.9 0.3
v -0.4 1.9 0.2
v -0.3 1.9 0.2
v 0.1 1.9 0.2
v 0.2 1.9 0.2
v -0.3 2 0.4
v 0.1 2 0.4
v -0.3 2 0.3
v 0.1 2 0.3
v -0.4 2.2 0.4
v 0.1 2.2 0.4
v -0.1 2.2 0.3
v 0 2.2 0.3
v 0.1 2.2 0.3
v 0.2 2.2 0.3
v -0.3 2.2 0.2
v -0.2 2.2 0.2
v -0.1 2.2 0.2
v 0 2.2 0.2
v -0.4 2.2 0.1
v -0.3 2.2 0.1
v -0.2 2.2 0.1
v 0.2 2.2 0.1
v -0.3 2.3 0.2
v -0.2 2.3 0.2
v -0.3 2.3 0.1
v -0.2 2.3 0.1
v 0.1 2.4 0.4
v 0.2 2.4 0.4
v -0.1 2.4 0.3
v 0 2.4 0.3
v 0.1 2.4 0.3
v 0.2 2.4 0.3
v -0.1 2.4 0.2
v 0 2.4 0.2

# faces
f 3/3/1 2/3/1 1/3/1
f 4/3/1 2/3/1 3/3/1
f 7/4/1 6/4/1 5/4/1
f 8/4/1 6/4/1 7/4/1
f 9/4/1 7/4/1 5/4/1
f 10/4/1 6/4/1 8/4/1
f 11/4/1 9/4/1 5/4/1
f 11/4/1 10/4/1 9/4/1
f 12/4/1 6/4/1 10/4/1
f 12/4/1 10/4/1 11/4/1
f 13/4/1 11/4/1 5/4/1
f 14/4/1 6/4/1 12/4/1
f 15/4/1 13/4/1 5/4/1
f 15/4/1 14/4/1 13/4/1
f 16/4/1 6/4/1 14/4/1
f 16/4/1 14/4/1 15/4/1
f 17/4/1 15/4/1 5/4/1
f 18/4/1 6/4/1 16/4/1
f 19/4/1 17/4/1 5/4/1
f 19/4/1 18/4/1 17/4/1
f 20/4/1 6/4/1 18/4/1
f 20/4/1 18/4/1 19/4/1
f 21/4/1 19/4/1 5/4/1
f 22/4/1 6/4/1 20/4/1
f 23/4/1 21/4/1 5/4/1
f 23/4/1 22/4/1 21/4/1
f 24/4/1 6/4/1 22/4/1
f 24/4/1 22/4/1 23/4/1
f 27/1/1 26/1/1 25/1/1
f 28/1/1 26/1/1 27/1/1
f 31/1/1 30/1/1 29/1/1
f 32/1/1 30/1/1 31/1/1
f 35/1/1 34/1/1 33/1/1
f 36/1/1 34/1/1 35/1/1
f 39/1/1 38/1/1 37/1/1
f 40/1/1 38/1/1 39/1/1
f 43/2/1 42/2/1 41/2/1
f 44/2/1 42/2/1 43/2/1
f 47/4/1 46/4/1 45/4/1
f 48/4/1 46/4/1 47/4/1
f 49/4/1 47/4/1 45/4/1
f 50/4/1 46/4/1 48/4/1
f 51/4/1 49/4/1 45/4/1
f 51/4/1 50/4/1 49/4/1
f 52/4/1 46/4/1 50/4/1
f 52/4/1 50/4/1 51/4/1
f 53/4/1 51/4/1 45/4/1
f 54/4/1 46/4/1 52/4/1
f 55/4/1 53/4/1 45/4/1
f 55/4/1 54/4/1 53/4/1
f 56/4/1 46/4/1 54/4/1
f 56/4/1 54/4/1 55/4/1
f 57/4/1 55/4/1 45/4/1
f 58/4/1 46/4/1 56/4/1
f 59/4/1 57/4/1 45/4/1
f 59/4/1 58/4/1 57/4/1
f 60/4/1 46/4/1 58/4/1
f 60/4/1 58/4/1 59/4/1
f 63/1/1 62/1/1 61/1/1
f 64/1/1 62/1/1 63/1/1
f 67/1/1 66/1/1 65/1/1
f 68/1/1 66/1/1 67/1/1
f 71/1/1 70/1/1 69/1/1
f 72/1/1 70/1/1 71/1/1
f 75/2/1 74/2/1 73/2/1
f 76/2/1 74/2/1 75/2/1
f 79/2/1 78/2/1 77/2/1
f 80/2/1 78/2/1 79/2/1
f 83/4/1 82/4/1 81/4/1
f 84/4/1 82/4/1 83/4/1
f 87/4/1 86/4/1 85/4/1
f 88/4/1 86/4/1 87/4/1
f 91/4/1 90/4/1 89/4/1
f 92/4/1 90/4/1 91/4/1
f 95/4/1 94/4/1 93/4/1
f 96/4/1 94/4/1 95/4/1
f 99/4/1 98/4/1 97/4/1
f 100/4/1 98/4/1 99/4/1
f 103/2/1 102/2/1 101/2/1
f 104/2/1 102/2/1 103/2/1
f 107/4/1 106/4/1 105/4/1
f 108/4/1 106/4/1 107/4/1
f 111/4/1 110/4/1 109/4/1
f 112/4/1 110/4/1 111/4/1
f 115/4/1 114/4/1 113/4/1
f 116/4/1 114/4/1 115/4/1
f 119/2/1 118/2/1 117/2/1
f 120/2/1 118/2/1 119/2/1
f 121/4/2 122/4/2 123/4/2
f 123/4/2 122/4/2 124/4/2
f 125/4/2 126/4/2 127/4/2
f 127/4/2 126/4/2 128/4/2
f 129/4/2 130/4/2 131/4/2
f 131/4/2 130/4/2 132/4/2
f 133/4/2 134/4/2 135/4/2
f 135/4/2 134/4/2 136/4/2
f 137/2/2 138/2/2 139/2/2
f 139/2/2 138/2/2 140/2/2
f 141/4/2 142/4/2 143/4/2
f 143/4/2 142/4/2 144/4/2
f 145/4/2 146/4/2 147/4/2
f 147/4/2 146/4/2 148/4/2
f 149/4/2 150/4/2 151/4/2
f 151/4/2 150/4/2 152/4/2
f 153/2/2 154/2/2 155/2/2
f 155/2/2 154/2/2 156/2/2
f 157/2/2 158/2/2 159/2/2
f 159/2/2 158/2/2 160/2/2
f 161/1/2 162/1/2 163/1/2
f 163/1/2 162/1/2 164/1/2
f 165/1/2 166/1/2 167/1/2
f 167/1/2 166/1/2 168/1/2
f 169/1/2 170/1/2 171/1/2
f 171/1/2 170/1/2 172/1/2
f 173/1/2 174/1/2 175/1/2
f 175/1/2 174/1/2 176/1/2
f 177/4/2 178/4/2 179/4/2
f 179/4/2 178/4/2 180/4/2
f 177/4/2 179/4/2 181/4/2
f 180/4/2 178/4/2 182/4/2
f 177/4/2 181/4/2 183/4/2
f 181/4/2 182/4/2 183/4/2
f 182/4/2 178/4/2 184/4/2
f 183/4/2 182/4/2 184/4/2
f 177/4/2 183/4/2 185/4/2
f 184/4/2 178/4/2 186/4/2
f 186/4/2 178/4/2 187/4/2
f 185/4/2 186/4/2 187/4/2
f 187/4/2 178/4/2 188/4/2
f 185/4/2 187/4/2 189/4/2
f 177/4/2 185/4/2 191/4/2
f 189/4/2 190/4/2 191/4/2
f 185/4/2 189/4/2 191/4/2
f 191/4/2 190/4/2 192/4/2
f 177/4/2 191/4/2 193/4/2
f 192/4/2 190/4/2 194/4/2
f 177/4/2 193/4/2 195/4/2
f 193/4/2 194/4/2 195/4/2
f 194/4/2 190/4/2 196/4/2
f 195/4/2 194/4/2 196/4/2
f 177/4/2 195/4/2 197/4/2
f 196/4/2 190/4/2 198/4/2
f 177/4/2 197/4/2 199/4/2
f 197/4/2 198/4/2 199/4/2
f 199/4/2 198/4/2 200/4/2
f 198/4/2 190/4/2 201/4/2
f 200/4/2 198/4/2 201/4/2
f 199/2/2 200/2/2 202/2/2
f 202/2/2 200/2/2 203/2/2
f 204/1/2 205/1/2 206/1/2
f 206/1/2 205/1/2 207/1/2
f 208/1/2 209/1/2 210/1/2
f 210/1/2 209/1/2 211/1/2
f 212/4/2 213/4/2 216/4/2
f 216/4/2 213/4/2 217/4/2
f 214/1/2 215/1/2 218/1/2
f 218/1/2 215/1/2 219/1/2
f 220/4/2 221/4/2 222/4/2
f 222/4/2 221/4/2 223/4/2
f 220/4/2 222/4/2 224/4/2
f 223/4/2 221/4/2 225/4/2
f 220/4/2 224/4/2 226/4/2
f 224/4/2 225/4/2 226/4/2
f 225/4/2 221/4/2 227/4/2
f 226/4/2 225/4/2 227/4/2
f 220/4/2 226/4/2 228/4/2
f 227/4/2 221/4/2 229/4/2
f 220/4/2 228/4/2 230/4/2
f 228/4/2 229/4/2 230/4/2
f 229/4/2 221/4/2 231/4/2
f 230/4/2 229/4/2 231/4/2
f 220/4/2 230/4/2 232/4/2
f 231/4/2 221/4/2 233/4/2
f 220/4/2 232/4/2 234/4/2
f 232/4/2 233/4/2 234/4/2
f 233/4/2 221/4/2 235/4/2
f 234/4/2 233/4/2 235/4/2
f 235/4/2 221/4/2 236/4/2
f 235/2/2 236/2/2 237/2/2
f 237/2/2 236/2/2 238/2/2
f 239/3/2 240/3/2 241/3/2
f 241/3/2 240/3/2 242/3/2
f 245/3/3 244/3/3 243/3/3
f 246/3/3 244/3/3 245/3/3
f 249/4/3 248/4/3 247/4/3
f 250/4/3 248/4/3 249/4/3
f 251/4/3 248/4/3 250/4/3
f 252/4/3 248/4/3 251/4/3
f 253/4/3 248/4/3 252/4/3
f 254/4/3 248/4/3 253/4/3
f 255/4/3 248/4/3 254/4/3
f 256/4/3 248/4/3 255/4/3
f 257/4/3 249/4/3 247/4/3
f 258/4/3 251/4/3 250/4/3
f 259/4/3 251/4/3 258/4/3
f 260/4/3 253/4/3 252/4/3
f 261/4/3 253/4/3 260/4/3
f 262/4/3 255/4/3 254/4/3
f 263/4/3 255/4/3 262/4/3
f 264/4/3 248/4/3 256/4/3
f 265/4/3 248/4/3 264/4/3
f 267/4/3 263/4/3 262/4/3
f 267/4/3 261/4/3 260/4/3
f 267/4/3 265/4/3 264/4/3
f 267/4/3 264/4/3 263/4/3
f 267/4/3 257/4/3 247/4/3
f 267/4/3 262/4/3 261/4/3
f 267/4/3 259/4/3 258/4/3
f 267/4/3 260/4/3 259/4/3
f 267/4/3 258/4/3 257/4/3
f 268/2/3 266/2/3 265/2/3
f 268/4/3 265/4/3 267/4/3
f 269/2/3 266/2/3 268/2/3
f 280/2/3 279/2/3 278/2/3
f 281/2/3 279/2/3 280/2/3
f 282/1/3 271/1/3 270/1/3
f 283/1/3 271/1/3 282/1/3
f 284/1/3 273/1/3 272/1/3
f 285/1/3 273/1/3 284/1/3
f 286/1/3 275/1/3 274/1/3
f 287/1/3 275/1/3 286/1/3
f 288/1/3 277/1/3 276/1/3
f 289/1/3 277/1/3 288/1/3
f 298/4/3 291/4/3 290/4/3
f 299/4/3 291/4/3 298/4/3
f 300/4/3 293/4/3 292/4/3
f 301/4/3 293/4/3 300/4/3
f 302/4/3 295/4/3 294/4/3
f 303/4/3 295/4/3 302/4/3
f 304/4/3 297/4/3 296/4/3
f 305/4/3 297/4/3 304/4/3
f 308/2/3 307/2/3 306/2/3
f 309/2/3 307/2/3 308/2/3
f 318/4/3 311/4/3 310/4/3
f 319/4/3 311/4/3 318/4/3
f 320/4/3 313/4/3 312/4/3
f 321/4/3 313/4/3 320/4/3
f 324/4/3 315/4/3 314/4/3
f 325/4/3 315/4/3 324/4/3
f 326/4/3 317/4/3 316/4/3
f 327/4/3 317/4/3 326/4/3
f 328/4/3 323/4/3 322/4/3
f 329/4/3 323/4/3 328/4/3
f 332/4/3 331/4/3 330/4/3
f 333/4/3 331/4/3 332/4/3
f 334/4/3 332/4/3 330/4/3
f 335/4/3 331/4/3 333/4/3
f 336/4/3 334/4/3 330/4/3
f 336/4/3 335/4/3 334/4/3
f 337/4/3 331/4/3 335/4/3
f 337/4/3 335/4/3 336/4/3
f 340/2/3 339/2/3 338/2/3
f 341/2/3 339/2/3 340/2/3
f 348/4/3 343/4/3 342/4/3
f 349/4/3 343/4/3 348/4/3
f 350/4/3 345/4/3 344/4/3
f 351/4/3 345/4/3 350/4/3
f 352/4/3 347/4/3 346/4/3
f 353/4/3 347/4/3 352/4/3
f 362/4/3 355/4/3 354/4/3
f 363/4/3 355/4/3 362/4/3
f 364/4/3 357/4/3 356/4/3
f 365/4/3 357/4/3 364/4/3
f 366/4/3 359/4/3 358/4/3
f 367/4/3 359/4/3 366/4/3
f 368/2/3 361/2/3 360/2/3
f 369/2/3 361/2/3 368/2/3
f 370/4/4 371/4/4 378/4/4
f 378/4/4 371/4/4 379/4/4
f 372/4/4 373/4/4 380/4/4
f 380/4/4 373/4/4 381/4/4
f 374/4/4 375/4/4 382/4/4
f 382/4/4 375/4/4 383/4/4
f 376/4/4 377/4/4 384/4/4
f 384/4/4 377/4/4 385/4/4
f 386/4/4 387/4/4 396/4/4
f 396/4/4 387/4/4 397/4/4
f 388/4/4 389/4/4 398/4/4
f 398/4/4 389/4/4 399/4/4
f 390/4/4 391/4/4 400/4/4
f 400/4/4 391/4/4 401/4/4
f 392/4/4 393/4/4 402/4/4
f 402/4/4 393/4/4 403/4/4
f 394/2/4 395/2/4 404/2/4
f 404/2/4 395/2/4 405/2/4
f 406/2/4 407/2/4 408/2/4
f 408/2/4 407/2/4 409/2/4
f 410/4/4 411/4/4 412/4/4
f 410/4/4 412/4/4 414/4/4
f 412/2/4 413/2/4 414/2/4
f 414/2/4 413/2/4 415/2/4
f 410/4/4 414/4/4 416/4/4
f 416/4/4 414/4/4 417/4/4
f 410/4/4 416/4/4 418/4/4
f 418/4/4 416/4/4 419/4/4
f 417/4/4 414/4/4 420/4/4
f 420/4/4 414/4/4 421/4/4
f 422/4/4 423/4/4 428/4/4
f 428/4/4 423/4/4 429/4/4
f 424/4/4 425/4/4 430/4/4
f 430/4/4 425/4/4 431/4/4
f 426/4/4 427/4/4 432/4/4
f 432/4/4 427/4/4 433/4/4
f 434/4/4 435/4/4 440/4/4
f 440/4/4 435/4/4 441/4/4
f 436/4/4 437/4/4 442/4/4
f 442/4/4 437/4/4 443/4/4
f 438/4/4 439/4/4 444/4/4
f 444/4/4 439/4/4 445/4/4
f 452/2/4 453/2/4 454/2/4
f 454/2/4 453/2/4 455/2/4
f 446/1/4 447/1/4 456/1/4
f 456/1/4 447/1/4 457/1/4
f 448/1/4 449/1/4 458/1/4
f 458/1/4 449/1/4 459/1/4
f 450/1/4 451/1/4 460/1/4
f 460/1/4 451/1/4 461/1/4
f 462/4/4 463/4/4 464/4/4
f 464/4/4 463/4/4 465/4/4
f 465/4/4 463/4/4 466/4/4
f 466/4/4 463/4/4 467/4/4
f 467/4/4 463/4/4 468/4/4
f 468/4/4 463/4/4 469/4/4
f 462/4/4 464/4/4 470/4/4
f 465/4/4 466/4/4 471/4/4
f 471/4/4 466/4/4 472/4/4
f 467/4/4 468/4/4 473/4/4
f 473/4/4 468/4/4 474/4/4
f 469/4/4 463/4/4 475/4/4
f 475/4/4 463/4/4 476/4/4
f 473/4/4 474/4/4 478/4/4
f 471/4/4 472/4/4 478/4/4
f 475/4/4 476/4/4 478/4/4
f 474/4/4 475/4/4 478/4/4
f 462/4/4 470/4/4 478/4/4
f 472/4/4 473/4/4 478/4/4
f 470/4/4 471/4/4 478/4/4
f 476/2/4 477/2/4 479/2/4
f 478/4/4 476/4/4 479/4/4
f 479/2/4 477/2/4 480/2/4
f 481/3/4 482/3/4 483/3/4
f 483/3/4 482/3/4 484/3/4
f 487/3/5 486/3/5 485/3/5
f 488/3/5 486/3/5 487/3/5
f 492/4/5 490/4/5 489/4/5
f 493/4/5 490/4/5 492/4/5
f 494/4/5 492/4/5 491/4/5
f 495/4/5 492/4/5 494/4/5
f 499/4/5 497/4/5 496/4/5
f 500/4/5 497/4/5 499/4/5
f 502/4/5 499/4/5 498/4/5
f 503/4/5 499/4/5 502/4/5
f 504/4/5 501/4/5 500/4/5
f 505/4/5 501/4/5 504/4/5
f 508/4/5 507/4/5 506/4/5
f 509/4/5 507/4/5 508/4/5
f 513/4/5 511/4/5 510/4/5
f 514/4/5 511/4/5 513/4/5
f 515/4/5 513/4/5 512/4/5
f 516/4/5 513/4/5 515/4/5
f 519/4/5 518/4/5 517/4/5
f 520/4/5 518/4/5 519/4/5
f 523/4/5 522/4/5 521/4/5
f 524/4/5 522/4/5 523/4/5
f 527/4/5 526/4/5 525/4/5
f 528/4/5 526/4/5 527/4/5
f 531/4/5 530/4/5 529/4/5
f 532/4/5 530/4/5 531/4/5
f 536/4/5 534/4/5 533/4/5
f 537/4/5 536/4/5 535/4/5
f 538/4/5 534/4/5 536/4/5
f 538/4/5 536/4/5 537/4/5
f 541/4/5 540/4/5 539/4/5
f 542/4/5 540/4/5 541/4/5
f 545/4/5 544/4/5 543/4/5
f 546/4/5 544/4/5 545/4/5
f 549/4/5 548/4/5 547/4/5
f 550/4/5 548/4/5 549/4/5
f 555/4/5 552/4/5 551/4/5
f 556/4/5 552/4/5 555/4/5
f 557/4/5 554/4/5 553/4/5
f 558/4/5 554/4/5 557/4/5
f 561/4/5 560/4/5 559/4/5
f 562/4/5 560/4/5 561/4/5
f 567/4/5 564/4/5 563/4/5
f 568/4/5 564/4/5 567/4/5
f 569/4/5 566/4/5 565/4/5
f 570/4/5 566/4/5 569/4/5
f 573/4/5 572/4/5 571/4/5
f 574/4/5 572/4/5 573/4/5
f 575/3/6 576/3/6 577/3/6
f 577/3/6 576/3/6 578/3/6
f 575/3/6 577/3/6 579/3/6
f 578/3/6 576/3/6 580/3/6
f 579/3/6 580/3/6 581/3/6
f 580/3/6 576/3/6 582/3/6
f 581/3/6 580/3/6 582/3/6
f 579/3/6 581/3/6 583/3/6
f 582/3/6 576/3/6 584/3/6
f 575/3/6 579/3/6 585/3/6
f 583/3/6 584/3/6 585/3/6
f 579/3/6 583/3/6 585/3/6
f 584/3/6 576/3/6 586/3/6
f 585/3/6 584/3/6 586/3/6
f 587/4/6 588/4/6 590/4/6
f 590/4/6 588/4/6 591/4/6
f 589/4/6 590/4/6 592/4/6
f 592/4/6 590/4/6 593/4/6
f 594/4/6 595/4/6 597/4/6
f 597/4/6 595/4/6 598/4/6
f 596/4/6 597/4/6 600/4/6
f 600/4/6 597/4/6 601/4/6
f 598/4/6 599/4/6 602/4/6
f 602/4/6 599/4/6 603/4/6
f 604/4/6 605/4/6 606/4/6
f 606/4/6 605/4/6 607/4/6
f 608/4/6 609/4/6 611/4/6
f 611/4/6 609/4/6 612/4/6
f 610/4/6 611/4/6 613/4/6
f 613/4/6 611/4/6 614/4/6
f 615/4/6 616/4/6 617/4/6
f 617/4/6 616/4/6 618/4/6
f 619/4/6 620/4/6 621/4/6
f 621/4/6 620/4/6 622/4/6
f 623/4/6 624/4/6 625/4/6
f 625/4/6 624/4/6 626/4/6
f 627/4/6 628/4/6 629/4/6
f 629/4/6 628/4/6 630/4/6
f 631/4/6 632/4/6 633/4/6
f 633/4/6 632/4/6 634/4/6
f 635/4/6 636/4/6 637/4/6
f 637/4/6 636/4/6 638/4/6
f 639/4/6 640/4/6 642/4/6
f 641/4/6 642/4/6 643/4/6
f 642/4/6 640/4/6 644/4/6
f 643/4/6 642/4/6 644/4/6
f 645/4/6 646/4/6 647/4/6
f 647/4/6 646/4/6 648/4/6
f 649/4/6 650/4/6 653/4/6
f 653/4/6 650/4/6 654/4/6
f 651/4/6 652/4/6 655/4/6
f 655/4/6 652/4/6 656/4/6
f 657/4/6 658/4/6 659/4/6
f 659/4/6 658/4/6 660/4/6
f 661/4/6 662/4/6 663/4/6
f 663/4/6 662/4/6 664/4/6
f 661/4/6 663/4/6 665/4/6
f 664/4/6 662/4/6 666/4/6
f 666/4/6 662/4/6 667/4/6
f 667/4/6 662/4/6 668/4/6
f 661/4/6 665/4/6 669/4/6
f 665/4/6 666/4/6 669/4/6
f 666/4/6 667/4/6 669/4/6
f 669/4/6 667/4/6 670/4/6
f 671/2/6 672/2/6 673/2/6
f 673/2/6 672/2/6 674/2/6
f 675/2/6 676/2/6 677/2/6
f 677/2/6 676/2/6 678/2/6
f 679/4/6 680/4/6 683/4/6
f 683/4/6 680/4/6 684/4/6
f 681/4/6 682/4/6 685/4/6
f 685/4/6 682/4/6 686/4/6
f 687/4/6 688/4/6 689/4/6
f 689/4/6 688/4/6 690/4/6
f 691/4/6 692/4/6 693/4/6
f 693/4/6 692/4/6 694/4/6
f 694/4/6 692/4/6 695/4/6
f 691/4/6 693/4/6 697/4/6
f 697/4/6 693/4/6 698/4/6
f 698/4/6 693/4/6 699/4/6
f 695/4/6 696/4/6 700/4/6
f 694/4/6 695/4/6 700/4/6
f 691/4/6 697/4/6 701/4/6
f 701/4/6 697/4/6 702/4/6
f 698/4/6 699/4/6 703/4/6
f 699/4/6 700/4/6 703/4/6
f 700/4/6 696/4/6 704/4/6
f 703/4/6 700/4/6 704/4/6
f 705/2/6 706/2/6 707/2/6
f 707/2/6 706/2/6 708/2/6
f 709/2/6 710/2/6 713/2/6
f 713/2/6 710/2/6 714/2/6
f 711/2/6 712/2/6 715/2/6
f 715/2/6 712/2/6 716/2/6
