# MagicaVoxel @ Ephtracy

# group
o 

# material
mtllib building4.mtl
usemtl palette

# normals
vn -1 0 0
vn 1 0 0
vn 0 0 1
vn 0 0 -1
vn 0 -1 0
vn 0 1 0

# texcoords
vt 0.908203 0.5
vt 0.923828 0.5
vt 0.943359 0.5
vt 0.974609 0.5
vt 0.978516 0.5
vt 0.982422 0.5

# verts
v -0.5 0 0.5
v -0.5 0 -0.5
v -0.5 0.1 0.5
v -0.5 0.1 -0.5
v -0.5 0.2 0.5
v -0.5 0.2 -0.5
v -0.5 0.8 0.4
v -0.5 0.8 -0.4
v -0.5 0.9 0.4
v -0.5 0.9 -0.4
v -0.4 0.2 0.4
v -0.4 0.2 -0.4
v -0.4 0.3 0.3
v -0.4 0.3 0.1
v -0.4 0.3 -0.1
v -0.4 0.3 -0.3
v -0.4 0.4 0.3
v -0.4 0.4 0.1
v -0.4 0.4 -0.1
v -0.4 0.4 -0.3
v -0.4 0.6 0.3
v -0.4 0.6 0.1
v -0.4 0.6 -0.1
v -0.4 0.6 -0.3
v -0.4 0.7 0.3
v -0.4 0.7 0.1
v -0.4 0.7 -0.1
v -0.4 0.7 -0.3
v -0.4 0.8 0.5
v -0.4 0.8 0.4
v -0.4 0.8 -0.4
v -0.4 0.8 -0.5
v -0.4 0.9 0.5
v -0.4 0.9 0.4
v -0.4 0.9 -0.4
v -0.4 0.9 -0.5
v -0.4 1 0.4
v -0.4 1 -0.4
v -0.3 1 0.3
v -0.3 1 -0.3
v -0.3 1.1 0.3
v -0.3 1.1 -0.3
v -0.2 1 0.4
v -0.2 1 0.3
v -0.2 1.1 0.4
v -0.2 1.1 0.3
v -0.1 1 0.4
v -0.1 1 -0.3
v -0.1 1.1 0.4
v -0.1 1.1 -0.3
v 0 0.2 0.4
v 0 0.2 0
v 0 0.3 0.2
v 0 0.3 0.1
v 0 0.4 0.2
v 0 0.4 0.1
v 0 0.5 0.3
v 0 0.5 0.2
v 0 0.6 0.3
v 0 0.6 0.2
v 0 0.7 0
v 0 0.8 0.5
v 0 0.8 0.4
v 0 0.8 0
v 0 0.8 -0.4
v 0 0.8 -0.5
v 0 0.9 0.5
v 0 0.9 0.4
v 0 0.9 -0.4
v 0 0.9 -0.5
v 0 1 0.4
v 0 1 -0.4
v 0.1 0.8 0.4
v 0.1 0.8 0
v 0.1 0.8 -0.1
v 0.1 0.8 -0.3
v 0.1 0.8 -0.4
v 0.1 0.9 0.4
v 0.1 0.9 -0.1
v 0.1 0.9 -0.3
v 0.1 0.9 -0.4
v 0.4 0.2 0
v 0.4 0.2 -0.4
v 0.4 0.3 -0.2
v 0.4 0.3 -0.3
v 0.4 0.4 -0.2
v 0.4 0.4 -0.3
v 0.4 0.5 -0.1
v 0.4 0.5 -0.2
v 0.4 0.6 -0.1
v 0.4 0.6 -0.2
v 0.4 0.7 0
v 0.4 0.7 -0.1
v 0.4 0.7 -0.3
v 0.4 0.7 -0.4
v 0.4 0.8 0
v 0.4 0.8 -0.1
v 0.4 0.8 -0.3
v 0.4 0.8 -0.4
v 0.4 0.9 -0.1
v 0.4 0.9 -0.3
v 0.5 0 0.5
v 0.5 0 -0.5
v 0.5 0.1 0.5
v 0.5 0.1 -0.5
v 0.5 0.2 0.5
v 0.5 0.2 -0.5
v 0.5 0.7 -0.1
v 0.5 0.7 -0.3
v 0.5 0.8 -0.1
v 0.5 0.8 -0.3
v -0.5 0 0.5
v -0.5 0.1 0.5
v -0.5 0.2 0.5
v -0.4 0.1 0.5
v -0.4 0.2 0.5
v -0.4 0.8 0.5
v -0.4 0.9 0.5
v -0.1 0.1 0.5
v -0.1 0.2 0.5
v 0 0.8 0.5
v 0 0.9 0.5
v 0.1 0.1 0.5
v 0.1 0.2 0.5
v 0.3 0.1 0.5
v 0.3 0.2 0.5
v 0.5 0 0.5
v 0.5 0.1 0.5
v 0.5 0.2 0.5
v -0.5 0.8 0.4
v -0.5 0.9 0.4
v -0.4 0.2 0.4
v -0.4 0.8 0.4
v -0.4 0.9 0.4
v -0.4 1 0.4
v -0.3 0.2 0.4
v -0.3 0.4 0.4
v -0.3 0.6 0.4
v -0.3 0.7 0.4
v -0.2 0.2 0.4
v -0.2 0.4 0.4
v -0.2 1 0.4
v -0.2 1.1 0.4
v -0.1 0.2 0.4
v -0.1 0.6 0.4
v -0.1 0.7 0.4
v -0.1 1 0.4
v -0.1 1.1 0.4
v 0 0.2 0.4
v 0 0.8 0.4
v 0 0.9 0.4
v 0 1 0.4
v 0.1 0.8 0.4
v 0.1 0.9 0.4
v -0.3 1 0.3
v -0.3 1.1 0.3
v -0.2 1 0.3
v -0.2 1.1 0.3
v 0 0.2 0
v 0 0.7 0
v 0 0.8 0
v 0.1 0.2 0
v 0.1 0.4 0
v 0.1 0.8 0
v 0.3 0.2 0
v 0.3 0.4 0
v 0.4 0.2 0
v 0.4 0.7 0
v 0.4 0.8 0
v 0.1 0.8 -0.1
v 0.1 0.9 -0.1
v 0.4 0.7 -0.1
v 0.4 0.8 -0.1
v 0.4 0.9 -0.1
v 0.5 0.7 -0.1
v 0.5 0.8 -0.1
v -0.3 1 -0.3
v -0.3 1.1 -0.3
v -0.1 1 -0.3
v -0.1 1.1 -0.3
v 0.1 0.8 -0.3
v 0.1 0.9 -0.3
v 0.4 0.7 -0.3
v 0.4 0.8 -0.3
v 0.4 0.9 -0.3
v 0.5 0.7 -0.3
v 0.5 0.8 -0.3
v -0.5 0.8 -0.4
v -0.5 0.9 -0.4
v -0.4 0.2 -0.4
v -0.4 0.8 -0.4
v -0.4 0.9 -0.4
v -0.4 1 -0.4
v -0.3 0.3 -0.4
v -0.3 0.4 -0.4
v -0.3 0.6 -0.4
v -0.3 0.7 -0.4
v -0.1 0.3 -0.4
v -0.1 0.4 -0.4
v -0.1 0.6 -0.4
v -0.1 0.7 -0.4
v 0 0.3 -0.4
v 0 0.4 -0.4
v 0 0.7 -0.4
v 0 0.8 -0.4
v 0 0.9 -0.4
v 0 1 -0.4
v 0.1 0.5 -0.4
v 0.1 0.6 -0.4
v 0.1 0.8 -0.4
v 0.1 0.9 -0.4
v 0.3 0.3 -0.4
v 0.3 0.4 -0.4
v 0.3 0.5 -0.4
v 0.3 0.6 -0.4
v 0.4 0.2 -0.4
v 0.4 0.7 -0.4
v 0.4 0.8 -0.4
v -0.5 0 -0.5
v -0.5 0.1 -0.5
v -0.5 0.2 -0.5
v -0.4 0.8 -0.5
v -0.4 0.9 -0.5
v 0 0.8 -0.5
v 0 0.9 -0.5
v 0.5 0 -0.5
v 0.5 0.1 -0.5
v 0.5 0.2 -0.5
v -0.5 0 0.5
v 0.5 0 0.5
v -0.5 0 -0.5
v 0.5 0 -0.5
v 0.4 0.7 -0.1
v 0.5 0.7 -0.1
v 0.4 0.7 -0.3
v 0.5 0.7 -0.3
v -0.4 0.8 0.5
v 0 0.8 0.5
v -0.5 0.8 0.4
v -0.4 0.8 0.4
v 0 0.8 0.4
v 0.1 0.8 0.4
v 0 0.8 0
v 0.1 0.8 0
v -0.5 0.8 -0.4
v -0.4 0.8 -0.4
v 0 0.8 -0.4
v -0.4 0.8 -0.5
v 0 0.8 -0.5
v -0.5 0.2 0.5
v -0.4 0.2 0.5
v -0.1 0.2 0.5
v 0.1 0.2 0.5
v 0.3 0.2 0.5
v 0.5 0.2 0.5
v -0.4 0.2 0.4
v -0.3 0.2 0.4
v -0.2 0.2 0.4
v -0.1 0.2 0.4
v 0 0.2 0.4
v 0 0.2 0
v 0.1 0.2 0
v 0.3 0.2 0
v 0.4 0.2 0
v -0.4 0.2 -0.4
v 0.4 0.2 -0.4
v -0.5 0.2 -0.5
v 0.5 0.2 -0.5
v 0.1 0.8 0
v 0.4 0.8 0
v 0.1 0.8 -0.1
v 0.4 0.8 -0.1
v 0.5 0.8 -0.1
v 0.1 0.8 -0.3
v 0.4 0.8 -0.3
v 0.5 0.8 -0.3
v 0.1 0.8 -0.4
v 0.4 0.8 -0.4
v -0.4 0.9 0.5
v 0 0.9 0.5
v -0.5 0.9 0.4
v -0.4 0.9 0.4
v 0 0.9 0.4
v 0.1 0.9 0.4
v 0.1 0.9 -0.1
v 0.4 0.9 -0.1
v 0.1 0.9 -0.3
v 0.4 0.9 -0.3
v -0.5 0.9 -0.4
v -0.4 0.9 -0.4
v 0 0.9 -0.4
v 0.1 0.9 -0.4
v -0.4 0.9 -0.5
v 0 0.9 -0.5
v -0.4 1 0.4
v -0.2 1 0.4
v -0.1 1 0.4
v 0 1 0.4
v -0.3 1 0.3
v -0.2 1 0.3
v -0.3 1 -0.3
v -0.1 1 -0.3
v -0.4 1 -0.4
v 0 1 -0.4
v -0.2 1.1 0.4
v -0.1 1.1 0.4
v -0.3 1.1 0.3
v -0.2 1.1 0.3
v -0.3 1.1 -0.3
v -0.1 1.1 -0.3

# faces
f 3/6/1 2/6/1 1/6/1
f 4/6/1 2/6/1 3/6/1
f 5/1/1 4/1/1 3/1/1
f 6/1/1 4/1/1 5/1/1
f 9/5/1 8/5/1 7/5/1
f 10/5/1 8/5/1 9/5/1
f 13/4/1 12/4/1 11/4/1
f 14/4/1 12/4/1 13/4/1
f 15/4/1 12/4/1 14/4/1
f 16/4/1 12/4/1 15/4/1
f 17/4/1 13/4/1 11/4/1
f 17/3/1 14/3/1 13/3/1
f 18/4/1 15/4/1 14/4/1
f 18/3/1 14/3/1 17/3/1
f 19/3/1 16/3/1 15/3/1
f 19/4/1 15/4/1 18/4/1
f 20/4/1 12/4/1 16/4/1
f 20/3/1 16/3/1 19/3/1
f 21/4/1 19/4/1 18/4/1
f 21/4/1 18/4/1 17/4/1
f 21/4/1 20/4/1 19/4/1
f 21/4/1 17/4/1 11/4/1
f 22/4/1 20/4/1 21/4/1
f 23/4/1 20/4/1 22/4/1
f 24/4/1 12/4/1 20/4/1
f 24/4/1 20/4/1 23/4/1
f 25/4/1 21/4/1 11/4/1
f 25/3/1 22/3/1 21/3/1
f 26/4/1 23/4/1 22/4/1
f 26/3/1 22/3/1 25/3/1
f 27/3/1 24/3/1 23/3/1
f 27/4/1 23/4/1 26/4/1
f 28/4/1 12/4/1 24/4/1
f 28/3/1 24/3/1 27/3/1
f 30/4/1 25/4/1 11/4/1
f 30/4/1 27/4/1 26/4/1
f 30/4/1 28/4/1 27/4/1
f 30/4/1 26/4/1 25/4/1
f 31/4/1 12/4/1 28/4/1
f 31/4/1 28/4/1 30/4/1
f 33/5/1 30/5/1 29/5/1
f 34/5/1 30/5/1 33/5/1
f 35/5/1 32/5/1 31/5/1
f 36/5/1 32/5/1 35/5/1
f 37/5/1 35/5/1 34/5/1
f 38/5/1 35/5/1 37/5/1
f 41/5/1 40/5/1 39/5/1
f 42/5/1 40/5/1 41/5/1
f 45/5/1 44/5/1 43/5/1
f 46/5/1 44/5/1 45/5/1
f 47/5/2 48/5/2 49/5/2
f 49/5/2 48/5/2 50/5/2
f 51/4/2 52/4/2 53/4/2
f 53/4/2 52/4/2 54/4/2
f 51/4/2 53/4/2 55/4/2
f 53/3/2 54/3/2 55/3/2
f 54/4/2 52/4/2 56/4/2
f 55/3/2 54/3/2 56/3/2
f 51/4/2 55/4/2 57/4/2
f 55/4/2 56/4/2 57/4/2
f 57/4/2 56/4/2 58/4/2
f 51/4/2 57/4/2 59/4/2
f 57/3/2 58/3/2 59/3/2
f 58/4/2 56/4/2 60/4/2
f 59/3/2 58/3/2 60/3/2
f 56/4/2 52/4/2 61/4/2
f 60/4/2 56/4/2 61/4/2
f 59/4/2 60/4/2 61/4/2
f 51/4/2 59/4/2 63/4/2
f 59/4/2 61/4/2 63/4/2
f 63/4/2 61/4/2 64/4/2
f 62/5/2 63/5/2 67/5/2
f 67/5/2 63/5/2 68/5/2
f 65/5/2 66/5/2 69/5/2
f 69/5/2 66/5/2 70/5/2
f 68/5/2 69/5/2 71/5/2
f 71/5/2 69/5/2 72/5/2
f 73/5/2 74/5/2 78/5/2
f 74/5/2 75/5/2 78/5/2
f 78/5/2 75/5/2 79/5/2
f 76/5/2 77/5/2 80/5/2
f 80/5/2 77/5/2 81/5/2
f 82/4/2 83/4/2 84/4/2
f 84/4/2 83/4/2 85/4/2
f 82/4/2 84/4/2 86/4/2
f 84/3/2 85/3/2 86/3/2
f 85/4/2 83/4/2 87/4/2
f 86/3/2 85/3/2 87/3/2
f 82/4/2 86/4/2 88/4/2
f 86/4/2 87/4/2 88/4/2
f 88/4/2 87/4/2 89/4/2
f 82/4/2 88/4/2 90/4/2
f 88/3/2 89/3/2 90/3/2
f 89/4/2 87/4/2 91/4/2
f 90/3/2 89/3/2 91/3/2
f 82/4/2 90/4/2 92/4/2
f 90/4/2 91/4/2 92/4/2
f 92/4/2 91/4/2 93/4/2
f 87/4/2 83/4/2 94/4/2
f 93/4/2 91/4/2 94/4/2
f 91/4/2 87/4/2 94/4/2
f 94/4/2 83/4/2 95/4/2
f 92/5/2 93/5/2 96/5/2
f 96/5/2 93/5/2 97/5/2
f 94/5/2 95/5/2 98/5/2
f 98/5/2 95/5/2 99/5/2
f 97/5/2 98/5/2 100/5/2
f 100/5/2 98/5/2 101/5/2
f 102/6/2 103/6/2 104/6/2
f 104/6/2 103/6/2 105/6/2
f 104/1/2 105/1/2 106/1/2
f 106/1/2 105/1/2 107/1/2
f 108/5/2 109/5/2 110/5/2
f 110/5/2 109/5/2 111/5/2
f 115/6/3 113/6/3 112/6/3
f 115/1/3 114/1/3 113/1/3
f 116/1/3 114/1/3 115/1/3
f 119/6/3 115/6/3 112/6/3
f 119/5/3 116/5/3 115/5/3
f 120/5/3 116/5/3 119/5/3
f 121/5/3 118/5/3 117/5/3
f 122/5/3 118/5/3 121/5/3
f 123/1/3 120/1/3 119/1/3
f 123/6/3 119/6/3 112/6/3
f 124/1/3 120/1/3 123/1/3
f 125/6/3 123/6/3 112/6/3
f 125/5/3 124/5/3 123/5/3
f 126/5/3 124/5/3 125/5/3
f 127/6/3 125/6/3 112/6/3
f 128/1/3 126/1/3 125/1/3
f 128/6/3 125/6/3 127/6/3
f 129/1/3 126/1/3 128/1/3
f 133/5/3 131/5/3 130/5/3
f 134/5/3 131/5/3 133/5/3
f 136/4/3 133/4/3 132/4/3
f 137/4/3 133/4/3 136/4/3
f 138/4/3 133/4/3 137/4/3
f 139/4/3 133/4/3 138/4/3
f 140/2/3 137/2/3 136/2/3
f 141/4/3 138/4/3 137/4/3
f 141/2/3 137/2/3 140/2/3
f 142/5/3 135/5/3 134/5/3
f 144/4/3 141/4/3 140/4/3
f 145/4/3 138/4/3 141/4/3
f 145/4/3 141/4/3 144/4/3
f 145/3/3 139/3/3 138/3/3
f 146/4/3 133/4/3 139/4/3
f 146/3/3 139/3/3 145/3/3
f 147/5/3 142/5/3 134/5/3
f 147/5/3 143/5/3 142/5/3
f 148/5/3 143/5/3 147/5/3
f 149/4/3 145/4/3 144/4/3
f 149/4/3 146/4/3 145/4/3
f 150/4/3 133/4/3 146/4/3
f 150/4/3 146/4/3 149/4/3
f 151/5/3 147/5/3 134/5/3
f 152/5/3 147/5/3 151/5/3
f 153/5/3 151/5/3 150/5/3
f 154/5/3 151/5/3 153/5/3
f 157/5/3 156/5/3 155/5/3
f 158/5/3 156/5/3 157/5/3
f 162/4/3 160/4/3 159/4/3
f 163/4/3 160/4/3 162/4/3
f 164/5/3 161/5/3 160/5/3
f 165/2/3 163/2/3 162/2/3
f 166/4/3 160/4/3 163/4/3
f 166/2/3 163/2/3 165/2/3
f 167/4/3 166/4/3 165/4/3
f 168/5/3 164/5/3 160/5/3
f 168/4/3 166/4/3 167/4/3
f 168/4/3 160/4/3 166/4/3
f 169/5/3 164/5/3 168/5/3
f 173/5/3 171/5/3 170/5/3
f 174/5/3 171/5/3 173/5/3
f 175/5/3 173/5/3 172/5/3
f 176/5/3 173/5/3 175/5/3
f 177/5/4 178/5/4 179/5/4
f 179/5/4 178/5/4 180/5/4
f 181/5/4 182/5/4 184/5/4
f 184/5/4 182/5/4 185/5/4
f 183/5/4 184/5/4 186/5/4
f 186/5/4 184/5/4 187/5/4
f 188/5/4 189/5/4 191/5/4
f 191/5/4 189/5/4 192/5/4
f 190/4/4 191/4/4 194/4/4
f 194/4/4 191/4/4 195/4/4
f 195/4/4 191/4/4 196/4/4
f 196/4/4 191/4/4 197/4/4
f 190/4/4 194/4/4 198/4/4
f 194/3/4 195/3/4 198/3/4
f 195/4/4 196/4/4 199/4/4
f 198/3/4 195/3/4 199/3/4
f 196/3/4 197/3/4 200/3/4
f 199/4/4 196/4/4 200/4/4
f 197/4/4 191/4/4 201/4/4
f 200/3/4 197/3/4 201/3/4
f 199/4/4 200/4/4 202/4/4
f 198/4/4 199/4/4 202/4/4
f 200/4/4 201/4/4 202/4/4
f 190/4/4 198/4/4 202/4/4
f 202/4/4 201/4/4 203/4/4
f 201/4/4 191/4/4 204/4/4
f 203/4/4 201/4/4 204/4/4
f 204/4/4 191/4/4 205/4/4
f 192/5/4 193/5/4 206/5/4
f 206/5/4 193/5/4 207/5/4
f 203/4/4 204/4/4 208/4/4
f 208/4/4 204/4/4 209/4/4
f 204/5/4 205/5/4 210/5/4
f 205/5/4 206/5/4 210/5/4
f 210/5/4 206/5/4 211/5/4
f 202/3/4 203/3/4 212/3/4
f 190/4/4 202/4/4 212/4/4
f 203/4/4 208/4/4 213/4/4
f 212/3/4 203/3/4 213/3/4
f 208/3/4 209/3/4 214/3/4
f 213/4/4 208/4/4 214/4/4
f 209/4/4 204/4/4 215/4/4
f 214/3/4 209/3/4 215/3/4
f 213/4/4 214/4/4 216/4/4
f 212/4/4 213/4/4 216/4/4
f 214/4/4 215/4/4 216/4/4
f 190/4/4 212/4/4 216/4/4
f 215/4/4 204/4/4 217/4/4
f 216/4/4 215/4/4 217/4/4
f 204/5/4 210/5/4 217/5/4
f 217/5/4 210/5/4 218/5/4
f 222/5/4 223/5/4 224/5/4
f 224/5/4 223/5/4 225/5/4
f 219/6/4 220/6/4 226/6/4
f 220/1/4 221/1/4 227/1/4
f 226/6/4 220/6/4 227/6/4
f 227/1/4 221/1/4 228/1/4
f 231/6/5 230/6/5 229/6/5
f 232/6/5 230/6/5 231/6/5
f 235/5/5 234/5/5 233/5/5
f 236/5/5 234/5/5 235/5/5
f 240/5/5 238/5/5 237/5/5
f 241/5/5 238/5/5 240/5/5
f 243/5/5 242/5/5 241/5/5
f 244/5/5 242/5/5 243/5/5
f 245/5/5 240/5/5 239/5/5
f 246/5/5 240/5/5 245/5/5
f 248/5/5 247/5/5 246/5/5
f 249/5/5 247/5/5 248/5/5
f 250/1/6 251/1/6 256/1/6
f 251/5/6 252/5/6 256/5/6
f 256/5/6 252/5/6 257/5/6
f 257/5/6 252/5/6 258/5/6
f 252/1/6 253/1/6 259/1/6
f 258/5/6 252/5/6 259/5/6
f 259/1/6 253/1/6 260/1/6
f 260/1/6 253/1/6 261/1/6
f 253/5/6 254/5/6 262/5/6
f 261/1/6 253/1/6 262/1/6
f 254/1/6 255/1/6 263/1/6
f 262/5/6 254/5/6 263/5/6
f 263/1/6 255/1/6 264/1/6
f 250/1/6 256/1/6 265/1/6
f 264/1/6 255/1/6 266/1/6
f 250/1/6 265/1/6 267/1/6
f 265/1/6 266/1/6 267/1/6
f 266/1/6 255/1/6 268/1/6
f 267/1/6 266/1/6 268/1/6
f 269/5/6 270/5/6 271/5/6
f 271/5/6 270/5/6 272/5/6
f 272/5/6 273/5/6 275/5/6
f 275/5/6 273/5/6 276/5/6
f 274/5/6 275/5/6 277/5/6
f 277/5/6 275/5/6 278/5/6
f 279/5/6 280/5/6 282/5/6
f 282/5/6 280/5/6 283/5/6
f 283/5/6 284/5/6 285/5/6
f 283/5/6 285/5/6 287/5/6
f 285/5/6 286/5/6 287/5/6
f 287/5/6 286/5/6 288/5/6
f 281/5/6 282/5/6 289/5/6
f 289/5/6 282/5/6 290/5/6
f 283/5/6 287/5/6 291/5/6
f 291/5/6 287/5/6 292/5/6
f 290/5/6 291/5/6 293/5/6
f 293/5/6 291/5/6 294/5/6
f 295/5/6 296/5/6 299/5/6
f 299/5/6 296/5/6 300/5/6
f 295/5/6 299/5/6 301/5/6
f 297/5/6 298/5/6 302/5/6
f 295/5/6 301/5/6 303/5/6
f 301/5/6 302/5/6 303/5/6
f 302/5/6 298/5/6 304/5/6
f 303/5/6 302/5/6 304/5/6
f 305/5/6 306/5/6 308/5/6
f 307/5/6 308/5/6 309/5/6
f 308/5/6 306/5/6 310/5/6
f 309/5/6 308/5/6 310/5/6
