# MagicaVoxel @ Ephtracy

# group
o 

# material
mtllib building2.mtl
usemtl palette

# normals
vn -1 0 0
vn 1 0 0
vn 0 0 1
vn 0 0 -1
vn 0 -1 0
vn 0 1 0

# texcoords
vt 0.939453 0.5
vt 0.947266 0.5
vt 0.951172 0.5
vt 0.982422 0.5

# verts
v -0.5 0 0.5
v -0.5 0 -0.5
v -0.5 0.2 0.5
v -0.5 0.2 -0.5
v -0.5 0.3 0.4
v -0.5 0.3 0.3
v -0.5 0.3 0.1
v -0.5 0.3 -0.1
v -0.5 0.3 -0.3
v -0.5 0.3 -0.4
v -0.5 0.8 0.4
v -0.5 0.8 0.3
v -0.5 0.8 0.1
v -0.5 0.8 -0.1
v -0.5 0.8 -0.3
v -0.5 0.8 -0.4
v -0.5 0.9 0.5
v -0.5 0.9 0.3
v -0.5 0.9 -0.3
v -0.5 0.9 -0.5
v -0.5 1 0.3
v -0.5 1 -0.3
v -0.4 0.3 0.4
v -0.4 0.3 0.3
v -0.4 0.3 0.1
v -0.4 0.3 -0.1
v -0.4 0.3 -0.3
v -0.4 0.3 -0.4
v -0.4 0.8 0.4
v -0.4 0.8 0.3
v -0.4 0.8 0.1
v -0.4 0.8 -0.1
v -0.4 0.8 -0.3
v -0.4 0.8 -0.4
v -0.4 0.9 0.4
v -0.4 0.9 0.3
v -0.4 0.9 -0.3
v -0.4 0.9 -0.4
v -0.4 1 0.4
v -0.4 1 0.3
v -0.4 1 -0.3
v -0.4 1 -0.4
v -0.3 0.3 0.5
v -0.3 0.3 0.4
v -0.3 0.3 -0.4
v -0.3 0.3 -0.5
v -0.3 0.8 0.5
v -0.3 0.8 0.4
v -0.3 0.8 -0.4
v -0.3 0.8 -0.5
v -0.2 0.9 0.5
v -0.2 0.9 0.4
v -0.2 0.9 -0.4
v -0.2 0.9 -0.5
v -0.2 1 0.5
v -0.2 1 0.4
v -0.2 1 -0.4
v -0.2 1 -0.5
v 0.1 0.3 0.5
v 0.1 0.3 0.4
v 0.1 0.3 -0.4
v 0.1 0.3 -0.5
v 0.1 0.8 0.5
v 0.1 0.8 0.4
v 0.1 0.8 -0.4
v 0.1 0.8 -0.5
v 0.4 0.3 0.5
v 0.4 0.3 0.4
v 0.4 0.3 -0.4
v 0.4 0.3 -0.5
v 0.4 0.8 0.5
v 0.4 0.8 0.4
v 0.4 0.8 -0.4
v 0.4 0.8 -0.5
v -0.4 0.3 0.5
v -0.4 0.3 0.4
v -0.4 0.3 -0.4
v -0.4 0.3 -0.5
v -0.4 0.8 0.5
v -0.4 0.8 0.4
v -0.4 0.8 -0.4
v -0.4 0.8 -0.5
v -0.1 0.3 0.5
v -0.1 0.3 0.4
v -0.1 0.3 -0.4
v -0.1 0.3 -0.5
v -0.1 0.8 0.5
v -0.1 0.8 0.4
v -0.1 0.8 -0.4
v -0.1 0.8 -0.5
v 0.2 0.9 0.5
v 0.2 0.9 0.4
v 0.2 0.9 -0.4
v 0.2 0.9 -0.5
v 0.2 1 0.5
v 0.2 1 0.4
v 0.2 1 -0.4
v 0.2 1 -0.5
v 0.3 0.3 0.5
v 0.3 0.3 0.4
v 0.3 0.3 -0.4
v 0.3 0.3 -0.5
v 0.3 0.8 0.5
v 0.3 0.8 0.4
v 0.3 0.8 -0.4
v 0.3 0.8 -0.5
v 0.4 0.3 0.4
v 0.4 0.3 0.3
v 0.4 0.3 0.1
v 0.4 0.3 -0.1
v 0.4 0.3 -0.3
v 0.4 0.3 -0.4
v 0.4 0.8 0.4
v 0.4 0.8 0.3
v 0.4 0.8 0.1
v 0.4 0.8 -0.1
v 0.4 0.8 -0.3
v 0.4 0.8 -0.4
v 0.4 0.9 0.4
v 0.4 0.9 0.3
v 0.4 0.9 -0.3
v 0.4 0.9 -0.4
v 0.4 1 0.4
v 0.4 1 0.3
v 0.4 1 -0.3
v 0.4 1 -0.4
v 0.5 0 0.5
v 0.5 0 -0.5
v 0.5 0.2 0.5
v 0.5 0.2 -0.5
v 0.5 0.3 0.4
v 0.5 0.3 0.3
v 0.5 0.3 0.1
v 0.5 0.3 -0.1
v 0.5 0.3 -0.3
v 0.5 0.3 -0.4
v 0.5 0.8 0.4
v 0.5 0.8 0.3
v 0.5 0.8 0.1
v 0.5 0.8 -0.1
v 0.5 0.8 -0.3
v 0.5 0.8 -0.4
v 0.5 0.9 0.5
v 0.5 0.9 0.3
v 0.5 0.9 -0.3
v 0.5 0.9 -0.5
v 0.5 1 0.3
v 0.5 1 -0.3
v -0.5 0 0.5
v -0.5 0.2 0.5
v -0.5 0.9 0.5
v -0.4 0.3 0.5
v -0.4 0.8 0.5
v -0.3 0.3 0.5
v -0.3 0.8 0.5
v -0.2 0.9 0.5
v -0.2 1 0.5
v -0.1 0.3 0.5
v -0.1 0.8 0.5
v 0.1 0.3 0.5
v 0.1 0.8 0.5
v 0.2 0.9 0.5
v 0.2 1 0.5
v 0.3 0.3 0.5
v 0.3 0.8 0.5
v 0.4 0.3 0.5
v 0.4 0.8 0.5
v 0.5 0 0.5
v 0.5 0.2 0.5
v 0.5 0.9 0.5
v -0.4 0.3 0.4
v -0.4 0.8 0.4
v -0.4 0.9 0.4
v -0.4 1 0.4
v -0.3 0.3 0.4
v -0.3 0.8 0.4
v -0.2 0.9 0.4
v -0.2 1 0.4
v -0.1 0.3 0.4
v -0.1 0.8 0.4
v 0.1 0.3 0.4
v 0.1 0.8 0.4
v 0.2 0.9 0.4
v 0.2 1 0.4
v 0.3 0.3 0.4
v 0.3 0.8 0.4
v 0.4 0.3 0.4
v 0.4 0.8 0.4
v 0.4 0.9 0.4
v 0.4 1 0.4
v -0.5 0.3 0.3
v -0.5 0.8 0.3
v -0.5 0.9 0.3
v -0.5 1 0.3
v -0.4 0.3 0.3
v -0.4 0.8 0.3
v -0.4 0.9 0.3
v -0.4 1 0.3
v 0.4 0.3 0.3
v 0.4 0.8 0.3
v 0.4 0.9 0.3
v 0.4 1 0.3
v 0.5 0.3 0.3
v 0.5 0.8 0.3
v 0.5 0.9 0.3
v 0.5 1 0.3
v -0.5 0.3 -0.1
v -0.5 0.8 -0.1
v -0.4 0.3 -0.1
v -0.4 0.8 -0.1
v 0.4 0.3 -0.1
v 0.4 0.8 -0.1
v 0.5 0.3 -0.1
v 0.5 0.8 -0.1
v -0.5 0.3 -0.4
v -0.5 0.8 -0.4
v -0.4 0.3 -0.4
v -0.4 0.8 -0.4
v 0.4 0.3 -0.4
v 0.4 0.8 -0.4
v 0.5 0.3 -0.4
v 0.5 0.8 -0.4
v -0.5 0.3 0.4
v -0.5 0.8 0.4
v -0.4 0.3 0.4
v -0.4 0.8 0.4
v 0.4 0.3 0.4
v 0.4 0.8 0.4
v 0.5 0.3 0.4
v 0.5 0.8 0.4
v -0.5 0.3 0.1
v -0.5 0.8 0.1
v -0.4 0.3 0.1
v -0.4 0.8 0.1
v 0.4 0.3 0.1
v 0.4 0.8 0.1
v 0.5 0.3 0.1
v 0.5 0.8 0.1
v -0.5 0.3 -0.3
v -0.5 0.8 -0.3
v -0.5 0.9 -0.3
v -0.5 1 -0.3
v -0.4 0.3 -0.3
v -0.4 0.8 -0.3
v -0.4 0.9 -0.3
v -0.4 1 -0.3
v 0.4 0.3 -0.3
v 0.4 0.8 -0.3
v 0.4 0.9 -0.3
v 0.4 1 -0.3
v 0.5 0.3 -0.3
v 0.5 0.8 -0.3
v 0.5 0.9 -0.3
v 0.5 1 -0.3
v -0.4 0.3 -0.4
v -0.4 0.8 -0.4
v -0.4 0.9 -0.4
v -0.4 1 -0.4
v -0.3 0.3 -0.4
v -0.3 0.8 -0.4
v -0.2 0.9 -0.4
v -0.2 1 -0.4
v -0.1 0.3 -0.4
v -0.1 0.8 -0.4
v 0.1 0.3 -0.4
v 0.1 0.8 -0.4
v 0.2 0.9 -0.4
v 0.2 1 -0.4
v 0.3 0.3 -0.4
v 0.3 0.8 -0.4
v 0.4 0.3 -0.4
v 0.4 0.8 -0.4
v 0.4 0.9 -0.4
v 0.4 1 -0.4
v -0.5 0 -0.5
v -0.5 0.2 -0.5
v -0.5 0.9 -0.5
v -0.4 0.3 -0.5
v -0.4 0.8 -0.5
v -0.3 0.3 -0.5
v -0.3 0.8 -0.5
v -0.2 0.9 -0.5
v -0.2 1 -0.5
v -0.1 0.3 -0.5
v -0.1 0.8 -0.5
v 0.1 0.3 -0.5
v 0.1 0.8 -0.5
v 0.2 0.9 -0.5
v 0.2 1 -0.5
v 0.3 0.3 -0.5
v 0.3 0.8 -0.5
v 0.4 0.3 -0.5
v 0.4 0.8 -0.5
v 0.5 0 -0.5
v 0.5 0.2 -0.5
v 0.5 0.9 -0.5
v -0.5 0 0.5
v 0.5 0 0.5
v -0.5 0 -0.5
v 0.5 0 -0.5
v -0.4 0.8 0.5
v -0.3 0.8 0.5
v -0.1 0.8 0.5
v 0.1 0.8 0.5
v 0.3 0.8 0.5
v 0.4 0.8 0.5
v -0.5 0.8 0.4
v -0.4 0.8 0.4
v -0.3 0.8 0.4
v -0.1 0.8 0.4
v 0.1 0.8 0.4
v 0.3 0.8 0.4
v 0.4 0.8 0.4
v 0.5 0.8 0.4
v -0.5 0.8 0.3
v -0.4 0.8 0.3
v 0.4 0.8 0.3
v 0.5 0.8 0.3
v -0.5 0.8 0.1
v -0.4 0.8 0.1
v 0.4 0.8 0.1
v 0.5 0.8 0.1
v -0.5 0.8 -0.1
v -0.4 0.8 -0.1
v 0.4 0.8 -0.1
v 0.5 0.8 -0.1
v -0.5 0.8 -0.3
v -0.4 0.8 -0.3
v 0.4 0.8 -0.3
v 0.5 0.8 -0.3
v -0.5 0.8 -0.4
v -0.4 0.8 -0.4
v -0.3 0.8 -0.4
v -0.1 0.8 -0.4
v 0.1 0.8 -0.4
v 0.3 0.8 -0.4
v 0.4 0.8 -0.4
v 0.5 0.8 -0.4
v -0.4 0.8 -0.5
v -0.3 0.8 -0.5
v -0.1 0.8 -0.5
v 0.1 0.8 -0.5
v 0.3 0.8 -0.5
v 0.4 0.8 -0.5
v -0.4 0.3 0.5
v -0.3 0.3 0.5
v -0.1 0.3 0.5
v 0.1 0.3 0.5
v 0.3 0.3 0.5
v 0.4 0.3 0.5
v -0.5 0.3 0.4
v -0.4 0.3 0.4
v -0.3 0.3 0.4
v -0.1 0.3 0.4
v 0.1 0.3 0.4
v 0.3 0.3 0.4
v 0.4 0.3 0.4
v 0.5 0.3 0.4
v -0.5 0.3 0.3
v -0.4 0.3 0.3
v 0.4 0.3 0.3
v 0.5 0.3 0.3
v -0.5 0.3 0.1
v -0.4 0.3 0.1
v 0.4 0.3 0.1
v 0.5 0.3 0.1
v -0.5 0.3 -0.1
v -0.4 0.3 -0.1
v 0.4 0.3 -0.1
v 0.5 0.3 -0.1
v -0.5 0.3 -0.3
v -0.4 0.3 -0.3
v 0.4 0.3 -0.3
v 0.5 0.3 -0.3
v -0.5 0.3 -0.4
v -0.4 0.3 -0.4
v -0.3 0.3 -0.4
v -0.1 0.3 -0.4
v 0.1 0.3 -0.4
v 0.3 0.3 -0.4
v 0.4 0.3 -0.4
v 0.5 0.3 -0.4
v -0.4 0.3 -0.5
v -0.3 0.3 -0.5
v -0.1 0.3 -0.5
v 0.1 0.3 -0.5
v 0.3 0.3 -0.5
v 0.4 0.3 -0.5
v -0.5 0.9 0.5
v -0.2 0.9 0.5
v 0.2 0.9 0.5
v 0.5 0.9 0.5
v -0.4 0.9 0.4
v -0.2 0.9 0.4
v 0.2 0.9 0.4
v 0.4 0.9 0.4
v -0.5 0.9 0.3
v -0.4 0.9 0.3
v 0.4 0.9 0.3
v 0.5 0.9 0.3
v -0.5 0.9 -0.3
v -0.4 0.9 -0.3
v 0.4 0.9 -0.3
v 0.5 0.9 -0.3
v -0.4 0.9 -0.4
v -0.2 0.9 -0.4
v 0.2 0.9 -0.4
v 0.4 0.9 -0.4
v -0.5 0.9 -0.5
v -0.2 0.9 -0.5
v 0.2 0.9 -0.5
v 0.5 0.9 -0.5
v -0.2 1 0.5
v 0.2 1 0.5
v -0.4 1 0.4
v -0.2 1 0.4
v 0.2 1 0.4
v 0.4 1 0.4
v -0.5 1 0.3
v -0.4 1 0.3
v 0.4 1 0.3
v 0.5 1 0.3
v -0.5 1 -0.3
v -0.4 1 -0.3
v 0.4 1 -0.3
v 0.5 1 -0.3
v -0.4 1 -0.4
v -0.2 1 -0.4
v 0.2 1 -0.4
v 0.4 1 -0.4
v -0.2 1 -0.5
v 0.2 1 -0.5

# faces
f 3/4/1 2/4/1 1/4/1
f 4/4/1 2/4/1 3/4/1
f 5/3/1 4/3/1 3/3/1
f 6/3/1 4/3/1 5/3/1
f 7/3/1 4/3/1 6/3/1
f 8/3/1 4/3/1 7/3/1
f 9/3/1 4/3/1 8/3/1
f 10/3/1 4/3/1 9/3/1
f 11/3/1 5/3/1 3/3/1
f 12/3/1 7/3/1 6/3/1
f 13/3/1 7/3/1 12/3/1
f 14/3/1 9/3/1 8/3/1
f 15/3/1 9/3/1 14/3/1
f 16/3/1 4/3/1 10/3/1
f 17/3/1 15/3/1 14/3/1
f 17/3/1 16/3/1 15/3/1
f 17/3/1 13/3/1 12/3/1
f 17/3/1 11/3/1 3/3/1
f 17/3/1 14/3/1 13/3/1
f 17/3/1 12/3/1 11/3/1
f 18/3/1 16/3/1 17/3/1
f 19/3/1 16/3/1 18/3/1
f 20/3/1 4/3/1 16/3/1
f 20/3/1 16/3/1 19/3/1
f 21/2/1 19/2/1 18/2/1
f 22/2/1 19/2/1 21/2/1
f 29/1/1 24/1/1 23/1/1
f 30/1/1 24/1/1 29/1/1
f 31/1/1 26/1/1 25/1/1
f 32/1/1 26/1/1 31/1/1
f 33/1/1 28/1/1 27/1/1
f 34/1/1 28/1/1 33/1/1
f 39/2/1 36/2/1 35/2/1
f 40/2/1 36/2/1 39/2/1
f 41/2/1 38/2/1 37/2/1
f 42/2/1 38/2/1 41/2/1
f 47/3/1 44/3/1 43/3/1
f 48/3/1 44/3/1 47/3/1
f 49/3/1 46/3/1 45/3/1
f 50/3/1 46/3/1 49/3/1
f 55/2/1 52/2/1 51/2/1
f 56/2/1 52/2/1 55/2/1
f 57/2/1 54/2/1 53/2/1
f 58/2/1 54/2/1 57/2/1
f 63/3/1 60/3/1 59/3/1
f 64/3/1 60/3/1 63/3/1
f 65/3/1 62/3/1 61/3/1
f 66/3/1 62/3/1 65/3/1
f 71/3/1 68/3/1 67/3/1
f 72/3/1 68/3/1 71/3/1
f 73/3/1 70/3/1 69/3/1
f 74/3/1 70/3/1 73/3/1
f 75/3/2 76/3/2 79/3/2
f 79/3/2 76/3/2 80/3/2
f 77/3/2 78/3/2 81/3/2
f 81/3/2 78/3/2 82/3/2
f 83/3/2 84/3/2 87/3/2
f 87/3/2 84/3/2 88/3/2
f 85/3/2 86/3/2 89/3/2
f 89/3/2 86/3/2 90/3/2
f 91/2/2 92/2/2 95/2/2
f 95/2/2 92/2/2 96/2/2
f 93/2/2 94/2/2 97/2/2
f 97/2/2 94/2/2 98/2/2
f 99/3/2 100/3/2 103/3/2
f 103/3/2 100/3/2 104/3/2
f 101/3/2 102/3/2 105/3/2
f 105/3/2 102/3/2 106/3/2
f 107/1/2 108/1/2 113/1/2
f 113/1/2 108/1/2 114/1/2
f 109/1/2 110/1/2 115/1/2
f 115/1/2 110/1/2 116/1/2
f 111/1/2 112/1/2 117/1/2
f 117/1/2 112/1/2 118/1/2
f 119/2/2 120/2/2 123/2/2
f 123/2/2 120/2/2 124/2/2
f 121/2/2 122/2/2 125/2/2
f 125/2/2 122/2/2 126/2/2
f 127/4/2 128/4/2 129/4/2
f 129/4/2 128/4/2 130/4/2
f 129/3/2 130/3/2 131/3/2
f 131/3/2 130/3/2 132/3/2
f 132/3/2 130/3/2 133/3/2
f 133/3/2 130/3/2 134/3/2
f 134/3/2 130/3/2 135/3/2
f 135/3/2 130/3/2 136/3/2
f 129/3/2 131/3/2 137/3/2
f 132/3/2 133/3/2 138/3/2
f 138/3/2 133/3/2 139/3/2
f 134/3/2 135/3/2 140/3/2
f 140/3/2 135/3/2 141/3/2
f 136/3/2 130/3/2 142/3/2
f 140/3/2 141/3/2 143/3/2
f 141/3/2 142/3/2 143/3/2
f 138/3/2 139/3/2 143/3/2
f 129/3/2 137/3/2 143/3/2
f 139/3/2 140/3/2 143/3/2
f 137/3/2 138/3/2 143/3/2
f 143/3/2 142/3/2 144/3/2
f 144/3/2 142/3/2 145/3/2
f 142/3/2 130/3/2 146/3/2
f 145/3/2 142/3/2 146/3/2
f 144/2/2 145/2/2 147/2/2
f 147/2/2 145/2/2 148/2/2
f 152/3/3 151/3/3 150/3/3
f 153/3/3 151/3/3 152/3/3
f 154/3/3 152/3/3 150/3/3
f 155/3/3 151/3/3 153/3/3
f 156/3/3 151/3/3 155/3/3
f 156/3/3 155/3/3 154/3/3
f 158/3/3 154/3/3 150/3/3
f 158/3/3 156/3/3 154/3/3
f 159/3/3 156/3/3 158/3/3
f 160/3/3 158/3/3 150/3/3
f 161/3/3 156/3/3 159/3/3
f 162/2/3 157/2/3 156/2/3
f 162/3/3 161/3/3 160/3/3
f 162/3/3 156/3/3 161/3/3
f 163/2/3 157/2/3 162/2/3
f 164/3/3 160/3/3 150/3/3
f 164/3/3 162/3/3 160/3/3
f 165/3/3 162/3/3 164/3/3
f 166/3/3 164/3/3 150/3/3
f 167/3/3 162/3/3 165/3/3
f 168/4/3 150/4/3 149/4/3
f 169/3/3 167/3/3 166/3/3
f 169/4/3 150/4/3 168/4/3
f 169/3/3 166/3/3 150/3/3
f 170/3/3 162/3/3 167/3/3
f 170/3/3 167/3/3 169/3/3
f 175/1/3 172/1/3 171/1/3
f 176/1/3 172/1/3 175/1/3
f 177/2/3 174/2/3 173/2/3
f 178/2/3 174/2/3 177/2/3
f 181/1/3 180/1/3 179/1/3
f 182/1/3 180/1/3 181/1/3
f 187/1/3 186/1/3 185/1/3
f 188/1/3 186/1/3 187/1/3
f 189/2/3 184/2/3 183/2/3
f 190/2/3 184/2/3 189/2/3
f 195/3/3 192/3/3 191/3/3
f 196/3/3 192/3/3 195/3/3
f 197/2/3 194/2/3 193/2/3
f 198/2/3 194/2/3 197/2/3
f 203/3/3 200/3/3 199/3/3
f 204/3/3 200/3/3 203/3/3
f 205/2/3 202/2/3 201/2/3
f 206/2/3 202/2/3 205/2/3
f 209/3/3 208/3/3 207/3/3
f 210/3/3 208/3/3 209/3/3
f 213/3/3 212/3/3 211/3/3
f 214/3/3 212/3/3 213/3/3
f 217/3/3 216/3/3 215/3/3
f 218/3/3 216/3/3 217/3/3
f 221/3/3 220/3/3 219/3/3
f 222/3/3 220/3/3 221/3/3
f 223/3/4 224/3/4 225/3/4
f 225/3/4 224/3/4 226/3/4
f 227/3/4 228/3/4 229/3/4
f 229/3/4 228/3/4 230/3/4
f 231/3/4 232/3/4 233/3/4
f 233/3/4 232/3/4 234/3/4
f 235/3/4 236/3/4 237/3/4
f 237/3/4 236/3/4 238/3/4
f 239/3/4 240/3/4 243/3/4
f 243/3/4 240/3/4 244/3/4
f 241/2/4 242/2/4 245/2/4
f 245/2/4 242/2/4 246/2/4
f 247/3/4 248/3/4 251/3/4
f 251/3/4 248/3/4 252/3/4
f 249/2/4 250/2/4 253/2/4
f 253/2/4 250/2/4 254/2/4
f 255/1/4 256/1/4 259/1/4
f 259/1/4 256/1/4 260/1/4
f 257/2/4 258/2/4 261/2/4
f 261/2/4 258/2/4 262/2/4
f 263/1/4 264/1/4 265/1/4
f 265/1/4 264/1/4 266/1/4
f 269/1/4 270/1/4 271/1/4
f 271/1/4 270/1/4 272/1/4
f 267/2/4 268/2/4 273/2/4
f 273/2/4 268/2/4 274/2/4
f 276/3/4 277/3/4 278/3/4
f 278/3/4 277/3/4 279/3/4
f 276/3/4 278/3/4 280/3/4
f 279/3/4 277/3/4 281/3/4
f 281/3/4 277/3/4 282/3/4
f 280/3/4 281/3/4 282/3/4
f 276/3/4 280/3/4 284/3/4
f 280/3/4 282/3/4 284/3/4
f 284/3/4 282/3/4 285/3/4
f 276/3/4 284/3/4 286/3/4
f 285/3/4 282/3/4 287/3/4
f 282/2/4 283/2/4 288/2/4
f 286/3/4 287/3/4 288/3/4
f 287/3/4 282/3/4 288/3/4
f 288/2/4 283/2/4 289/2/4
f 276/3/4 286/3/4 290/3/4
f 286/3/4 288/3/4 290/3/4
f 290/3/4 288/3/4 291/3/4
f 276/3/4 290/3/4 292/3/4
f 291/3/4 288/3/4 293/3/4
f 275/4/4 276/4/4 294/4/4
f 292/3/4 293/3/4 295/3/4
f 294/4/4 276/4/4 295/4/4
f 276/3/4 292/3/4 295/3/4
f 293/3/4 288/3/4 296/3/4
f 295/3/4 293/3/4 296/3/4
f 299/4/5 298/4/5 297/4/5
f 300/4/5 298/4/5 299/4/5
f 308/3/5 302/3/5 301/3/5
f 309/3/5 302/3/5 308/3/5
f 310/3/5 304/3/5 303/3/5
f 311/3/5 304/3/5 310/3/5
f 312/3/5 306/3/5 305/3/5
f 313/3/5 306/3/5 312/3/5
f 315/3/5 308/3/5 307/3/5
f 316/3/5 308/3/5 315/3/5
f 317/3/5 314/3/5 313/3/5
f 318/3/5 314/3/5 317/3/5
f 323/3/5 320/3/5 319/3/5
f 324/3/5 320/3/5 323/3/5
f 325/3/5 322/3/5 321/3/5
f 326/3/5 322/3/5 325/3/5
f 331/3/5 328/3/5 327/3/5
f 332/3/5 328/3/5 331/3/5
f 337/3/5 330/3/5 329/3/5
f 338/3/5 330/3/5 337/3/5
f 339/3/5 333/3/5 332/3/5
f 340/3/5 333/3/5 339/3/5
f 341/3/5 335/3/5 334/3/5
f 342/3/5 335/3/5 341/3/5
f 343/3/5 337/3/5 336/3/5
f 344/3/5 337/3/5 343/3/5
f 345/3/6 346/3/6 352/3/6
f 352/3/6 346/3/6 353/3/6
f 347/3/6 348/3/6 354/3/6
f 354/3/6 348/3/6 355/3/6
f 349/3/6 350/3/6 356/3/6
f 356/3/6 350/3/6 357/3/6
f 351/3/6 352/3/6 359/3/6
f 359/3/6 352/3/6 360/3/6
f 357/3/6 358/3/6 361/3/6
f 361/3/6 358/3/6 362/3/6
f 363/3/6 364/3/6 367/3/6
f 367/3/6 364/3/6 368/3/6
f 365/3/6 366/3/6 369/3/6
f 369/3/6 366/3/6 370/3/6
f 371/3/6 372/3/6 375/3/6
f 375/3/6 372/3/6 376/3/6
f 373/3/6 374/3/6 381/3/6
f 381/3/6 374/3/6 382/3/6
f 376/3/6 377/3/6 383/3/6
f 383/3/6 377/3/6 384/3/6
f 378/3/6 379/3/6 385/3/6
f 385/3/6 379/3/6 386/3/6
f 380/3/6 381/3/6 387/3/6
f 387/3/6 381/3/6 388/3/6
f 389/3/6 390/3/6 393/3/6
f 393/3/6 390/3/6 394/3/6
f 391/3/6 392/3/6 395/3/6
f 395/3/6 392/3/6 396/3/6
f 389/3/6 393/3/6 397/3/6
f 397/3/6 393/3/6 398/3/6
f 396/3/6 392/3/6 399/3/6
f 399/3/6 392/3/6 400/3/6
f 401/3/6 402/3/6 405/3/6
f 403/3/6 404/3/6 408/3/6
f 405/3/6 406/3/6 409/3/6
f 401/3/6 405/3/6 409/3/6
f 409/3/6 406/3/6 410/3/6
f 407/3/6 408/3/6 411/3/6
f 408/3/6 404/3/6 412/3/6
f 411/3/6 408/3/6 412/3/6
f 413/2/6 414/2/6 416/2/6
f 416/2/6 414/2/6 417/2/6
f 415/2/6 416/2/6 420/2/6
f 417/2/6 418/2/6 420/2/6
f 416/2/6 417/2/6 420/2/6
f 420/2/6 418/2/6 421/2/6
f 419/2/6 420/2/6 423/2/6
f 421/2/6 422/2/6 423/2/6
f 420/2/6 421/2/6 423/2/6
f 423/2/6 422/2/6 424/2/6
f 424/2/6 422/2/6 425/2/6
f 425/2/6 422/2/6 426/2/6
f 424/2/6 425/2/6 427/2/6
f 427/2/6 425/2/6 428/2/6
f 428/2/6 425/2/6 429/2/6
f 429/2/6 425/2/6 430/2/6
f 428/2/6 429/2/6 431/2/6
f 431/2/6 429/2/6 432/2/6
