# MagicaVoxel @ Ephtracy

# group
o 

# material
mtllib building5.mtl
usemtl palette

# normals
vn -1 0 0
vn 1 0 0
vn 0 0 1
vn 0 0 -1
vn 0 -1 0
vn 0 1 0

# texcoords
vt 0.919922 0.5
vt 0.947266 0.5
vt 0.978516 0.5
vt 0.982422 0.5
vt 0.986328 0.5

# verts
v -0.5 0 0.5
v -0.5 0 -0.5
v -0.5 0.1 0.5
v -0.5 0.1 -0.5
v -0.5 0.2 0.5
v -0.5 0.2 -0.5
v -0.4 0.2 0.5
v -0.4 0.2 0.3
v -0.4 0.2 0.2
v -0.4 0.2 0.1
v -0.4 0.2 -0.1
v -0.4 0.2 -0.2
v -0.4 0.2 -0.3
v -0.4 0.2 -0.5
v -0.4 0.4 0.2
v -0.4 0.4 0.1
v -0.4 0.4 -0.1
v -0.4 0.4 -0.2
v -0.4 0.5 0.3
v -0.4 0.5 0.2
v -0.4 0.5 0.1
v -0.4 0.5 -0.1
v -0.4 0.5 -0.2
v -0.4 0.5 -0.3
v -0.4 0.6 0.1
v -0.4 0.6 -0.1
v -0.4 1 0.5
v -0.4 1 0.4
v -0.4 1 0.2
v -0.4 1 0.1
v -0.4 1 -0.1
v -0.4 1 -0.2
v -0.4 1 -0.4
v -0.4 1 -0.5
v -0.4 1.1 0.4
v -0.4 1.1 -0.4
v -0.3 0.2 0.3
v -0.3 0.2 0.2
v -0.3 0.2 0.1
v -0.3 0.2 -0.1
v -0.3 0.2 -0.2
v -0.3 0.2 -0.3
v -0.3 0.4 0.2
v -0.3 0.4 0.1
v -0.3 0.4 -0.1
v -0.3 0.4 -0.2
v -0.3 0.5 0.3
v -0.3 0.5 0.2
v -0.3 0.5 0.1
v -0.3 0.5 -0.1
v -0.3 0.5 -0.2
v -0.3 0.5 -0.3
v -0.3 0.6 0.1
v -0.3 0.6 -0.1
v -0.3 1 0.5
v -0.3 1 0.4
v -0.3 1 0.2
v -0.3 1 0.1
v -0.3 1 -0.1
v -0.3 1 -0.2
v -0.3 1 -0.4
v -0.3 1 -0.5
v -0.3 1.1 0.5
v -0.3 1.1 0.4
v -0.3 1.1 -0.4
v -0.3 1.1 -0.5
v -0.2 0.2 0.5
v -0.2 0.2 0.4
v -0.2 0.2 -0.4
v -0.2 0.2 -0.5
v -0.2 0.6 0.5
v -0.2 0.6 0.4
v -0.2 0.6 -0.4
v -0.2 0.6 -0.5
v -0.2 0.8 0.5
v -0.2 0.8 0.4
v -0.2 0.8 -0.4
v -0.2 0.8 -0.5
v -0.2 1 0.5
v -0.2 1 0.4
v -0.2 1 -0.4
v -0.2 1 -0.5
v 0.1 0.2 0.5
v 0.1 0.2 0.3
v 0.1 0.2 -0.3
v 0.1 0.2 -0.5
v 0.1 0.5 0.3
v 0.1 0.5 -0.3
v 0.1 0.6 0.5
v 0.1 0.6 0.3
v 0.1 0.6 -0.3
v 0.1 0.6 -0.5
v 0.1 0.8 0.5
v 0.1 0.8 0.4
v 0.1 0.8 -0.4
v 0.1 0.8 -0.5
v 0.1 1 0.5
v 0.1 1 0.4
v 0.1 1 -0.4
v 0.1 1 -0.5
v 0.3 0.2 0.5
v 0.3 0.2 0.4
v 0.3 0.2 -0.4
v 0.3 0.2 -0.5
v 0.3 0.6 0.5
v 0.3 0.6 0.4
v 0.3 0.6 -0.4
v 0.3 0.6 -0.5
v 0.3 0.8 0.5
v 0.3 0.8 0.4
v 0.3 0.8 -0.4
v 0.3 0.8 -0.5
v 0.3 1 0.5
v 0.3 1 0.4
v 0.3 1 -0.4
v 0.3 1 -0.5
v -0.3 0.2 0.5
v -0.3 0.2 0.4
v -0.3 0.2 -0.4
v -0.3 0.2 -0.5
v -0.3 0.6 0.5
v -0.3 0.6 0.4
v -0.3 0.6 -0.4
v -0.3 0.6 -0.5
v -0.3 0.8 0.5
v -0.3 0.8 0.4
v -0.3 0.8 -0.4
v -0.3 0.8 -0.5
v -0.3 1 0.5
v -0.3 1 0.4
v -0.3 1 -0.4
v -0.3 1 -0.5
v -0.1 0.2 0.5
v -0.1 0.2 0.3
v -0.1 0.2 -0.3
v -0.1 0.2 -0.5
v -0.1 0.5 0.3
v -0.1 0.5 -0.3
v -0.1 0.6 0.5
v -0.1 0.6 0.3
v -0.1 0.6 -0.3
v -0.1 0.6 -0.5
v -0.1 0.8 0.5
v -0.1 0.8 0.4
v -0.1 0.8 -0.4
v -0.1 0.8 -0.5
v -0.1 1 0.5
v -0.1 1 0.4
v -0.1 1 -0.4
v -0.1 1 -0.5
v 0.2 0.2 0.5
v 0.2 0.2 0.4
v 0.2 0.2 -0.4
v 0.2 0.2 -0.5
v 0.2 0.6 0.5
v 0.2 0.6 0.4
v 0.2 0.6 -0.4
v 0.2 0.6 -0.5
v 0.2 0.8 0.5
v 0.2 0.8 0.4
v 0.2 0.8 -0.4
v 0.2 0.8 -0.5
v 0.2 1 0.5
v 0.2 1 0.4
v 0.2 1 -0.4
v 0.2 1 -0.5
v 0.3 0.2 0.3
v 0.3 0.2 0.2
v 0.3 0.2 0.1
v 0.3 0.2 -0.1
v 0.3 0.2 -0.2
v 0.3 0.2 -0.3
v 0.3 0.4 0.2
v 0.3 0.4 0.1
v 0.3 0.4 -0.1
v 0.3 0.4 -0.2
v 0.3 0.5 0.3
v 0.3 0.5 0.2
v 0.3 0.5 0.1
v 0.3 0.5 -0.1
v 0.3 0.5 -0.2
v 0.3 0.5 -0.3
v 0.3 0.6 0.1
v 0.3 0.6 -0.1
v 0.3 1 0.5
v 0.3 1 0.4
v 0.3 1 0.2
v 0.3 1 0.1
v 0.3 1 -0.1
v 0.3 1 -0.2
v 0.3 1 -0.4
v 0.3 1 -0.5
v 0.3 1.1 0.5
v 0.3 1.1 0.4
v 0.3 1.1 -0.4
v 0.3 1.1 -0.5
v 0.4 0.2 0.5
v 0.4 0.2 0.3
v 0.4 0.2 0.2
v 0.4 0.2 0.1
v 0.4 0.2 -0.1
v 0.4 0.2 -0.2
v 0.4 0.2 -0.3
v 0.4 0.2 -0.5
v 0.4 0.4 0.2
v 0.4 0.4 0.1
v 0.4 0.4 -0.1
v 0.4 0.4 -0.2
v 0.4 0.5 0.3
v 0.4 0.5 0.2
v 0.4 0.5 0.1
v 0.4 0.5 -0.1
v 0.4 0.5 -0.2
v 0.4 0.5 -0.3
v 0.4 0.6 0.1
v 0.4 0.6 -0.1
v 0.4 1 0.5
v 0.4 1 0.4
v 0.4 1 0.2
v 0.4 1 0.1
v 0.4 1 -0.1
v 0.4 1 -0.2
v 0.4 1 -0.4
v 0.4 1 -0.5
v 0.4 1.1 0.4
v 0.4 1.1 -0.4
v 0.5 0 0.5
v 0.5 0 -0.5
v 0.5 0.1 0.5
v 0.5 0.1 -0.5
v 0.5 0.2 0.5
v 0.5 0.2 -0.5
v -0.5 0 0.5
v -0.5 0.1 0.5
v -0.5 0.2 0.5
v -0.4 0.2 0.5
v -0.4 1 0.5
v -0.3 0.2 0.5
v -0.3 0.6 0.5
v -0.3 0.8 0.5
v -0.3 1 0.5
v -0.3 1.1 0.5
v -0.2 0.2 0.5
v -0.2 0.6 0.5
v -0.2 0.8 0.5
v -0.2 1 0.5
v -0.1 0.2 0.5
v -0.1 0.6 0.5
v -0.1 0.8 0.5
v -0.1 1 0.5
v 0.1 0.2 0.5
v 0.1 0.6 0.5
v 0.1 0.8 0.5
v 0.1 1 0.5
v 0.2 0.2 0.5
v 0.2 0.6 0.5
v 0.2 0.8 0.5
v 0.2 1 0.5
v 0.3 0.2 0.5
v 0.3 0.6 0.5
v 0.3 0.8 0.5
v 0.3 1 0.5
v 0.3 1.1 0.5
v 0.4 0.2 0.5
v 0.4 1 0.5
v 0.5 0 0.5
v 0.5 0.1 0.5
v 0.5 0.2 0.5
v -0.4 1 0.4
v -0.4 1.1 0.4
v -0.3 0.2 0.4
v -0.3 0.6 0.4
v -0.3 0.8 0.4
v -0.3 1 0.4
v -0.3 1.1 0.4
v -0.2 0.2 0.4
v -0.2 0.6 0.4
v -0.2 0.8 0.4
v -0.2 1 0.4
v -0.1 0.8 0.4
v -0.1 1 0.4
v 0.1 0.8 0.4
v 0.1 1 0.4
v 0.2 0.2 0.4
v 0.2 0.6 0.4
v 0.2 0.8 0.4
v 0.2 1 0.4
v 0.3 0.2 0.4
v 0.3 0.6 0.4
v 0.3 0.8 0.4
v 0.3 1 0.4
v 0.3 1.1 0.4
v 0.4 1 0.4
v 0.4 1.1 0.4
v -0.1 0.2 0.3
v -0.1 0.5 0.3
v -0.1 0.6 0.3
v 0.1 0.2 0.3
v 0.1 0.5 0.3
v 0.1 0.6 0.3
v -0.4 0.2 0.2
v -0.4 0.4 0.2
v -0.3 0.2 0.2
v -0.3 0.4 0.2
v 0.3 0.2 0.2
v 0.3 0.4 0.2
v 0.4 0.2 0.2
v 0.4 0.4 0.2
v -0.4 0.4 0.1
v -0.4 0.5 0.1
v -0.4 0.6 0.1
v -0.4 1 0.1
v -0.3 0.4 0.1
v -0.3 0.5 0.1
v -0.3 0.6 0.1
v -0.3 1 0.1
v 0.3 0.4 0.1
v 0.3 0.5 0.1
v 0.3 0.6 0.1
v 0.3 1 0.1
v 0.4 0.4 0.1
v 0.4 0.5 0.1
v 0.4 0.6 0.1
v 0.4 1 0.1
v -0.4 0.2 -0.1
v -0.4 0.4 -0.1
v -0.3 0.2 -0.1
v -0.3 0.4 -0.1
v 0.3 0.2 -0.1
v 0.3 0.4 -0.1
v 0.4 0.2 -0.1
v 0.4 0.4 -0.1
v -0.4 0.5 -0.2
v -0.4 1 -0.2
v -0.3 0.5 -0.2
v -0.3 1 -0.2
v 0.3 0.5 -0.2
v 0.3 1 -0.2
v 0.4 0.5 -0.2
v 0.4 1 -0.2
v -0.4 0.2 -0.3
v -0.4 0.5 -0.3
v -0.3 0.2 -0.3
v -0.3 0.5 -0.3
v 0.3 0.2 -0.3
v 0.3 0.5 -0.3
v 0.4 0.2 -0.3
v 0.4 0.5 -0.3
v -0.4 0.2 0.3
v -0.4 0.5 0.3
v -0.3 0.2 0.3
v -0.3 0.5 0.3
v 0.3 0.2 0.3
v 0.3 0.5 0.3
v 0.4 0.2 0.3
v 0.4 0.5 0.3
v -0.4 0.5 0.2
v -0.4 1 0.2
v -0.3 0.5 0.2
v -0.3 1 0.2
v 0.3 0.5 0.2
v 0.3 1 0.2
v 0.4 0.5 0.2
v 0.4 1 0.2
v -0.4 0.2 0.1
v -0.4 0.4 0.1
v -0.3 0.2 0.1
v -0.3 0.4 0.1
v 0.3 0.2 0.1
v 0.3 0.4 0.1
v 0.4 0.2 0.1
v 0.4 0.4 0.1
v -0.4 0.4 -0.1
v -0.4 0.5 -0.1
v -0.4 0.6 -0.1
v -0.4 1 -0.1
v -0.3 0.4 -0.1
v -0.3 0.5 -0.1
v -0.3 0.6 -0.1
v -0.3 1 -0.1
v 0.3 0.4 -0.1
v 0.3 0.5 -0.1
v 0.3 0.6 -0.1
v 0.3 1 -0.1
v 0.4 0.4 -0.1
v 0.4 0.5 -0.1
v 0.4 0.6 -0.1
v 0.4 1 -0.1
v -0.4 0.2 -0.2
v -0.4 0.4 -0.2
v -0.3 0.2 -0.2
v -0.3 0.4 -0.2
v 0.3 0.2 -0.2
v 0.3 0.4 -0.2
v 0.4 0.2 -0.2
v 0.4 0.4 -0.2
v -0.1 0.2 -0.3
v -0.1 0.5 -0.3
v -0.1 0.6 -0.3
v 0.1 0.2 -0.3
v 0.1 0.5 -0.3
v 0.1 0.6 -0.3
v -0.4 1 -0.4
v -0.4 1.1 -0.4
v -0.3 0.2 -0.4
v -0.3 0.6 -0.4
v -0.3 0.8 -0.4
v -0.3 1 -0.4
v -0.3 1.1 -0.4
v -0.2 0.2 -0.4
v -0.2 0.6 -0.4
v -0.2 0.8 -0.4
v -0.2 1 -0.4
v -0.1 0.8 -0.4
v -0.1 1 -0.4
v 0.1 0.8 -0.4
v 0.1 1 -0.4
v 0.2 0.2 -0.4
v 0.2 0.6 -0.4
v 0.2 0.8 -0.4
v 0.2 1 -0.4
v 0.3 0.2 -0.4
v 0.3 0.6 -0.4
v 0.3 0.8 -0.4
v 0.3 1 -0.4
v 0.3 1.1 -0.4
v 0.4 1 -0.4
v 0.4 1.1 -0.4
v -0.5 0 -0.5
v -0.5 0.1 -0.5
v -0.5 0.2 -0.5
v -0.4 0.2 -0.5
v -0.4 1 -0.5
v -0.3 0.2 -0.5
v -0.3 0.6 -0.5
v -0.3 0.8 -0.5
v -0.3 1 -0.5
v -0.3 1.1 -0.5
v -0.2 0.2 -0.5
v -0.2 0.6 -0.5
v -0.2 0.8 -0.5
v -0.2 1 -0.5
v -0.1 0.2 -0.5
v -0.1 0.6 -0.5
v -0.1 0.8 -0.5
v -0.1 1 -0.5
v 0.1 0.2 -0.5
v 0.1 0.6 -0.5
v 0.1 0.8 -0.5
v 0.1 1 -0.5
v 0.2 0.2 -0.5
v 0.2 0.6 -0.5
v 0.2 0.8 -0.5
v 0.2 1 -0.5
v 0.3 0.2 -0.5
v 0.3 0.6 -0.5
v 0.3 0.8 -0.5
v 0.3 1 -0.5
v 0.3 1.1 -0.5
v 0.4 0.2 -0.5
v 0.4 1 -0.5
v 0.5 0 -0.5
v 0.5 0.1 -0.5
v 0.5 0.2 -0.5
v -0.5 0 0.5
v 0.5 0 0.5
v -0.5 0 -0.5
v 0.5 0 -0.5
v -0.4 0.4 0.1
v -0.3 0.4 0.1
v 0.3 0.4 0.1
v 0.4 0.4 0.1
v -0.4 0.4 -0.1
v -0.3 0.4 -0.1
v 0.3 0.4 -0.1
v 0.4 0.4 -0.1
v -0.4 0.5 0.3
v -0.3 0.5 0.3
v 0.3 0.5 0.3
v 0.4 0.5 0.3
v -0.4 0.5 0.2
v -0.3 0.5 0.2
v 0.3 0.5 0.2
v 0.4 0.5 0.2
v -0.4 0.5 -0.2
v -0.3 0.5 -0.2
v 0.3 0.5 -0.2
v 0.4 0.5 -0.2
v -0.4 0.5 -0.3
v -0.3 0.5 -0.3
v 0.3 0.5 -0.3
v 0.4 0.5 -0.3
v -0.3 0.6 0.5
v -0.2 0.6 0.5
v -0.1 0.6 0.5
v 0.1 0.6 0.5
v 0.2 0.6 0.5
v 0.3 0.6 0.5
v -0.3 0.6 0.4
v -0.2 0.6 0.4
v 0.2 0.6 0.4
v 0.3 0.6 0.4
v -0.1 0.6 0.3
v 0.1 0.6 0.3
v -0.4 0.6 0.1
v -0.3 0.6 0.1
v 0.3 0.6 0.1
v 0.4 0.6 0.1
v -0.4 0.6 -0.1
v -0.3 0.6 -0.1
v 0.3 0.6 -0.1
v 0.4 0.6 -0.1
v -0.1 0.6 -0.3
v 0.1 0.6 -0.3
v -0.3 0.6 -0.4
v -0.2 0.6 -0.4
v 0.2 0.6 -0.4
v 0.3 0.6 -0.4
v -0.3 0.6 -0.5
v -0.2 0.6 -0.5
v -0.1 0.6 -0.5
v 0.1 0.6 -0.5
v 0.2 0.6 -0.5
v 0.3 0.6 -0.5
v -0.3 1 0.5
v -0.2 1 0.5
v -0.1 1 0.5
v 0.1 1 0.5
v 0.2 1 0.5
v 0.3 1 0.5
v -0.3 1 0.4
v -0.2 1 0.4
v -0.1 1 0.4
v 0.1 1 0.4
v 0.2 1 0.4
v 0.3 1 0.4
v -0.4 1 0.2
v -0.3 1 0.2
v 0.3 1 0.2
v 0.4 1 0.2
v -0.4 1 0.1
v -0.3 1 0.1
v 0.3 1 0.1
v 0.4 1 0.1
v -0.4 1 -0.1
v -0.3 1 -0.1
v 0.3 1 -0.1
v 0.4 1 -0.1
v -0.4 1 -0.2
v -0.3 1 -0.2
v 0.3 1 -0.2
v 0.4 1 -0.2
v -0.3 1 -0.4
v -0.2 1 -0.4
v -0.1 1 -0.4
v 0.1 1 -0.4
v 0.2 1 -0.4
v 0.3 1 -0.4
v -0.3 1 -0.5
v -0.2 1 -0.5
v -0.1 1 -0.5
v 0.1 1 -0.5
v 0.2 1 -0.5
v 0.3 1 -0.5
v -0.5 0.2 0.5
v -0.4 0.2 0.5
v -0.3 0.2 0.5
v -0.2 0.2 0.5
v -0.1 0.2 0.5
v 0.1 0.2 0.5
v 0.2 0.2 0.5
v 0.3 0.2 0.5
v 0.4 0.2 0.5
v 0.5 0.2 0.5
v -0.3 0.2 0.4
v -0.2 0.2 0.4
v 0.2 0.2 0.4
v 0.3 0.2 0.4
v -0.4 0.2 0.3
v -0.3 0.2 0.3
v -0.1 0.2 0.3
v 0.1 0.2 0.3
v 0.3 0.2 0.3
v 0.4 0.2 0.3
v -0.4 0.2 0.2
v -0.3 0.2 0.2
v 0.3 0.2 0.2
v 0.4 0.2 0.2
v -0.4 0.2 0.1
v -0.3 0.2 0.1
v 0.3 0.2 0.1
v 0.4 0.2 0.1
v -0.4 0.2 -0.1
v -0.3 0.2 -0.1
v 0.3 0.2 -0.1
v 0.4 0.2 -0.1
v -0.4 0.2 -0.2
v -0.3 0.2 -0.2
v 0.3 0.2 -0.2
v 0.4 0.2 -0.2
v -0.4 0.2 -0.3
v -0.3 0.2 -0.3
v -0.1 0.2 -0.3
v 0.1 0.2 -0.3
v 0.3 0.2 -0.3
v 0.4 0.2 -0.3
v -0.3 0.2 -0.4
v -0.2 0.2 -0.4
v 0.2 0.2 -0.4
v 0.3 0.2 -0.4
v -0.5 0.2 -0.5
v -0.4 0.2 -0.5
v -0.3 0.2 -0.5
v -0.2 0.2 -0.5
v -0.1 0.2 -0.5
v 0.1 0.2 -0.5
v 0.2 0.2 -0.5
v 0.3 0.2 -0.5
v 0.4 0.2 -0.5
v 0.5 0.2 -0.5
v -0.4 0.4 0.2
v -0.3 0.4 0.2
v 0.3 0.4 0.2
v 0.4 0.4 0.2
v -0.4 0.4 0.1
v -0.3 0.4 0.1
v 0.3 0.4 0.1
v 0.4 0.4 0.1
v -0.4 0.4 -0.1
v -0.3 0.4 -0.1
v 0.3 0.4 -0.1
v 0.4 0.4 -0.1
v -0.4 0.4 -0.2
v -0.3 0.4 -0.2
v 0.3 0.4 -0.2
v 0.4 0.4 -0.2
v -0.4 0.5 0.1
v -0.3 0.5 0.1
v 0.3 0.5 0.1
v 0.4 0.5 0.1
v -0.4 0.5 -0.1
v -0.3 0.5 -0.1
v 0.3 0.5 -0.1
v 0.4 0.5 -0.1
v -0.3 0.8 0.5
v -0.2 0.8 0.5
v -0.1 0.8 0.5
v 0.1 0.8 0.5
v 0.2 0.8 0.5
v 0.3 0.8 0.5
v -0.3 0.8 0.4
v -0.2 0.8 0.4
v -0.1 0.8 0.4
v 0.1 0.8 0.4
v 0.2 0.8 0.4
v 0.3 0.8 0.4
v -0.3 0.8 -0.4
v -0.2 0.8 -0.4
v -0.1 0.8 -0.4
v 0.1 0.8 -0.4
v 0.2 0.8 -0.4
v 0.3 0.8 -0.4
v -0.3 0.8 -0.5
v -0.2 0.8 -0.5
v -0.1 0.8 -0.5
v 0.1 0.8 -0.5
v 0.2 0.8 -0.5
v 0.3 0.8 -0.5
v -0.4 1 0.5
v -0.3 1 0.5
v 0.3 1 0.5
v 0.4 1 0.5
v -0.4 1 0.4
v -0.3 1 0.4
v 0.3 1 0.4
v 0.4 1 0.4
v -0.4 1 -0.4
v -0.3 1 -0.4
v 0.3 1 -0.4
v 0.4 1 -0.4
v -0.4 1 -0.5
v -0.3 1 -0.5
v 0.3 1 -0.5
v 0.4 1 -0.5
v -0.3 1.1 0.5
v 0.3 1.1 0.5
v -0.4 1.1 0.4
v -0.3 1.1 0.4
v 0.3 1.1 0.4
v 0.4 1.1 0.4
v -0.4 1.1 -0.4
v -0.3 1.1 -0.4
v 0.3 1.1 -0.4
v 0.4 1.1 -0.4
v -0.3 1.1 -0.5
v 0.3 1.1 -0.5

# faces
f 3/4/1 2/4/1 1/4/1
f 4/4/1 2/4/1 3/4/1
f 5/3/1 4/3/1 3/3/1
f 6/3/1 4/3/1 5/3/1
f 15/5/1 10/5/1 9/5/1
f 16/5/1 10/5/1 15/5/1
f 17/5/1 12/5/1 11/5/1
f 18/5/1 12/5/1 17/5/1
f 19/5/1 8/5/1 7/5/1
f 21/5/1 17/5/1 16/5/1
f 22/5/1 17/5/1 21/5/1
f 24/5/1 14/5/1 13/5/1
f 27/5/1 20/5/1 19/5/1
f 27/5/1 19/5/1 7/5/1
f 28/5/1 20/5/1 27/5/1
f 29/5/1 20/5/1 28/5/1
f 30/5/1 26/5/1 25/5/1
f 31/5/1 26/5/1 30/5/1
f 32/5/1 24/5/1 23/5/1
f 33/5/1 14/5/1 24/5/1
f 33/5/1 24/5/1 32/5/1
f 34/5/1 14/5/1 33/5/1
f 35/5/1 31/5/1 30/5/1
f 35/5/1 29/5/1 28/5/1
f 35/5/1 33/5/1 32/5/1
f 35/5/1 32/5/1 31/5/1
f 35/5/1 30/5/1 29/5/1
f 36/5/1 33/5/1 35/5/1
f 43/3/1 38/3/1 37/3/1
f 44/1/1 40/1/1 39/1/1
f 45/1/1 40/1/1 44/1/1
f 46/3/1 42/3/1 41/3/1
f 47/3/1 43/3/1 37/3/1
f 47/3/1 44/3/1 43/3/1
f 48/3/1 44/3/1 47/3/1
f 49/3/1 44/3/1 48/3/1
f 50/3/1 46/3/1 45/3/1
f 51/3/1 42/3/1 46/3/1
f 51/3/1 46/3/1 50/3/1
f 52/3/1 42/3/1 51/3/1
f 53/3/1 49/3/1 48/3/1
f 53/3/1 50/3/1 49/3/1
f 53/3/1 51/3/1 50/3/1
f 54/3/1 51/3/1 53/3/1
f 57/3/1 53/3/1 48/3/1
f 58/3/1 53/3/1 57/3/1
f 59/3/1 51/3/1 54/3/1
f 60/3/1 51/3/1 59/3/1
f 63/5/1 56/5/1 55/5/1
f 64/5/1 56/5/1 63/5/1
f 65/5/1 62/5/1 61/5/1
f 66/5/1 62/5/1 65/5/1
f 71/5/1 68/5/1 67/5/1
f 72/5/1 68/5/1 71/5/1
f 73/5/1 70/5/1 69/5/1
f 74/5/1 70/5/1 73/5/1
f 79/5/1 76/5/1 75/5/1
f 80/5/1 76/5/1 79/5/1
f 81/5/1 78/5/1 77/5/1
f 82/5/1 78/5/1 81/5/1
f 87/5/1 84/5/1 83/5/1
f 88/5/1 86/5/1 85/5/1
f 89/5/1 87/5/1 83/5/1
f 90/5/1 87/5/1 89/5/1
f 91/5/1 86/5/1 88/5/1
f 92/5/1 86/5/1 91/5/1
f 97/5/1 94/5/1 93/5/1
f 98/5/1 94/5/1 97/5/1
f 99/5/1 96/5/1 95/5/1
f 100/5/1 96/5/1 99/5/1
f 105/5/1 102/5/1 101/5/1
f 106/5/1 102/5/1 105/5/1
f 107/5/1 104/5/1 103/5/1
f 108/5/1 104/5/1 107/5/1
f 113/5/1 110/5/1 109/5/1
f 114/5/1 110/5/1 113/5/1
f 115/5/1 112/5/1 111/5/1
f 116/5/1 112/5/1 115/5/1
f 117/5/2 118/5/2 121/5/2
f 121/5/2 118/5/2 122/5/2
f 119/5/2 120/5/2 123/5/2
f 123/5/2 120/5/2 124/5/2
f 125/5/2 126/5/2 129/5/2
f 129/5/2 126/5/2 130/5/2
f 127/5/2 128/5/2 131/5/2
f 131/5/2 128/5/2 132/5/2
f 133/5/2 134/5/2 137/5/2
f 135/5/2 136/5/2 138/5/2
f 133/5/2 137/5/2 139/5/2
f 139/5/2 137/5/2 140/5/2
f 138/5/2 136/5/2 141/5/2
f 141/5/2 136/5/2 142/5/2
f 143/5/2 144/5/2 147/5/2
f 147/5/2 144/5/2 148/5/2
f 145/5/2 146/5/2 149/5/2
f 149/5/2 146/5/2 150/5/2
f 151/5/2 152/5/2 155/5/2
f 155/5/2 152/5/2 156/5/2
f 153/5/2 154/5/2 157/5/2
f 157/5/2 154/5/2 158/5/2
f 159/5/2 160/5/2 163/5/2
f 163/5/2 160/5/2 164/5/2
f 161/5/2 162/5/2 165/5/2
f 165/5/2 162/5/2 166/5/2
f 167/3/2 168/3/2 173/3/2
f 169/1/2 170/1/2 174/1/2
f 174/1/2 170/1/2 175/1/2
f 171/3/2 172/3/2 176/3/2
f 167/3/2 173/3/2 177/3/2
f 173/3/2 174/3/2 177/3/2
f 177/3/2 174/3/2 178/3/2
f 178/3/2 174/3/2 179/3/2
f 175/3/2 176/3/2 180/3/2
f 176/3/2 172/3/2 181/3/2
f 180/3/2 176/3/2 181/3/2
f 181/3/2 172/3/2 182/3/2
f 178/3/2 179/3/2 183/3/2
f 179/3/2 180/3/2 183/3/2
f 180/3/2 181/3/2 183/3/2
f 183/3/2 181/3/2 184/3/2
f 178/3/2 183/3/2 187/3/2
f 187/3/2 183/3/2 188/3/2
f 184/3/2 181/3/2 189/3/2
f 189/3/2 181/3/2 190/3/2
f 185/5/2 186/5/2 193/5/2
f 193/5/2 186/5/2 194/5/2
f 191/5/2 192/5/2 195/5/2
f 195/5/2 192/5/2 196/5/2
f 199/5/2 200/5/2 205/5/2
f 205/5/2 200/5/2 206/5/2
f 201/5/2 202/5/2 207/5/2
f 207/5/2 202/5/2 208/5/2
f 197/5/2 198/5/2 209/5/2
f 206/5/2 207/5/2 211/5/2
f 211/5/2 207/5/2 212/5/2
f 203/5/2 204/5/2 214/5/2
f 209/5/2 210/5/2 217/5/2
f 197/5/2 209/5/2 217/5/2
f 217/5/2 210/5/2 218/5/2
f 218/5/2 210/5/2 219/5/2
f 215/5/2 216/5/2 220/5/2
f 220/5/2 216/5/2 221/5/2
f 213/5/2 214/5/2 222/5/2
f 214/5/2 204/5/2 223/5/2
f 222/5/2 214/5/2 223/5/2
f 223/5/2 204/5/2 224/5/2
f 220/5/2 221/5/2 225/5/2
f 218/5/2 219/5/2 225/5/2
f 222/5/2 223/5/2 225/5/2
f 221/5/2 222/5/2 225/5/2
f 219/5/2 220/5/2 225/5/2
f 225/5/2 223/5/2 226/5/2
f 227/4/2 228/4/2 229/4/2
f 229/4/2 228/4/2 230/4/2
f 229/3/2 230/3/2 231/3/2
f 231/3/2 230/3/2 232/3/2
f 236/3/3 235/3/3 234/3/3
f 238/3/3 236/3/3 234/3/3
f 238/5/3 237/5/3 236/5/3
f 239/5/3 237/5/3 238/5/3
f 240/5/3 237/5/3 239/5/3
f 241/5/3 237/5/3 240/5/3
f 243/3/3 238/3/3 234/3/3
f 244/5/3 240/5/3 239/5/3
f 245/5/3 240/5/3 244/5/3
f 246/5/3 242/5/3 241/5/3
f 247/5/3 245/5/3 244/5/3
f 247/5/3 246/5/3 245/5/3
f 247/3/3 243/3/3 234/3/3
f 247/5/3 244/5/3 243/5/3
f 248/5/3 246/5/3 247/5/3
f 249/5/3 246/5/3 248/5/3
f 250/5/3 242/5/3 246/5/3
f 250/5/3 246/5/3 249/5/3
f 251/3/3 247/3/3 234/3/3
f 252/5/3 249/5/3 248/5/3
f 253/5/3 249/5/3 252/5/3
f 254/5/3 242/5/3 250/5/3
f 255/3/3 251/3/3 234/3/3
f 255/5/3 254/5/3 253/5/3
f 255/5/3 253/5/3 252/5/3
f 255/5/3 252/5/3 251/5/3
f 256/5/3 254/5/3 255/5/3
f 257/5/3 254/5/3 256/5/3
f 258/5/3 242/5/3 254/5/3
f 258/5/3 254/5/3 257/5/3
f 259/3/3 255/3/3 234/3/3
f 260/5/3 257/5/3 256/5/3
f 261/5/3 257/5/3 260/5/3
f 262/5/3 242/5/3 258/5/3
f 263/5/3 242/5/3 262/5/3
f 264/3/3 259/3/3 234/3/3
f 264/5/3 261/5/3 260/5/3
f 264/5/3 262/5/3 261/5/3
f 264/5/3 260/5/3 259/5/3
f 265/5/3 262/5/3 264/5/3
f 266/4/3 234/4/3 233/4/3
f 267/3/3 264/3/3 234/3/3
f 267/4/3 234/4/3 266/4/3
f 268/3/3 264/3/3 267/3/3
f 274/5/3 270/5/3 269/5/3
f 275/5/3 270/5/3 274/5/3
f 276/2/3 272/2/3 271/2/3
f 277/2/3 272/2/3 276/2/3
f 278/2/3 274/2/3 273/2/3
f 279/2/3 274/2/3 278/2/3
f 282/2/3 281/2/3 280/2/3
f 283/2/3 281/2/3 282/2/3
f 288/2/3 285/2/3 284/2/3
f 289/2/3 285/2/3 288/2/3
f 290/2/3 287/2/3 286/2/3
f 291/2/3 287/2/3 290/2/3
f 293/5/3 292/5/3 291/5/3
f 294/5/3 292/5/3 293/5/3
f 298/4/3 296/4/3 295/4/3
f 299/5/3 297/5/3 296/5/3
f 299/4/3 296/4/3 298/4/3
f 300/5/3 297/5/3 299/5/3
f 303/5/3 302/5/3 301/5/3
f 304/5/3 302/5/3 303/5/3
f 307/5/3 306/5/3 305/5/3
f 308/5/3 306/5/3 307/5/3
f 313/5/3 310/5/3 309/5/3
f 314/5/3 310/5/3 313/5/3
f 315/5/3 312/5/3 311/5/3
f 316/5/3 312/5/3 315/5/3
f 321/5/3 318/5/3 317/5/3
f 322/5/3 318/5/3 321/5/3
f 323/5/3 320/5/3 319/5/3
f 324/5/3 320/5/3 323/5/3
f 327/5/3 326/5/3 325/5/3
f 328/5/3 326/5/3 327/5/3
f 331/5/3 330/5/3 329/5/3
f 332/5/3 330/5/3 331/5/3
f 335/5/3 334/5/3 333/5/3
f 336/5/3 334/5/3 335/5/3
f 339/5/3 338/5/3 337/5/3
f 340/5/3 338/5/3 339/5/3
f 343/5/3 342/5/3 341/5/3
f 344/5/3 342/5/3 343/5/3
f 347/5/3 346/5/3 345/5/3
f 348/5/3 346/5/3 347/5/3
f 349/5/4 350/5/4 351/5/4
f 351/5/4 350/5/4 352/5/4
f 353/5/4 354/5/4 355/5/4
f 355/5/4 354/5/4 356/5/4
f 357/5/4 358/5/4 359/5/4
f 359/5/4 358/5/4 360/5/4
f 361/5/4 362/5/4 363/5/4
f 363/5/4 362/5/4 364/5/4
f 365/5/4 366/5/4 367/5/4
f 367/5/4 366/5/4 368/5/4
f 369/5/4 370/5/4 371/5/4
f 371/5/4 370/5/4 372/5/4
f 373/5/4 374/5/4 377/5/4
f 377/5/4 374/5/4 378/5/4
f 375/5/4 376/5/4 379/5/4
f 379/5/4 376/5/4 380/5/4
f 381/5/4 382/5/4 385/5/4
f 385/5/4 382/5/4 386/5/4
f 383/5/4 384/5/4 387/5/4
f 387/5/4 384/5/4 388/5/4
f 389/5/4 390/5/4 391/5/4
f 391/5/4 390/5/4 392/5/4
f 393/5/4 394/5/4 395/5/4
f 395/5/4 394/5/4 396/5/4
f 397/4/4 398/4/4 400/4/4
f 398/5/4 399/5/4 401/5/4
f 400/4/4 398/4/4 401/4/4
f 401/5/4 399/5/4 402/5/4
f 403/5/4 404/5/4 408/5/4
f 408/5/4 404/5/4 409/5/4
f 405/2/4 406/2/4 410/2/4
f 410/2/4 406/2/4 411/2/4
f 407/2/4 408/2/4 412/2/4
f 412/2/4 408/2/4 413/2/4
f 414/2/4 415/2/4 416/2/4
f 416/2/4 415/2/4 417/2/4
f 418/2/4 419/2/4 422/2/4
f 422/2/4 419/2/4 423/2/4
f 420/2/4 421/2/4 424/2/4
f 424/2/4 421/2/4 425/2/4
f 425/5/4 426/5/4 427/5/4
f 427/5/4 426/5/4 428/5/4
f 430/3/4 431/3/4 432/3/4
f 430/3/4 432/3/4 434/3/4
f 432/5/4 433/5/4 434/5/4
f 434/5/4 433/5/4 435/5/4
f 435/5/4 433/5/4 436/5/4
f 436/5/4 433/5/4 437/5/4
f 430/3/4 434/3/4 439/3/4
f 435/5/4 436/5/4 440/5/4
f 440/5/4 436/5/4 441/5/4
f 437/5/4 438/5/4 442/5/4
f 440/5/4 441/5/4 443/5/4
f 441/5/4 442/5/4 443/5/4
f 430/3/4 439/3/4 443/3/4
f 439/5/4 440/5/4 443/5/4
f 443/5/4 442/5/4 444/5/4
f 444/5/4 442/5/4 445/5/4
f 442/5/4 438/5/4 446/5/4
f 445/5/4 442/5/4 446/5/4
f 430/3/4 443/3/4 447/3/4
f 444/5/4 445/5/4 448/5/4
f 448/5/4 445/5/4 449/5/4
f 446/5/4 438/5/4 450/5/4
f 430/3/4 447/3/4 451/3/4
f 449/5/4 450/5/4 451/5/4
f 448/5/4 449/5/4 451/5/4
f 447/5/4 448/5/4 451/5/4
f 451/5/4 450/5/4 452/5/4
f 452/5/4 450/5/4 453/5/4
f 450/5/4 438/5/4 454/5/4
f 453/5/4 450/5/4 454/5/4
f 430/3/4 451/3/4 455/3/4
f 452/5/4 453/5/4 456/5/4
f 456/5/4 453/5/4 457/5/4
f 454/5/4 438/5/4 458/5/4
f 458/5/4 438/5/4 459/5/4
f 430/3/4 455/3/4 460/3/4
f 456/5/4 457/5/4 460/5/4
f 457/5/4 458/5/4 460/5/4
f 455/5/4 456/5/4 460/5/4
f 460/5/4 458/5/4 461/5/4
f 429/4/4 430/4/4 462/4/4
f 430/3/4 460/3/4 463/3/4
f 462/4/4 430/4/4 463/4/4
f 463/3/4 460/3/4 464/3/4
f 467/4/5 466/4/5 465/4/5
f 468/4/5 466/4/5 467/4/5
f 473/5/5 470/5/5 469/5/5
f 474/5/5 470/5/5 473/5/5
f 475/5/5 472/5/5 471/5/5
f 476/5/5 472/5/5 475/5/5
f 481/5/5 478/5/5 477/5/5
f 482/5/5 478/5/5 481/5/5
f 483/5/5 480/5/5 479/5/5
f 484/5/5 480/5/5 483/5/5
f 489/5/5 486/5/5 485/5/5
f 490/5/5 486/5/5 489/5/5
f 491/5/5 488/5/5 487/5/5
f 492/5/5 488/5/5 491/5/5
f 499/5/5 494/5/5 493/5/5
f 500/5/5 494/5/5 499/5/5
f 501/5/5 498/5/5 497/5/5
f 502/5/5 498/5/5 501/5/5
f 503/5/5 496/5/5 495/5/5
f 504/5/5 496/5/5 503/5/5
f 509/5/5 506/5/5 505/5/5
f 510/5/5 506/5/5 509/5/5
f 511/5/5 508/5/5 507/5/5
f 512/5/5 508/5/5 511/5/5
f 519/5/5 516/5/5 515/5/5
f 520/5/5 516/5/5 519/5/5
f 521/5/5 514/5/5 513/5/5
f 522/5/5 514/5/5 521/5/5
f 523/5/5 518/5/5 517/5/5
f 524/5/5 518/5/5 523/5/5
f 531/5/5 526/5/5 525/5/5
f 532/5/5 526/5/5 531/5/5
f 533/5/5 528/5/5 527/5/5
f 534/5/5 528/5/5 533/5/5
f 535/5/5 530/5/5 529/5/5
f 536/5/5 530/5/5 535/5/5
f 541/5/5 538/5/5 537/5/5
f 542/5/5 538/5/5 541/5/5
f 543/5/5 540/5/5 539/5/5
f 544/5/5 540/5/5 543/5/5
f 549/5/5 546/5/5 545/5/5
f 550/5/5 546/5/5 549/5/5
f 551/5/5 548/5/5 547/5/5
f 552/5/5 548/5/5 551/5/5
f 559/5/5 554/5/5 553/5/5
f 560/5/5 554/5/5 559/5/5
f 561/5/5 556/5/5 555/5/5
f 562/5/5 556/5/5 561/5/5
f 563/5/5 558/5/5 557/5/5
f 564/5/5 558/5/5 563/5/5
f 567/3/6 568/3/6 575/3/6
f 575/3/6 568/3/6 576/3/6
f 571/3/6 572/3/6 577/3/6
f 577/3/6 572/3/6 578/3/6
f 565/3/6 566/3/6 579/3/6
f 569/3/6 570/3/6 581/3/6
f 581/3/6 570/3/6 582/3/6
f 573/3/6 574/3/6 584/3/6
f 579/3/6 580/3/6 585/3/6
f 565/3/6 579/3/6 585/3/6
f 585/3/6 580/3/6 586/3/6
f 583/3/6 584/3/6 587/3/6
f 584/3/6 574/3/6 588/3/6
f 587/3/6 584/3/6 588/3/6
f 565/3/6 585/3/6 589/3/6
f 588/3/6 574/3/6 592/3/6
f 589/3/6 590/3/6 593/3/6
f 565/3/6 589/3/6 593/3/6
f 593/3/6 590/3/6 594/3/6
f 591/3/6 592/3/6 595/3/6
f 592/3/6 574/3/6 596/3/6
f 595/3/6 592/3/6 596/3/6
f 565/3/6 593/3/6 597/3/6
f 596/3/6 574/3/6 600/3/6
f 597/3/6 598/3/6 601/3/6
f 565/3/6 597/3/6 601/3/6
f 601/3/6 598/3/6 602/3/6
f 599/3/6 600/3/6 605/3/6
f 600/3/6 574/3/6 606/3/6
f 605/3/6 600/3/6 606/3/6
f 565/3/6 601/3/6 611/3/6
f 611/3/6 601/3/6 612/3/6
f 607/3/6 608/3/6 613/3/6
f 613/3/6 608/3/6 614/3/6
f 603/3/6 604/3/6 615/3/6
f 615/3/6 604/3/6 616/3/6
f 609/3/6 610/3/6 617/3/6
f 617/3/6 610/3/6 618/3/6
f 606/3/6 574/3/6 619/3/6
f 619/3/6 574/3/6 620/3/6
f 621/5/6 622/5/6 625/5/6
f 625/5/6 622/5/6 626/5/6
f 623/5/6 624/5/6 627/5/6
f 627/5/6 624/5/6 628/5/6
f 629/5/6 630/5/6 633/5/6
f 633/5/6 630/5/6 634/5/6
f 631/5/6 632/5/6 635/5/6
f 635/5/6 632/5/6 636/5/6
f 637/5/6 638/5/6 641/5/6
f 641/5/6 638/5/6 642/5/6
f 639/5/6 640/5/6 643/5/6
f 643/5/6 640/5/6 644/5/6
f 645/5/6 646/5/6 651/5/6
f 651/5/6 646/5/6 652/5/6
f 647/5/6 648/5/6 653/5/6
f 653/5/6 648/5/6 654/5/6
f 649/5/6 650/5/6 655/5/6
f 655/5/6 650/5/6 656/5/6
f 657/5/6 658/5/6 663/5/6
f 663/5/6 658/5/6 664/5/6
f 659/5/6 660/5/6 665/5/6
f 665/5/6 660/5/6 666/5/6
f 661/5/6 662/5/6 667/5/6
f 667/5/6 662/5/6 668/5/6
f 669/5/6 670/5/6 673/5/6
f 673/5/6 670/5/6 674/5/6
f 671/5/6 672/5/6 675/5/6
f 675/5/6 672/5/6 676/5/6
f 677/5/6 678/5/6 681/5/6
f 681/5/6 678/5/6 682/5/6
f 679/5/6 680/5/6 683/5/6
f 683/5/6 680/5/6 684/5/6
f 685/5/6 686/5/6 688/5/6
f 688/5/6 686/5/6 689/5/6
f 687/5/6 688/5/6 691/5/6
f 689/5/6 690/5/6 691/5/6
f 688/5/6 689/5/6 691/5/6
f 691/5/6 690/5/6 692/5/6
f 692/5/6 690/5/6 693/5/6
f 693/5/6 690/5/6 694/5/6
f 692/5/6 693/5/6 695/5/6
f 695/5/6 693/5/6 696/5/6
