# MagicaVoxel @ Ephtracy

# group
o 

# material
mtllib park.mtl
usemtl palette

# normals
vn -1 0 0
vn 1 0 0
vn 0 0 1
vn 0 0 -1
vn 0 -1 0
vn 0 1 0

# texcoords
vt 0.908203 0.5
vt 0.912109 0.5
vt 0.919922 0.5
vt 0.923828 0.5
vt 0.955078 0.5

# verts
v -0.5 0 0.5
v -0.5 0 -0.5
v -0.5 0.1 0.5
v -0.5 0.1 -0.5
v -0.5 0.2 0.5
v -0.5 0.2 -0.5
v -0.5 0.5 -0.2
v -0.5 0.5 -0.3
v -0.5 0.6 -0.1
v -0.5 0.6 -0.2
v -0.5 0.6 -0.3
v -0.5 0.6 -0.4
v -0.5 0.7 -0.1
v -0.5 0.7 -0.3
v -0.5 0.8 -0.3
v -0.5 0.8 -0.4
v -0.4 0.2 0.4
v -0.4 0.2 0.3
v -0.4 0.2 0.1
v -0.4 0.2 0
v -0.4 0.2 -0.2
v -0.4 0.2 -0.3
v -0.4 0.3 0.4
v -0.4 0.3 0.3
v -0.4 0.3 0.1
v -0.4 0.3 0
v -0.4 0.5 -0.1
v -0.4 0.5 -0.2
v -0.4 0.5 -0.3
v -0.4 0.5 -0.4
v -0.4 0.6 -0.1
v -0.4 0.6 -0.2
v -0.4 0.6 -0.3
v -0.4 0.6 -0.4
v -0.4 0.7 -0.2
v -0.4 0.7 -0.3
v -0.4 0.8 -0.2
v -0.4 0.8 -0.3
v -0.3 0.7 -0.1
v -0.3 0.7 -0.2
v -0.3 0.7 -0.4
v -0.3 0.7 -0.5
v -0.3 0.8 -0.1
v -0.3 0.8 -0.2
v -0.3 0.8 -0.3
v -0.3 0.8 -0.4
v -0.3 0.8 -0.5
v -0.3 0.9 -0.3
v -0.3 0.9 -0.4
v 0 0.2 -0.3
v 0 0.2 -0.4
v 0 0.3 -0.3
v 0 0.3 -0.4
v 0.1 0.3 -0.3
v 0.1 0.3 -0.4
v 0.1 0.4 -0.3
v 0.1 0.4 -0.4
v 0.1 0.5 0.4
v 0.1 0.5 0.3
v 0.1 0.9 0.4
v 0.1 0.9 0.3
v 0.2 0.2 0.4
v 0.2 0.2 0.3
v 0.2 0.5 0.5
v 0.2 0.5 0.4
v 0.2 0.5 0.3
v 0.2 0.5 0.2
v 0.2 0.8 0.5
v 0.2 0.8 0.4
v 0.2 0.8 0.3
v 0.2 0.8 0.2
v 0.3 0.2 0.3
v 0.3 0.2 -0.3
v 0.3 0.3 0.3
v 0.3 0.3 -0.3
v -0.3 0.2 -0.2
v -0.3 0.2 -0.3
v -0.3 0.5 -0.1
v -0.3 0.5 -0.2
v -0.3 0.5 -0.3
v -0.3 0.5 -0.4
v -0.3 0.6 -0.1
v -0.3 0.6 -0.2
v -0.3 0.6 -0.3
v -0.3 0.6 -0.4
v -0.2 0.5 -0.2
v -0.2 0.5 -0.3
v -0.2 0.6 -0.1
v -0.2 0.6 -0.2
v -0.2 0.6 -0.3
v -0.2 0.6 -0.4
v -0.2 0.7 -0.3
v -0.2 0.7 -0.4
v -0.2 0.7 -0.5
v -0.2 0.8 -0.1
v -0.2 0.8 -0.2
v -0.2 0.8 -0.3
v -0.2 0.8 -0.4
v -0.2 0.8 -0.5
v -0.2 0.9 -0.3
v -0.2 0.9 -0.4
v -0.1 0.6 -0.2
v -0.1 0.6 -0.3
v -0.1 0.7 -0.3
v -0.1 0.7 -0.4
v -0.1 0.8 -0.2
v -0.1 0.8 -0.4
v 0 0.2 0.4
v 0 0.2 0.3
v 0 0.2 0.1
v 0 0.2 0
v 0 0.3 0.4
v 0 0.3 0.3
v 0 0.3 0.1
v 0 0.3 0
v 0.2 0.2 -0.3
v 0.2 0.2 -0.4
v 0.2 0.4 -0.3
v 0.2 0.4 -0.4
v 0.3 0.3 0.4
v 0.3 0.3 0.3
v 0.3 0.5 0.5
v 0.3 0.5 0.4
v 0.3 0.5 0.3
v 0.3 0.5 0.2
v 0.3 0.8 0.5
v 0.3 0.8 0.4
v 0.3 0.8 0.3
v 0.3 0.8 0.2
v 0.4 0.2 0.4
v 0.4 0.2 -0.3
v 0.4 0.3 0.4
v 0.4 0.3 -0.3
v 0.4 0.5 0.4
v 0.4 0.5 0.3
v 0.4 0.9 0.4
v 0.4 0.9 0.3
v 0.5 0 0.5
v 0.5 0 -0.5
v 0.5 0.1 0.5
v 0.5 0.1 -0.5
v 0.5 0.2 0.5
v 0.5 0.2 -0.5
v -0.5 0 0.5
v -0.5 0.1 0.5
v -0.5 0.2 0.5
v 0.2 0.5 0.5
v 0.2 0.8 0.5
v 0.3 0.5 0.5
v 0.3 0.8 0.5
v 0.5 0 0.5
v 0.5 0.1 0.5
v 0.5 0.2 0.5
v -0.4 0.2 0.4
v -0.4 0.3 0.4
v 0 0.2 0.4
v 0 0.3 0.4
v 0.1 0.5 0.4
v 0.1 0.9 0.4
v 0.2 0.2 0.4
v 0.2 0.5 0.4
v 0.2 0.8 0.4
v 0.3 0.2 0.4
v 0.3 0.3 0.4
v 0.3 0.5 0.4
v 0.3 0.8 0.4
v 0.4 0.2 0.4
v 0.4 0.3 0.4
v 0.4 0.5 0.4
v 0.4 0.9 0.4
v -0.4 0.2 0.1
v -0.4 0.3 0.1
v 0 0.2 0.1
v 0 0.3 0.1
v -0.5 0.6 -0.1
v -0.5 0.7 -0.1
v -0.4 0.5 -0.1
v -0.4 0.6 -0.1
v -0.3 0.5 -0.1
v -0.3 0.6 -0.1
v -0.3 0.7 -0.1
v -0.3 0.8 -0.1
v -0.2 0.6 -0.1
v -0.2 0.8 -0.1
v -0.5 0.5 -0.2
v -0.5 0.6 -0.2
v -0.4 0.2 -0.2
v -0.4 0.5 -0.2
v -0.4 0.6 -0.2
v -0.4 0.7 -0.2
v -0.4 0.8 -0.2
v -0.3 0.2 -0.2
v -0.3 0.5 -0.2
v -0.3 0.6 -0.2
v -0.3 0.7 -0.2
v -0.3 0.8 -0.2
v -0.2 0.5 -0.2
v -0.2 0.6 -0.2
v -0.2 0.8 -0.2
v -0.1 0.6 -0.2
v -0.1 0.8 -0.2
v -0.5 0.7 -0.3
v -0.5 0.8 -0.3
v -0.4 0.7 -0.3
v -0.4 0.8 -0.3
v -0.3 0.8 -0.3
v -0.3 0.9 -0.3
v -0.2 0.8 -0.3
v -0.2 0.9 -0.3
v 0 0.2 -0.3
v 0 0.3 -0.3
v 0.1 0.3 -0.3
v 0.1 0.4 -0.3
v 0.2 0.2 -0.3
v 0.2 0.4 -0.3
v -0.4 0.2 0.3
v -0.4 0.3 0.3
v 0 0.2 0.3
v 0 0.3 0.3
v 0.1 0.5 0.3
v 0.1 0.9 0.3
v 0.2 0.2 0.3
v 0.2 0.5 0.3
v 0.2 0.8 0.3
v 0.3 0.2 0.3
v 0.3 0.3 0.3
v 0.3 0.5 0.3
v 0.3 0.8 0.3
v 0.4 0.5 0.3
v 0.4 0.9 0.3
v 0.2 0.5 0.2
v 0.2 0.8 0.2
v 0.3 0.5 0.2
v 0.3 0.8 0.2
v -0.4 0.2 0
v -0.4 0.3 0
v 0 0.2 0
v 0 0.3 0
v -0.5 0.5 -0.3
v -0.5 0.6 -0.3
v -0.4 0.2 -0.3
v -0.4 0.5 -0.3
v -0.4 0.6 -0.3
v -0.3 0.2 -0.3
v -0.3 0.5 -0.3
v -0.3 0.6 -0.3
v -0.2 0.5 -0.3
v -0.2 0.6 -0.3
v -0.2 0.7 -0.3
v -0.1 0.6 -0.3
v -0.1 0.7 -0.3
v 0.3 0.2 -0.3
v 0.3 0.3 -0.3
v 0.4 0.2 -0.3
v 0.4 0.3 -0.3
v -0.5 0.6 -0.4
v -0.5 0.8 -0.4
v -0.4 0.5 -0.4
v -0.4 0.6 -0.4
v -0.3 0.5 -0.4
v -0.3 0.6 -0.4
v -0.3 0.7 -0.4
v -0.3 0.8 -0.4
v -0.3 0.9 -0.4
v -0.2 0.6 -0.4
v -0.2 0.7 -0.4
v -0.2 0.8 -0.4
v -0.2 0.9 -0.4
v -0.1 0.7 -0.4
v -0.1 0.8 -0.4
v 0 0.2 -0.4
v 0 0.3 -0.4
v 0.1 0.3 -0.4
v 0.1 0.4 -0.4
v 0.2 0.2 -0.4
v 0.2 0.4 -0.4
v -0.5 0 -0.5
v -0.5 0.1 -0.5
v -0.5 0.2 -0.5
v -0.3 0.7 -0.5
v -0.3 0.8 -0.5
v -0.2 0.7 -0.5
v -0.2 0.8 -0.5
v 0.5 0 -0.5
v 0.5 0.1 -0.5
v 0.5 0.2 -0.5
v -0.5 0 0.5
v 0.5 0 0.5
v -0.5 0 -0.5
v 0.5 0 -0.5
v 0.2 0.5 0.5
v 0.3 0.5 0.5
v 0.1 0.5 0.4
v 0.2 0.5 0.4
v 0.3 0.5 0.4
v 0.4 0.5 0.4
v 0.1 0.5 0.3
v 0.2 0.5 0.3
v 0.3 0.5 0.3
v 0.4 0.5 0.3
v 0.2 0.5 0.2
v 0.3 0.5 0.2
v -0.4 0.5 -0.1
v -0.3 0.5 -0.1
v -0.5 0.5 -0.2
v -0.4 0.5 -0.2
v -0.3 0.5 -0.2
v -0.2 0.5 -0.2
v -0.5 0.5 -0.3
v -0.4 0.5 -0.3
v -0.3 0.5 -0.3
v -0.2 0.5 -0.3
v -0.4 0.5 -0.4
v -0.3 0.5 -0.4
v -0.5 0.6 -0.1
v -0.4 0.6 -0.1
v -0.3 0.6 -0.1
v -0.2 0.6 -0.1
v -0.5 0.6 -0.2
v -0.4 0.6 -0.2
v -0.3 0.6 -0.2
v -0.2 0.6 -0.2
v -0.1 0.6 -0.2
v -0.5 0.6 -0.3
v -0.4 0.6 -0.3
v -0.3 0.6 -0.3
v -0.2 0.6 -0.3
v -0.1 0.6 -0.3
v -0.5 0.6 -0.4
v -0.4 0.6 -0.4
v -0.3 0.6 -0.4
v -0.2 0.6 -0.4
v -0.2 0.7 -0.3
v -0.1 0.7 -0.3
v -0.3 0.7 -0.4
v -0.2 0.7 -0.4
v -0.1 0.7 -0.4
v -0.3 0.7 -0.5
v -0.2 0.7 -0.5
v -0.5 0.2 0.5
v 0.5 0.2 0.5
v -0.4 0.2 0.4
v 0 0.2 0.4
v 0.2 0.2 0.4
v 0.3 0.2 0.4
v 0.4 0.2 0.4
v -0.4 0.2 0.3
v 0 0.2 0.3
v 0.2 0.2 0.3
v 0.3 0.2 0.3
v -0.4 0.2 0.1
v 0 0.2 0.1
v -0.4 0.2 0
v 0 0.2 0
v -0.4 0.2 -0.2
v -0.3 0.2 -0.2
v -0.4 0.2 -0.3
v -0.3 0.2 -0.3
v 0 0.2 -0.3
v 0.2 0.2 -0.3
v 0.3 0.2 -0.3
v 0.4 0.2 -0.3
v 0 0.2 -0.4
v 0.2 0.2 -0.4
v -0.5 0.2 -0.5
v 0.5 0.2 -0.5
v -0.4 0.3 0.4
v 0 0.3 0.4
v 0.3 0.3 0.4
v 0.4 0.3 0.4
v -0.4 0.3 0.3
v 0 0.3 0.3
v 0.3 0.3 0.3
v -0.4 0.3 0.1
v 0 0.3 0.1
v -0.4 0.3 0
v 0 0.3 0
v 0 0.3 -0.3
v 0.1 0.3 -0.3
v 0.3 0.3 -0.3
v 0.4 0.3 -0.3
v 0 0.3 -0.4
v 0.1 0.3 -0.4
v 0.1 0.4 -0.3
v 0.2 0.4 -0.3
v 0.1 0.4 -0.4
v 0.2 0.4 -0.4
v -0.5 0.7 -0.1
v -0.3 0.7 -0.1
v -0.4 0.7 -0.2
v -0.3 0.7 -0.2
v -0.5 0.7 -0.3
v -0.4 0.7 -0.3
v 0.2 0.8 0.5
v 0.3 0.8 0.5
v 0.2 0.8 0.4
v 0.3 0.8 0.4
v 0.2 0.8 0.3
v 0.3 0.8 0.3
v 0.2 0.8 0.2
v 0.3 0.8 0.2
v -0.3 0.8 -0.1
v -0.2 0.8 -0.1
v -0.4 0.8 -0.2
v -0.3 0.8 -0.2
v -0.2 0.8 -0.2
v -0.1 0.8 -0.2
v -0.5 0.8 -0.3
v -0.4 0.8 -0.3
v -0.3 0.8 -0.3
v -0.2 0.8 -0.3
v -0.5 0.8 -0.4
v -0.3 0.8 -0.4
v -0.2 0.8 -0.4
v -0.1 0.8 -0.4
v -0.3 0.8 -0.5
v -0.2 0.8 -0.5
v 0.1 0.9 0.4
v 0.4 0.9 0.4
v 0.1 0.9 0.3
v 0.4 0.9 0.3
v -0.3 0.9 -0.3
v -0.2 0.9 -0.3
v -0.3 0.9 -0.4
v -0.2 0.9 -0.4

# faces
f 3/3/1 2/3/1 1/3/1
f 4/3/1 2/3/1 3/3/1
f 5/1/1 4/1/1 3/1/1
f 6/1/1 4/1/1 5/1/1
f 10/1/1 8/1/1 7/1/1
f 11/1/1 8/1/1 10/1/1
f 13/1/1 10/1/1 9/1/1
f 13/1/1 12/1/1 11/1/1
f 13/1/1 11/1/1 10/1/1
f 14/1/1 12/1/1 13/1/1
f 15/1/1 12/1/1 14/1/1
f 16/1/1 12/1/1 15/1/1
f 23/2/1 18/2/1 17/2/1
f 24/2/1 18/2/1 23/2/1
f 25/2/1 20/2/1 19/2/1
f 26/2/1 20/2/1 25/2/1
f 28/3/1 22/3/1 21/3/1
f 29/3/1 22/3/1 28/3/1
f 31/1/1 28/1/1 27/1/1
f 32/1/1 28/1/1 31/1/1
f 33/1/1 30/1/1 29/1/1
f 34/1/1 30/1/1 33/1/1
f 37/1/1 36/1/1 35/1/1
f 38/1/1 36/1/1 37/1/1
f 43/1/1 40/1/1 39/1/1
f 44/1/1 40/1/1 43/1/1
f 46/1/1 42/1/1 41/1/1
f 47/1/1 42/1/1 46/1/1
f 48/1/1 46/1/1 45/1/1
f 49/1/1 46/1/1 48/1/1
f 52/5/1 51/5/1 50/5/1
f 53/5/1 51/5/1 52/5/1
f 56/5/1 55/5/1 54/5/1
f 57/5/1 55/5/1 56/5/1
f 60/1/1 59/1/1 58/1/1
f 61/1/1 59/1/1 60/1/1
f 65/4/1 63/4/1 62/4/1
f 66/4/1 63/4/1 65/4/1
f 68/1/1 65/1/1 64/1/1
f 69/1/1 65/1/1 68/1/1
f 70/1/1 67/1/1 66/1/1
f 71/1/1 67/1/1 70/1/1
f 74/2/1 73/2/1 72/2/1
f 75/2/1 73/2/1 74/2/1
f 76/3/2 77/3/2 79/3/2
f 79/3/2 77/3/2 80/3/2
f 78/1/2 79/1/2 82/1/2
f 82/1/2 79/1/2 83/1/2
f 80/1/2 81/1/2 84/1/2
f 84/1/2 81/1/2 85/1/2
f 86/1/2 87/1/2 89/1/2
f 89/1/2 87/1/2 90/1/2
f 90/1/2 91/1/2 92/1/2
f 92/1/2 91/1/2 93/1/2
f 88/1/2 89/1/2 95/1/2
f 95/1/2 89/1/2 96/1/2
f 93/1/2 94/1/2 98/1/2
f 98/1/2 94/1/2 99/1/2
f 97/1/2 98/1/2 100/1/2
f 100/1/2 98/1/2 101/1/2
f 102/1/2 103/1/2 104/1/2
f 102/1/2 104/1/2 106/1/2
f 104/1/2 105/1/2 106/1/2
f 106/1/2 105/1/2 107/1/2
f 108/2/2 109/2/2 112/2/2
f 112/2/2 109/2/2 113/2/2
f 110/2/2 111/2/2 114/2/2
f 114/2/2 111/2/2 115/2/2
f 116/5/2 117/5/2 118/5/2
f 118/5/2 117/5/2 119/5/2
f 120/4/2 121/4/2 123/4/2
f 123/4/2 121/4/2 124/4/2
f 122/1/2 123/1/2 126/1/2
f 126/1/2 123/1/2 127/1/2
f 124/1/2 125/1/2 128/1/2
f 128/1/2 125/1/2 129/1/2
f 130/2/2 131/2/2 132/2/2
f 132/2/2 131/2/2 133/2/2
f 134/1/2 135/1/2 136/1/2
f 136/1/2 135/1/2 137/1/2
f 138/3/2 139/3/2 140/3/2
f 140/3/2 139/3/2 141/3/2
f 140/1/2 141/1/2 142/1/2
f 142/1/2 141/1/2 143/1/2
f 149/1/3 148/1/3 147/1/3
f 150/1/3 148/1/3 149/1/3
f 151/3/3 145/3/3 144/3/3
f 152/1/3 146/1/3 145/1/3
f 152/3/3 145/3/3 151/3/3
f 153/1/3 146/1/3 152/1/3
f 156/2/3 155/2/3 154/2/3
f 157/2/3 155/2/3 156/2/3
f 161/1/3 159/1/3 158/1/3
f 162/1/3 159/1/3 161/1/3
f 163/4/3 161/4/3 160/4/3
f 164/4/3 161/4/3 163/4/3
f 165/4/3 161/4/3 164/4/3
f 166/1/3 159/1/3 162/1/3
f 167/2/3 164/2/3 163/2/3
f 168/2/3 164/2/3 167/2/3
f 169/1/3 166/1/3 165/1/3
f 170/1/3 159/1/3 166/1/3
f 170/1/3 166/1/3 169/1/3
f 173/2/3 172/2/3 171/2/3
f 174/2/3 172/2/3 173/2/3
f 178/1/3 176/1/3 175/1/3
f 179/1/3 178/1/3 177/1/3
f 180/1/3 176/1/3 178/1/3
f 180/1/3 178/1/3 179/1/3
f 181/1/3 176/1/3 180/1/3
f 183/1/3 182/1/3 181/1/3
f 183/1/3 181/1/3 180/1/3
f 184/1/3 182/1/3 183/1/3
f 188/1/3 186/1/3 185/1/3
f 189/1/3 186/1/3 188/1/3
f 192/3/3 188/3/3 187/3/3
f 193/3/3 188/3/3 192/3/3
f 195/1/3 191/1/3 190/1/3
f 196/1/3 191/1/3 195/1/3
f 197/1/3 194/1/3 193/1/3
f 198/1/3 194/1/3 197/1/3
f 200/1/3 199/1/3 198/1/3
f 201/1/3 199/1/3 200/1/3
f 204/1/3 203/1/3 202/1/3
f 205/1/3 203/1/3 204/1/3
f 208/1/3 207/1/3 206/1/3
f 209/1/3 207/1/3 208/1/3
f 212/5/3 211/5/3 210/5/3
f 214/5/3 212/5/3 210/5/3
f 214/5/3 213/5/3 212/5/3
f 215/5/3 213/5/3 214/5/3
f 216/2/4 217/2/4 218/2/4
f 218/2/4 217/2/4 219/2/4
f 220/1/4 221/1/4 223/1/4
f 223/1/4 221/1/4 224/1/4
f 222/4/4 223/4/4 225/4/4
f 225/4/4 223/4/4 226/4/4
f 226/4/4 223/4/4 227/4/4
f 224/1/4 221/1/4 228/1/4
f 227/1/4 228/1/4 229/1/4
f 228/1/4 221/1/4 230/1/4
f 229/1/4 228/1/4 230/1/4
f 231/1/4 232/1/4 233/1/4
f 233/1/4 232/1/4 234/1/4
f 235/2/4 236/2/4 237/2/4
f 237/2/4 236/2/4 238/2/4
f 239/1/4 240/1/4 242/1/4
f 242/1/4 240/1/4 243/1/4
f 241/3/4 242/3/4 244/3/4
f 244/3/4 242/3/4 245/3/4
f 245/1/4 246/1/4 247/1/4
f 247/1/4 246/1/4 248/1/4
f 248/1/4 249/1/4 250/1/4
f 250/1/4 249/1/4 251/1/4
f 252/2/4 253/2/4 254/2/4
f 254/2/4 253/2/4 255/2/4
f 256/1/4 257/1/4 259/1/4
f 258/1/4 259/1/4 260/1/4
f 259/1/4 257/1/4 261/1/4
f 260/1/4 259/1/4 261/1/4
f 261/1/4 257/1/4 262/1/4
f 262/1/4 257/1/4 263/1/4
f 261/1/4 262/1/4 265/1/4
f 265/1/4 262/1/4 266/1/4
f 263/1/4 264/1/4 267/1/4
f 267/1/4 264/1/4 268/1/4
f 266/1/4 267/1/4 269/1/4
f 269/1/4 267/1/4 270/1/4
f 271/5/4 272/5/4 273/5/4
f 271/5/4 273/5/4 275/5/4
f 273/5/4 274/5/4 275/5/4
f 275/5/4 274/5/4 276/5/4
f 280/1/4 281/1/4 282/1/4
f 282/1/4 281/1/4 283/1/4
f 277/3/4 278/3/4 284/3/4
f 278/1/4 279/1/4 285/1/4
f 284/3/4 278/3/4 285/3/4
f 285/1/4 279/1/4 286/1/4
f 289/3/5 288/3/5 287/3/5
f 290/3/5 288/3/5 289/3/5
f 294/1/5 292/1/5 291/1/5
f 295/1/5 292/1/5 294/1/5
f 297/1/5 294/1/5 293/1/5
f 298/1/5 294/1/5 297/1/5
f 299/1/5 296/1/5 295/1/5
f 300/1/5 296/1/5 299/1/5
f 301/1/5 299/1/5 298/1/5
f 302/1/5 299/1/5 301/1/5
f 306/1/5 304/1/5 303/1/5
f 307/1/5 304/1/5 306/1/5
f 309/1/5 306/1/5 305/1/5
f 310/1/5 306/1/5 309/1/5
f 311/1/5 308/1/5 307/1/5
f 312/1/5 308/1/5 311/1/5
f 313/1/5 311/1/5 310/1/5
f 314/1/5 311/1/5 313/1/5
f 319/1/5 316/1/5 315/1/5
f 320/1/5 316/1/5 319/1/5
f 321/1/5 318/1/5 317/1/5
f 322/1/5 318/1/5 321/1/5
f 327/1/5 323/1/5 322/1/5
f 328/1/5 323/1/5 327/1/5
f 329/1/5 325/1/5 324/1/5
f 330/1/5 325/1/5 329/1/5
f 331/1/5 327/1/5 326/1/5
f 332/1/5 327/1/5 331/1/5
f 336/1/5 334/1/5 333/1/5
f 337/1/5 334/1/5 336/1/5
f 338/1/5 336/1/5 335/1/5
f 339/1/5 336/1/5 338/1/5
f 340/1/6 341/1/6 342/1/6
f 342/1/6 341/1/6 343/1/6
f 343/1/6 341/1/6 344/1/6
f 344/1/6 341/1/6 345/1/6
f 345/1/6 341/1/6 346/1/6
f 340/1/6 342/1/6 347/1/6
f 343/1/6 344/1/6 348/1/6
f 348/1/6 344/1/6 349/1/6
f 340/1/6 347/1/6 351/1/6
f 349/1/6 350/1/6 351/1/6
f 348/1/6 349/1/6 351/1/6
f 347/1/6 348/1/6 351/1/6
f 351/1/6 350/1/6 352/1/6
f 340/1/6 351/1/6 353/1/6
f 352/1/6 350/1/6 354/1/6
f 340/1/6 353/1/6 355/1/6
f 353/1/6 354/1/6 355/1/6
f 355/1/6 354/1/6 356/1/6
f 340/1/6 355/1/6 357/1/6
f 356/1/6 354/1/6 358/1/6
f 354/1/6 350/1/6 359/1/6
f 358/1/6 354/1/6 359/1/6
f 359/1/6 350/1/6 360/1/6
f 360/1/6 350/1/6 361/1/6
f 346/1/6 341/1/6 362/1/6
f 357/1/6 358/1/6 363/1/6
f 358/1/6 359/1/6 363/1/6
f 360/1/6 361/1/6 364/1/6
f 361/1/6 362/1/6 364/1/6
f 357/1/6 363/1/6 365/1/6
f 363/1/6 364/1/6 365/1/6
f 340/1/6 357/1/6 365/1/6
f 364/1/6 362/1/6 366/1/6
f 365/1/6 364/1/6 366/1/6
f 362/1/6 341/1/6 366/1/6
f 367/2/6 368/2/6 371/2/6
f 371/2/6 368/2/6 372/2/6
f 369/2/6 370/2/6 373/2/6
f 374/2/6 375/2/6 376/2/6
f 376/2/6 375/2/6 377/2/6
f 373/2/6 370/2/6 380/2/6
f 380/2/6 370/2/6 381/2/6
f 378/5/6 379/5/6 382/5/6
f 382/5/6 379/5/6 383/5/6
f 384/5/6 385/5/6 386/5/6
f 386/5/6 385/5/6 387/5/6
f 388/1/6 389/1/6 390/1/6
f 390/1/6 389/1/6 391/1/6
f 388/1/6 390/1/6 392/1/6
f 392/1/6 390/1/6 393/1/6
f 394/1/6 395/1/6 396/1/6
f 396/1/6 395/1/6 397/1/6
f 398/1/6 399/1/6 400/1/6
f 400/1/6 399/1/6 401/1/6
f 402/1/6 403/1/6 405/1/6
f 405/1/6 403/1/6 406/1/6
f 404/1/6 405/1/6 409/1/6
f 406/1/6 407/1/6 409/1/6
f 405/1/6 406/1/6 409/1/6
f 409/1/6 407/1/6 410/1/6
f 410/1/6 407/1/6 411/1/6
f 408/1/6 409/1/6 412/1/6
f 409/1/6 410/1/6 412/1/6
f 412/1/6 410/1/6 413/1/6
f 411/1/6 407/1/6 414/1/6
f 414/1/6 407/1/6 415/1/6
f 413/1/6 414/1/6 416/1/6
f 416/1/6 414/1/6 417/1/6
f 418/1/6 419/1/6 420/1/6
f 420/1/6 419/1/6 421/1/6
f 422/1/6 423/1/6 424/1/6
f 424/1/6 423/1/6 425/1/6
