# MagicaVoxel @ Ephtracy

# group
o 

# material
mtllib park.mtl
usemtl palette

# normals
vn -1 0 0
vn 1 0 0
vn 0 0 1
vn 0 0 -1
vn 0 -1 0
vn 0 1 0

# texcoords
vt 0.537109 0.5
vt 0.603516 0.5
vt 0.744141 0.5
vt 0.884766 0.5

# verts
v -0.3 0 0.4
v -0.3 0 0.3
v -0.3 0 0.2
v -0.3 0 -0.6
v -0.3 0.1 0.4
v -0.3 0.1 0.3
v -0.3 0.1 0.2
v -0.3 0.1 -0.6
v -0.1 0.1 0.3
v -0.1 0.1 -0.1
v -0.1 0.1 -0.2
v -0.1 0.1 -0.4
v -0.1 0.1 -0.5
v -0.1 0.2 0.3
v -0.1 0.2 -0.1
v -0.1 0.2 -0.2
v -0.1 0.2 -0.5
v 0.3 0.3 -0.3
v 0.3 0.3 -0.4
v 0.3 0.4 -0.3
v 0.3 0.4 -0.4
v 0.4 0.1 -0.3
v 0.4 0.1 -0.4
v 0.4 0.3 -0.2
v 0.4 0.3 -0.3
v 0.4 0.3 -0.4
v 0.4 0.3 -0.5
v 0.4 0.4 -0.2
v 0.4 0.4 -0.3
v 0.4 0.4 -0.4
v 0.4 0.4 -0.5
v 0.4 0.5 -0.3
v 0.4 0.5 -0.4
v 2.98023e-08 0.1 0.3
v 2.98023e-08 0.1 -0.1
v 2.98023e-08 0.1 -0.2
v 2.98023e-08 0.1 -0.5
v 2.98023e-08 0.2 0.3
v 2.98023e-08 0.2 -0.1
v 2.98023e-08 0.2 -0.2
v 2.98023e-08 0.2 -0.5
v 0.5 0.1 -0.3
v 0.5 0.1 -0.4
v 0.5 0.3 -0.2
v 0.5 0.3 -0.3
v 0.5 0.3 -0.4
v 0.5 0.3 -0.5
v 0.5 0.4 -0.2
v 0.5 0.4 -0.3
v 0.5 0.4 -0.4
v 0.5 0.4 -0.5
v 0.5 0.5 -0.3
v 0.5 0.5 -0.4
v 0.6 0.3 -0.3
v 0.6 0.3 -0.4
v 0.6 0.4 -0.3
v 0.6 0.4 -0.4
v 0.7 0 0.4
v 0.7 0 0.1
v 0.7 0 0
v 0.7 0 -0.6
v 0.7 0.1 0.4
v 0.7 0.1 0.1
v 0.7 0.1 0
v 0.7 0.1 -0.6
v -0.3 0 0.4
v -0.3 0.1 0.4
v 0.1 0 0.4
v 0.1 0.1 0.4
v 0.2 0 0.4
v 0.2 0.1 0.4
v 0.7 0 0.4
v 0.7 0.1 0.4
v -0.1 0.1 0.3
v -0.1 0.2 0.3
v 2.98023e-08 0.1 0.3
v 2.98023e-08 0.2 0.3
v -0.1 0.1 -0.2
v -0.1 0.2 -0.2
v 2.98023e-08 0.1 -0.2
v 2.98023e-08 0.2 -0.2
v 0.4 0.3 -0.2
v 0.4 0.4 -0.2
v 0.5 0.3 -0.2
v 0.5 0.4 -0.2
v 0.3 0.3 -0.3
v 0.3 0.4 -0.3
v 0.4 0.1 -0.3
v 0.4 0.3 -0.3
v 0.4 0.4 -0.3
v 0.4 0.5 -0.3
v 0.5 0.1 -0.3
v 0.5 0.3 -0.3
v 0.5 0.4 -0.3
v 0.5 0.5 -0.3
v 0.6 0.3 -0.3
v 0.6 0.4 -0.3
v -0.1 0.1 -0.1
v -0.1 0.2 -0.1
v 2.98023e-08 0.1 -0.1
v 2.98023e-08 0.2 -0.1
v 0.3 0.3 -0.4
v 0.3 0.4 -0.4
v 0.4 0.1 -0.4
v 0.4 0.3 -0.4
v 0.4 0.4 -0.4
v 0.4 0.5 -0.4
v 0.5 0.1 -0.4
v 0.5 0.3 -0.4
v 0.5 0.4 -0.4
v 0.5 0.5 -0.4
v 0.6 0.3 -0.4
v 0.6 0.4 -0.4
v -0.1 0.1 -0.5
v -0.1 0.2 -0.5
v 2.98023e-08 0.1 -0.5
v 2.98023e-08 0.2 -0.5
v 0.4 0.3 -0.5
v 0.4 0.4 -0.5
v 0.5 0.3 -0.5
v 0.5 0.4 -0.5
v -0.3 0 -0.6
v -0.3 0.1 -0.6
v -0.2 0 -0.6
v -0.2 0.1 -0.6
v 2.98023e-08 0 -0.6
v 2.98023e-08 0.1 -0.6
v 0.7 0 -0.6
v 0.7 0.1 -0.6
v -0.3 0 0.4
v 0.1 0 0.4
v 0.2 0 0.4
v 0.7 0 0.4
v -0.3 0 0.3
v -0.2 0 0.3
v 0.1 0 0.3
v 0.2 0 0.3
v 0.4 0 0.3
v 0.5 0 0.3
v -0.3 0 0.2
v -0.2 0 0.2
v 0.2 0 0.2
v 0.3 0 0.2
v 0.4 0 0.2
v 0.5 0 0.2
v 0.1 0 0.1
v 0.2 0 0.1
v 0.3 0 0.1
v 0.6 0 0.1
v 0.7 0 0.1
v 0.1 0 0
v 0.2 0 0
v 0.6 0 0
v 0.7 0 0
v 0.4 0 -0.1
v 0.5 0 -0.1
v 0.1 0 -0.2
v 0.2 0 -0.2
v 0.4 0 -0.2
v 0.5 0 -0.2
v 0.1 0 -0.3
v 0.2 0 -0.3
v -0.2 0 -0.4
v -0.1 0 -0.4
v 0.5 0 -0.4
v 0.6 0 -0.4
v -0.1 0 -0.5
v 2.98023e-08 0 -0.5
v 0.5 0 -0.5
v 0.6 0 -0.5
v -0.3 0 -0.6
v -0.2 0 -0.6
v 2.98023e-08 0 -0.6
v 0.7 0 -0.6
v 0.4 0.3 -0.2
v 0.5 0.3 -0.2
v 0.3 0.3 -0.3
v 0.4 0.3 -0.3
v 0.5 0.3 -0.3
v 0.6 0.3 -0.3
v 0.3 0.3 -0.4
v 0.4 0.3 -0.4
v 0.5 0.3 -0.4
v 0.6 0.3 -0.4
v 0.4 0.3 -0.5
v 0.5 0.3 -0.5
v -0.3 0.1 0.4
v 0.1 0.1 0.4
v 0.2 0.1 0.4
v 0.7 0.1 0.4
v -0.3 0.1 0.3
v -0.2 0.1 0.3
v -0.1 0.1 0.3
v 2.98023e-08 0.1 0.3
v 0.1 0.1 0.3
v 0.2 0.1 0.3
v 0.4 0.1 0.3
v 0.5 0.1 0.3
v -0.3 0.1 0.2
v -0.2 0.1 0.2
v 0.2 0.1 0.2
v 0.3 0.1 0.2
v 0.4 0.1 0.2
v 0.5 0.1 0.2
v 0.1 0.1 0.1
v 0.2 0.1 0.1
v 0.3 0.1 0.1
v 0.6 0.1 0.1
v 0.7 0.1 0.1
v 0.1 0.1 0
v 0.2 0.1 0
v 0.6 0.1 0
v 0.7 0.1 0
v -0.1 0.1 -0.1
v 2.98023e-08 0.1 -0.1
v 0.4 0.1 -0.1
v 0.5 0.1 -0.1
v -0.1 0.1 -0.2
v 2.98023e-08 0.1 -0.2
v 0.1 0.1 -0.2
v 0.2 0.1 -0.2
v 0.4 0.1 -0.2
v 0.5 0.1 -0.2
v 0.1 0.1 -0.3
v 0.2 0.1 -0.3
v 0.4 0.1 -0.3
v 0.5 0.1 -0.3
v -0.2 0.1 -0.4
v -0.1 0.1 -0.4
v 0.4 0.1 -0.4
v 0.5 0.1 -0.4
v 0.6 0.1 -0.4
v -0.1 0.1 -0.5
v 2.98023e-08 0.1 -0.5
v 0.5 0.1 -0.5
v 0.6 0.1 -0.5
v -0.3 0.1 -0.6
v -0.2 0.1 -0.6
v 2.98023e-08 0.1 -0.6
v 0.7 0.1 -0.6
v -0.1 0.2 0.3
v 2.98023e-08 0.2 0.3
v -0.1 0.2 -0.1
v 2.98023e-08 0.2 -0.1
v -0.1 0.2 -0.2
v 2.98023e-08 0.2 -0.2
v -0.1 0.2 -0.5
v 2.98023e-08 0.2 -0.5
v 0.4 0.4 -0.2
v 0.5 0.4 -0.2
v 0.3 0.4 -0.3
v 0.4 0.4 -0.3
v 0.5 0.4 -0.3
v 0.6 0.4 -0.3
v 0.3 0.4 -0.4
v 0.4 0.4 -0.4
v 0.5 0.4 -0.4
v 0.6 0.4 -0.4
v 0.4 0.4 -0.5
v 0.5 0.4 -0.5
v 0.4 0.5 -0.3
v 0.5 0.5 -0.3
v 0.4 0.5 -0.4
v 0.5 0.5 -0.4

# faces
f 5/3/1 2/3/1 1/3/1
f 6/4/1 3/4/1 2/4/1
f 6/3/1 2/3/1 5/3/1
f 7/3/1 4/3/1 3/3/1
f 7/4/1 3/4/1 6/4/1
f 8/3/1 4/3/1 7/3/1
f 14/4/1 10/4/1 9/4/1
f 15/4/1 10/4/1 14/4/1
f 16/4/1 13/4/1 12/4/1
f 16/4/1 12/4/1 11/4/1
f 17/4/1 13/4/1 16/4/1
f 20/2/1 19/2/1 18/2/1
f 21/2/1 19/2/1 20/2/1
f 25/1/1 23/1/1 22/1/1
f 26/1/1 23/1/1 25/1/1
f 28/2/1 25/2/1 24/2/1
f 29/2/1 25/2/1 28/2/1
f 30/2/1 27/2/1 26/2/1
f 31/2/1 27/2/1 30/2/1
f 32/2/1 30/2/1 29/2/1
f 33/2/1 30/2/1 32/2/1
f 34/4/2 35/4/2 38/4/2
f 38/4/2 35/4/2 39/4/2
f 36/4/2 37/4/2 40/4/2
f 40/4/2 37/4/2 41/4/2
f 42/1/2 43/1/2 45/1/2
f 45/1/2 43/1/2 46/1/2
f 44/2/2 45/2/2 48/2/2
f 48/2/2 45/2/2 49/2/2
f 46/2/2 47/2/2 50/2/2
f 50/2/2 47/2/2 51/2/2
f 49/2/2 50/2/2 52/2/2
f 52/2/2 50/2/2 53/2/2
f 54/2/2 55/2/2 56/2/2
f 56/2/2 55/2/2 57/2/2
f 58/3/2 59/3/2 62/3/2
f 59/4/2 60/4/2 63/4/2
f 62/3/2 59/3/2 63/3/2
f 60/3/2 61/3/2 64/3/2
f 63/4/2 60/4/2 64/4/2
f 64/3/2 61/3/2 65/3/2
f 68/3/3 67/3/3 66/3/3
f 69/3/3 67/3/3 68/3/3
f 70/4/3 69/4/3 68/4/3
f 71/4/3 69/4/3 70/4/3
f 72/3/3 71/3/3 70/3/3
f 73/3/3 71/3/3 72/3/3
f 76/4/3 75/4/3 74/4/3
f 77/4/3 75/4/3 76/4/3
f 80/4/3 79/4/3 78/4/3
f 81/4/3 79/4/3 80/4/3
f 84/2/3 83/2/3 82/2/3
f 85/2/3 83/2/3 84/2/3
f 89/2/3 87/2/3 86/2/3
f 90/2/3 87/2/3 89/2/3
f 92/1/3 89/1/3 88/1/3
f 93/1/3 89/1/3 92/1/3
f 94/2/3 91/2/3 90/2/3
f 95/2/3 91/2/3 94/2/3
f 96/2/3 94/2/3 93/2/3
f 97/2/3 94/2/3 96/2/3
f 98/4/4 99/4/4 100/4/4
f 100/4/4 99/4/4 101/4/4
f 102/2/4 103/2/4 105/2/4
f 105/2/4 103/2/4 106/2/4
f 104/1/4 105/1/4 108/1/4
f 108/1/4 105/1/4 109/1/4
f 106/2/4 107/2/4 110/2/4
f 110/2/4 107/2/4 111/2/4
f 109/2/4 110/2/4 112/2/4
f 112/2/4 110/2/4 113/2/4
f 114/4/4 115/4/4 116/4/4
f 116/4/4 115/4/4 117/4/4
f 118/2/4 119/2/4 120/2/4
f 120/2/4 119/2/4 121/2/4
f 122/3/4 123/3/4 124/3/4
f 124/3/4 123/3/4 125/3/4
f 124/4/4 125/4/4 126/4/4
f 126/4/4 125/4/4 127/4/4
f 126/3/4 127/3/4 128/3/4
f 128/3/4 127/3/4 129/3/4
f 134/3/5 131/3/5 130/3/5
f 135/3/5 131/3/5 134/3/5
f 136/4/5 132/4/5 131/4/5
f 136/3/5 131/3/5 135/3/5
f 137/3/5 133/3/5 132/3/5
f 137/4/5 132/4/5 136/4/5
f 138/3/5 133/3/5 137/3/5
f 139/3/5 133/3/5 138/3/5
f 140/4/5 135/4/5 134/4/5
f 141/3/5 136/3/5 135/3/5
f 141/4/5 135/4/5 140/4/5
f 141/3/5 137/3/5 136/3/5
f 141/3/5 138/3/5 137/3/5
f 142/3/5 138/3/5 141/3/5
f 143/3/5 138/3/5 142/3/5
f 144/4/5 139/4/5 138/4/5
f 144/3/5 138/3/5 143/3/5
f 145/3/5 133/3/5 139/3/5
f 145/4/5 139/4/5 144/4/5
f 146/3/5 141/3/5 140/3/5
f 146/3/5 142/3/5 141/3/5
f 147/4/5 143/4/5 142/4/5
f 147/3/5 142/3/5 146/3/5
f 148/3/5 144/3/5 143/3/5
f 148/4/5 143/4/5 147/4/5
f 148/3/5 145/3/5 144/3/5
f 149/3/5 133/3/5 145/3/5
f 149/3/5 145/3/5 148/3/5
f 150/3/5 133/3/5 149/3/5
f 151/4/5 147/4/5 146/4/5
f 151/3/5 146/3/5 140/3/5
f 152/3/5 148/3/5 147/3/5
f 152/4/5 147/4/5 151/4/5
f 152/3/5 149/3/5 148/3/5
f 153/4/5 150/4/5 149/4/5
f 153/3/5 149/3/5 152/3/5
f 154/4/5 150/4/5 153/4/5
f 155/3/5 152/3/5 151/3/5
f 155/3/5 153/3/5 152/3/5
f 155/3/5 154/3/5 153/3/5
f 156/3/5 154/3/5 155/3/5
f 157/3/5 151/3/5 140/3/5
f 157/3/5 155/3/5 151/3/5
f 158/3/5 155/3/5 157/3/5
f 159/4/5 156/4/5 155/4/5
f 159/3/5 155/3/5 158/3/5
f 160/3/5 154/3/5 156/3/5
f 160/4/5 156/4/5 159/4/5
f 161/4/5 158/4/5 157/4/5
f 161/3/5 157/3/5 140/3/5
f 162/3/5 159/3/5 158/3/5
f 162/4/5 158/4/5 161/4/5
f 162/3/5 160/3/5 159/3/5
f 163/3/5 161/3/5 140/3/5
f 163/3/5 162/3/5 161/3/5
f 164/3/5 162/3/5 163/3/5
f 165/3/5 160/3/5 162/3/5
f 165/3/5 162/3/5 164/3/5
f 165/3/5 154/3/5 160/3/5
f 166/3/5 154/3/5 165/3/5
f 167/4/5 164/4/5 163/4/5
f 167/3/5 165/3/5 164/3/5
f 168/3/5 165/3/5 167/3/5
f 169/4/5 166/4/5 165/4/5
f 169/3/5 165/3/5 168/3/5
f 170/3/5 154/3/5 166/3/5
f 170/4/5 166/4/5 169/4/5
f 171/3/5 163/3/5 140/3/5
f 172/4/5 168/4/5 167/4/5
f 172/3/5 163/3/5 171/3/5
f 172/4/5 167/4/5 163/4/5
f 173/3/5 169/3/5 168/3/5
f 173/4/5 168/4/5 172/4/5
f 173/3/5 170/3/5 169/3/5
f 174/3/5 154/3/5 170/3/5
f 174/3/5 170/3/5 173/3/5
f 178/2/5 176/2/5 175/2/5
f 179/2/5 176/2/5 178/2/5
f 181/2/5 178/2/5 177/2/5
f 182/2/5 178/2/5 181/2/5
f 183/2/5 180/2/5 179/2/5
f 184/2/5 180/2/5 183/2/5
f 185/2/5 183/2/5 182/2/5
f 186/2/5 183/2/5 185/2/5
f 187/3/6 188/3/6 191/3/6
f 191/3/6 188/3/6 192/3/6
f 192/3/6 188/3/6 193/3/6
f 193/3/6 188/3/6 194/3/6
f 188/4/6 189/4/6 195/4/6
f 194/3/6 188/3/6 195/3/6
f 189/3/6 190/3/6 196/3/6
f 195/4/6 189/4/6 196/4/6
f 196/3/6 190/3/6 197/3/6
f 197/3/6 190/3/6 198/3/6
f 191/4/6 192/4/6 199/4/6
f 192/3/6 193/3/6 200/3/6
f 199/4/6 192/4/6 200/4/6
f 194/3/6 195/3/6 201/3/6
f 195/3/6 196/3/6 201/3/6
f 196/3/6 197/3/6 201/3/6
f 201/3/6 197/3/6 202/3/6
f 197/4/6 198/4/6 203/4/6
f 202/3/6 197/3/6 203/3/6
f 198/3/6 190/3/6 204/3/6
f 203/4/6 198/4/6 204/4/6
f 194/3/6 201/3/6 205/3/6
f 201/4/6 202/4/6 206/4/6
f 205/3/6 201/3/6 206/3/6
f 202/3/6 203/3/6 207/3/6
f 206/4/6 202/4/6 207/4/6
f 203/3/6 204/3/6 207/3/6
f 204/3/6 190/3/6 208/3/6
f 207/3/6 204/3/6 208/3/6
f 208/3/6 190/3/6 209/3/6
f 205/4/6 206/4/6 210/4/6
f 194/3/6 205/3/6 210/3/6
f 206/3/6 207/3/6 211/3/6
f 210/4/6 206/4/6 211/4/6
f 207/3/6 208/3/6 211/3/6
f 208/4/6 209/4/6 212/4/6
f 211/3/6 208/3/6 212/3/6
f 212/4/6 209/4/6 213/4/6
f 200/3/6 193/3/6 214/3/6
f 199/3/6 200/3/6 214/3/6
f 210/3/6 211/3/6 215/3/6
f 212/3/6 213/3/6 215/3/6
f 211/3/6 212/3/6 215/3/6
f 194/3/6 210/3/6 215/3/6
f 215/3/6 213/3/6 216/3/6
f 216/3/6 213/3/6 217/3/6
f 199/3/6 214/3/6 218/3/6
f 214/3/6 215/3/6 218/3/6
f 215/3/6 216/3/6 218/3/6
f 218/3/6 216/3/6 219/3/6
f 219/3/6 216/3/6 220/3/6
f 220/3/6 216/3/6 221/3/6
f 216/4/6 217/4/6 222/4/6
f 221/3/6 216/3/6 222/3/6
f 217/3/6 213/3/6 223/3/6
f 222/4/6 217/4/6 223/4/6
f 220/4/6 221/4/6 224/4/6
f 219/3/6 220/3/6 224/3/6
f 221/3/6 222/3/6 225/3/6
f 224/4/6 221/4/6 225/4/6
f 222/3/6 223/3/6 225/3/6
f 225/3/6 223/3/6 226/3/6
f 223/3/6 213/3/6 227/3/6
f 226/3/6 223/3/6 227/3/6
f 199/3/6 218/3/6 228/3/6
f 228/3/6 218/3/6 229/3/6
f 225/3/6 226/3/6 230/3/6
f 224/3/6 225/3/6 230/3/6
f 227/3/6 213/3/6 231/3/6
f 231/3/6 213/3/6 232/3/6
f 228/4/6 229/4/6 233/4/6
f 219/3/6 224/3/6 234/3/6
f 224/3/6 230/3/6 234/3/6
f 230/3/6 231/3/6 234/3/6
f 231/4/6 232/4/6 235/4/6
f 234/3/6 231/3/6 235/3/6
f 232/3/6 213/3/6 236/3/6
f 235/4/6 232/4/6 236/4/6
f 199/3/6 228/3/6 237/3/6
f 228/4/6 233/4/6 238/4/6
f 237/3/6 228/3/6 238/3/6
f 233/4/6 234/4/6 238/4/6
f 234/3/6 235/3/6 239/3/6
f 238/4/6 234/4/6 239/4/6
f 235/3/6 236/3/6 239/3/6
f 236/3/6 213/3/6 240/3/6
f 239/3/6 236/3/6 240/3/6
f 241/4/6 242/4/6 243/4/6
f 243/4/6 242/4/6 244/4/6
f 245/4/6 246/4/6 247/4/6
f 247/4/6 246/4/6 248/4/6
f 249/2/6 250/2/6 252/2/6
f 252/2/6 250/2/6 253/2/6
f 251/2/6 252/2/6 255/2/6
f 255/2/6 252/2/6 256/2/6
f 253/2/6 254/2/6 257/2/6
f 257/2/6 254/2/6 258/2/6
f 256/2/6 257/2/6 259/2/6
f 259/2/6 257/2/6 260/2/6
f 261/2/6 262/2/6 263/2/6
f 263/2/6 262/2/6 264/2/6
