# MagicaVoxel @ Ephtracy

# group
o 

# material
mtllib peppina.mtl
usemtl palette

# normals
vn -1 0 0
vn 1 0 0
vn 0 0 1
vn 0 0 -1
vn 0 -1 0
vn 0 1 0

# texcoords
vt 0.0527344 0.5
vt 0.958984 0.5
vt 0.990234 0.5
vt 0.994141 0.5

# verts
v -0.9 0 0.5
v -0.9 0 0.4
v -0.9 0 0.2
v -0.9 0 0.1
v -0.9 0.1 0.5
v -0.9 0.1 0.4
v -0.9 0.1 0.2
v -0.9 0.1 0.1
v -0.9 0.2 0.4
v -0.9 0.2 0.2
v -0.8 0 0.7
v -0.8 0 0.5
v -0.8 0 0.1
v -0.8 0 -0.1
v -0.8 0.1 0.5
v -0.8 0.1 0.4
v -0.8 0.1 0.2
v -0.8 0.1 0.1
v -0.8 0.2 0.5
v -0.8 0.2 0.4
v -0.8 0.2 0.2
v -0.8 0.2 0.1
v -0.8 0.3 0.6
v -0.8 0.3 0.5
v -0.8 0.3 0.1
v -0.8 0.3 0
v -0.8 0.4 0.6
v -0.8 0.4 0.4
v -0.8 0.4 0.2
v -0.8 0.4 0
v -0.8 0.5 0.7
v -0.8 0.5 0.4
v -0.8 0.5 0.2
v -0.8 0.5 -0.1
v -0.6 0.5 0.7
v -0.6 0.5 0.6
v -0.6 0.5 0.5
v -0.6 0.5 0.4
v -0.6 0.5 0.2
v -0.6 0.5 0.1
v -0.6 0.5 0
v -0.6 0.5 -0.1
v -0.6 0.6 0.6
v -0.6 0.6 0.5
v -0.6 0.6 0.4
v -0.6 0.6 0.2
v -0.6 0.6 0.1
v -0.6 0.6 0
v -0.6 0.7 0.6
v -0.6 0.7 0.5
v -0.6 0.7 0.1
v -0.6 0.7 0
v -0.6 0.8 0.7
v -0.6 0.8 0.6
v -0.6 0.8 0
v -0.6 0.8 -0.1
v -0.2 0 -0.2
v -0.2 0 -0.3
v -0.2 0 -0.4
v -0.2 0 -0.5
v -0.2 0 -0.6
v -0.2 0 -0.7
v -0.2 0 -0.8
v -0.2 0 -0.9
v -0.2 0.1 -0.2
v -0.2 0.1 -0.3
v -0.2 0.1 -0.4
v -0.2 0.1 -0.5
v -0.2 0.1 -0.6
v -0.2 0.1 -0.7
v -0.2 0.1 -0.8
v -0.2 0.1 -0.9
v 0.2 0 0.6
v 0.2 0 0
v 0.2 1 0.6
v 0.2 1 0
v 0.9 0 -0.4
v 0.9 0 -0.5
v 0.9 0 -0.6
v 0.9 0 -0.7
v 0.9 0 -0.8
v 0.9 0 -0.9
v 0.9 0.1 -0.4
v 0.9 0.1 -0.5
v 0.9 0.1 -0.6
v 0.9 0.1 -0.7
v 0.9 0.1 -0.8
v 0.9 0.1 -0.9
v -0.4 0.5 0.7
v -0.4 0.5 0.4
v -0.4 0.5 0.2
v -0.4 0.5 -0.1
v -0.4 0.6 0.5
v -0.4 0.6 0.4
v -0.4 0.6 0.2
v -0.4 0.6 0.1
v -0.4 0.7 0.6
v -0.4 0.7 0.5
v -0.4 0.7 0.1
v -0.4 0.7 0
v -0.4 0.8 0.7
v -0.4 0.8 0.6
v -0.4 0.8 0
v -0.4 0.8 -0.1
v -0.3 0 0.7
v -0.3 0 -0.1
v -0.3 0.5 0.7
v -0.3 0.5 -0.1
v 0.5 0 0.6
v 0.5 0 0.5
v 0.5 0 0.4
v 0.5 0 0.1
v 0.5 0 0
v 0.5 0.1 0.4
v 0.5 0.1 0.2
v 0.5 0.1 0.1
v 0.5 0.1 0
v 0.5 0.2 0.6
v 0.5 0.2 0.5
v 0.5 0.2 0.3
v 0.5 0.2 0.2
v 0.5 0.3 0.6
v 0.5 0.3 0.4
v 0.5 0.3 0.3
v 0.5 0.3 0.2
v 0.5 0.3 0.1
v 0.5 0.4 0.4
v 0.5 0.4 0.3
v 0.5 0.4 0.2
v 0.5 0.4 0.1
v 0.5 0.5 0.3
v 0.5 0.5 0.2
v 0.5 0.5 0
v 0.5 0.6 0.4
v 0.5 0.6 0.3
v 0.5 0.6 0.1
v 0.5 0.6 0
v 0.5 0.7 0.5
v 0.5 0.7 0.4
v 0.5 0.7 0.3
v 0.5 0.7 0.2
v 0.5 0.8 0.6
v 0.5 0.8 0.5
v 0.5 0.8 0.2
v 0.5 0.9 0.2
v 0.5 0.9 0.1
v 0.5 0.9 0
v 0.5 1 0.6
v 0.5 1 0.5
v 0.5 1 0.1
v 0.5 1 0
v 0.6 0 0.4
v 0.6 0 0.1
v 0.6 0 -0.2
v 0.6 0 -0.3
v 0.6 0 -0.4
v 0.6 0 -0.5
v 0.6 0 -0.6
v 0.6 0 -0.7
v 0.6 0 -0.8
v 0.6 0 -0.9
v 0.6 0.1 0.4
v 0.6 0.1 0.2
v 0.6 0.1 -0.2
v 0.6 0.1 -0.3
v 0.6 0.1 -0.4
v 0.6 0.1 -0.5
v 0.6 0.1 -0.6
v 0.6 0.1 -0.7
v 0.6 0.1 -0.8
v 0.6 0.1 -0.9
v 0.6 0.2 0.3
v 0.6 0.2 0.2
v 0.6 0.3 0.4
v 0.6 0.3 0.3
v 0.6 0.3 0.2
v 0.6 0.3 0.1
v 0.6 0.4 0.4
v 0.6 0.4 0.2
v 1 0 -0.4
v 1 0 -0.5
v 1 0 -0.6
v 1 0 -0.7
v 1 0 -0.8
v 1 0 -0.9
v 1 0.1 -0.4
v 1 0.1 -0.5
v 1 0.1 -0.6
v 1 0.1 -0.7
v 1 0.1 -0.8
v 1 0.1 -0.9
v -0.8 0 0.7
v -0.8 0.5 0.7
v -0.6 0.3 0.7
v -0.6 0.5 0.7
v -0.6 0.8 0.7
v -0.5 0.1 0.7
v -0.5 0.3 0.7
v -0.4 0 0.7
v -0.4 0.1 0.7
v -0.4 0.5 0.7
v -0.4 0.8 0.7
v -0.3 0 0.7
v -0.3 0.5 0.7
v 0.2 0 0.6
v 0.2 1 0.6
v 0.3 0 0.6
v 0.3 0.2 0.6
v 0.3 0.4 0.6
v 0.3 0.6 0.6
v 0.3 0.8 0.6
v 0.3 0.9 0.6
v 0.4 0.3 0.6
v 0.4 0.4 0.6
v 0.4 0.6 0.6
v 0.4 0.8 0.6
v 0.4 0.9 0.6
v 0.5 0 0.6
v 0.5 0.2 0.6
v 0.5 0.3 0.6
v 0.5 0.8 0.6
v 0.5 1 0.6
v -0.9 0 0.5
v -0.9 0.1 0.5
v -0.8 0 0.5
v -0.8 0.1 0.5
v -0.9 0.1 0.4
v -0.9 0.2 0.4
v -0.8 0.1 0.4
v -0.8 0.2 0.4
v 0.5 0 0.4
v 0.5 0.1 0.4
v 0.5 0.3 0.4
v 0.5 0.4 0.4
v 0.6 0 0.4
v 0.6 0.1 0.4
v 0.6 0.3 0.4
v 0.6 0.4 0.4
v 0.5 0.2 0.3
v 0.5 0.3 0.3
v 0.6 0.2 0.3
v 0.6 0.3 0.3
v -0.6 0.5 0.2
v -0.6 0.6 0.2
v -0.4 0.5 0.2
v -0.4 0.6 0.2
v 0.5 0.1 0.2
v 0.5 0.2 0.2
v 0.6 0.1 0.2
v 0.6 0.2 0.2
v -0.6 0.6 0.1
v -0.6 0.7 0.1
v -0.4 0.6 0.1
v -0.4 0.7 0.1
v -0.6 0.7 0
v -0.6 0.8 0
v -0.4 0.7 0
v -0.4 0.8 0
v -0.2 0 -0.2
v -0.2 0.1 -0.2
v 0.1 0 -0.2
v 0.1 0.1 -0.2
v 0.6 0 -0.2
v 0.6 0.1 -0.2
v -0.2 0 -0.4
v -0.2 0.1 -0.4
v 0.1 0 -0.4
v 0.1 0.1 -0.4
v 0.6 0 -0.4
v 0.6 0.1 -0.4
v 0.9 0 -0.4
v 0.9 0.1 -0.4
v 1 0 -0.4
v 1 0.1 -0.4
v -0.2 0 -0.6
v -0.2 0.1 -0.6
v -0.1 0 -0.6
v -0.1 0.1 -0.6
v 0.3 0 -0.6
v 0.3 0.1 -0.6
v 0.6 0 -0.6
v 0.6 0.1 -0.6
v 0.9 0 -0.6
v 0.9 0.1 -0.6
v 1 0 -0.6
v 1 0.1 -0.6
v -0.2 0 -0.8
v -0.2 0.1 -0.8
v 0.1 0 -0.8
v 0.1 0.1 -0.8
v 0.5 0 -0.8
v 0.5 0.1 -0.8
v 0.6 0 -0.8
v 0.6 0.1 -0.8
v 0.9 0 -0.8
v 0.9 0.1 -0.8
v 1 0 -0.8
v 1 0.1 -0.8
v -0.6 0.7 0.6
v -0.6 0.8 0.6
v -0.4 0.7 0.6
v -0.4 0.8 0.6
v -0.6 0.6 0.5
v -0.6 0.7 0.5
v -0.4 0.6 0.5
v -0.4 0.7 0.5
v -0.6 0.5 0.4
v -0.6 0.6 0.4
v -0.4 0.5 0.4
v -0.4 0.6 0.4
v -0.9 0.1 0.2
v -0.9 0.2 0.2
v -0.8 0.1 0.2
v -0.8 0.2 0.2
v 0.5 0.3 0.2
v 0.5 0.4 0.2
v 0.6 0.3 0.2
v 0.6 0.4 0.2
v -0.9 0 0.1
v -0.9 0.1 0.1
v -0.8 0 0.1
v -0.8 0.1 0.1
v 0.5 0 0.1
v 0.5 0.1 0.1
v 0.5 0.3 0.1
v 0.6 0 0.1
v 0.6 0.3 0.1
v 0.2 0 0
v 0.2 1 0
v 0.3 0.1 0
v 0.3 0.6 0
v 0.3 0.7 0
v 0.3 1 0
v 0.4 0.5 0
v 0.4 0.6 0
v 0.4 0.7 0
v 0.4 0.9 0
v 0.4 1 0
v 0.5 0 0
v 0.5 0.1 0
v 0.5 0.5 0
v 0.5 0.6 0
v 0.5 0.9 0
v 0.5 1 0
v -0.8 0 -0.1
v -0.8 0.5 -0.1
v -0.6 0.5 -0.1
v -0.6 0.8 -0.1
v -0.5 0.4 -0.1
v -0.5 0.5 -0.1
v -0.4 0 -0.1
v -0.4 0.4 -0.1
v -0.4 0.5 -0.1
v -0.4 0.8 -0.1
v -0.3 0 -0.1
v -0.3 0.5 -0.1
v -0.2 0 -0.3
v -0.2 0.1 -0.3
v 0.1 0 -0.3
v 0.1 0.1 -0.3
v 0.6 0 -0.3
v 0.6 0.1 -0.3
v -0.2 0 -0.5
v -0.2 0.1 -0.5
v 0.1 0 -0.5
v 0.1 0.1 -0.5
v 0.6 0 -0.5
v 0.6 0.1 -0.5
v 0.9 0 -0.5
v 0.9 0.1 -0.5
v 1 0 -0.5
v 1 0.1 -0.5
v -0.2 0 -0.7
v -0.2 0.1 -0.7
v -0.1 0 -0.7
v -0.1 0.1 -0.7
v 0.3 0 -0.7
v 0.3 0.1 -0.7
v 0.6 0 -0.7
v 0.6 0.1 -0.7
v 0.9 0 -0.7
v 0.9 0.1 -0.7
v 1 0 -0.7
v 1 0.1 -0.7
v -0.2 0 -0.9
v -0.2 0.1 -0.9
v 0.1 0 -0.9
v 0.1 0.1 -0.9
v 0.5 0 -0.9
v 0.5 0.1 -0.9
v 0.6 0 -0.9
v 0.6 0.1 -0.9
v 0.9 0 -0.9
v 0.9 0.1 -0.9
v 1 0 -0.9
v 1 0.1 -0.9
v -0.8 0 0.7
v -0.4 0 0.7
v -0.3 0 0.7
v 0.2 0 0.6
v 0.3 0 0.6
v 0.5 0 0.6
v -0.9 0 0.5
v -0.8 0 0.5
v 0.3 0 0.5
v 0.5 0 0.5
v -0.9 0 0.4
v -0.8 0 0.4
v 0.5 0 0.4
v 0.6 0 0.4
v -0.9 0 0.2
v -0.8 0 0.2
v -0.9 0 0.1
v -0.8 0 0.1
v 0.5 0 0.1
v 0.6 0 0.1
v 0.2 0 0
v 0.5 0 0
v -0.8 0 -0.1
v -0.4 0 -0.1
v -0.3 0 -0.1
v -0.2 0 -0.2
v 0.1 0 -0.2
v 0.6 0 -0.2
v -0.2 0 -0.3
v 0.1 0 -0.3
v 0.6 0 -0.3
v -0.2 0 -0.4
v 0.1 0 -0.4
v 0.6 0 -0.4
v 0.9 0 -0.4
v 1 0 -0.4
v -0.2 0 -0.5
v 0.1 0 -0.5
v 0.6 0 -0.5
v 0.9 0 -0.5
v 1 0 -0.5
v -0.2 0 -0.6
v -0.1 0 -0.6
v 0.3 0 -0.6
v 0.6 0 -0.6
v 0.9 0 -0.6
v 1 0 -0.6
v -0.2 0 -0.7
v -0.1 0 -0.7
v 0.3 0 -0.7
v 0.6 0 -0.7
v 0.9 0 -0.7
v 1 0 -0.7
v -0.2 0 -0.8
v 0.1 0 -0.8
v 0.5 0 -0.8
v 0.6 0 -0.8
v 0.9 0 -0.8
v 1 0 -0.8
v -0.2 0 -0.9
v 0.1 0 -0.9
v 0.5 0 -0.9
v 0.6 0 -0.9
v 0.9 0 -0.9
v 1 0 -0.9
v 0.5 0.2 0.3
v 0.6 0.2 0.3
v 0.5 0.2 0.2
v 0.6 0.2 0.2
v 0.5 0.3 0.4
v 0.6 0.3 0.4
v 0.5 0.3 0.3
v 0.6 0.3 0.3
v -0.9 0.1 0.5
v -0.8 0.1 0.5
v -0.9 0.1 0.4
v -0.8 0.1 0.4
v 0.5 0.1 0.4
v 0.6 0.1 0.4
v -0.9 0.1 0.2
v -0.8 0.1 0.2
v 0.5 0.1 0.2
v 0.6 0.1 0.2
v -0.9 0.1 0.1
v -0.8 0.1 0.1
v -0.2 0.1 -0.2
v 0.1 0.1 -0.2
v 0.6 0.1 -0.2
v -0.2 0.1 -0.3
v 0.1 0.1 -0.3
v 0.6 0.1 -0.3
v -0.2 0.1 -0.4
v 0.1 0.1 -0.4
v 0.6 0.1 -0.4
v 0.9 0.1 -0.4
v 1 0.1 -0.4
v -0.2 0.1 -0.5
v 0.1 0.1 -0.5
v 0.6 0.1 -0.5
v 0.9 0.1 -0.5
v 1 0.1 -0.5
v -0.2 0.1 -0.6
v -0.1 0.1 -0.6
v 0.3 0.1 -0.6
v 0.6 0.1 -0.6
v 0.9 0.1 -0.6
v 1 0.1 -0.6
v -0.2 0.1 -0.7
v -0.1 0.1 -0.7
v 0.3 0.1 -0.7
v 0.6 0.1 -0.7
v 0.9 0.1 -0.7
v 1 0.1 -0.7
v -0.2 0.1 -0.8
v 0.1 0.1 -0.8
v 0.5 0.1 -0.8
v 0.6 0.1 -0.8
v 0.9 0.1 -0.8
v 1 0.1 -0.8
v -0.2 0.1 -0.9
v 0.1 0.1 -0.9
v 0.5 0.1 -0.9
v 0.6 0.1 -0.9
v 0.9 0.1 -0.9
v 1 0.1 -0.9
v -0.9 0.2 0.4
v -0.8 0.2 0.4
v -0.9 0.2 0.2
v -0.8 0.2 0.2
v 0.5 0.3 0.2
v 0.6 0.3 0.2
v 0.5 0.3 0.1
v 0.6 0.3 0.1
v 0.5 0.4 0.4
v 0.6 0.4 0.4
v 0.5 0.4 0.3
v 0.5 0.4 0.2
v 0.6 0.4 0.2
v -0.8 0.5 0.7
v -0.6 0.5 0.7
v -0.4 0.5 0.7
v -0.3 0.5 0.7
v -0.6 0.5 0.6
v -0.7 0.5 0.5
v -0.6 0.5 0.5
v -0.8 0.5 0.4
v -0.7 0.5 0.4
v -0.6 0.5 0.4
v -0.4 0.5 0.4
v -0.8 0.5 0.2
v -0.7 0.5 0.2
v -0.6 0.5 0.2
v -0.4 0.5 0.2
v -0.7 0.5 0.1
v -0.6 0.5 0.1
v -0.6 0.5 0
v -0.8 0.5 -0.1
v -0.6 0.5 -0.1
v -0.4 0.5 -0.1
v -0.3 0.5 -0.1
v -0.6 0.6 0.5
v -0.4 0.6 0.5
v -0.6 0.6 0.4
v -0.4 0.6 0.4
v -0.6 0.6 0.2
v -0.4 0.6 0.2
v -0.6 0.6 0.1
v -0.4 0.6 0.1
v -0.6 0.7 0.6
v -0.4 0.7 0.6
v -0.6 0.7 0.5
v -0.4 0.7 0.5
v -0.6 0.7 0.1
v -0.4 0.7 0.1
v -0.6 0.7 0
v -0.4 0.7 0
v -0.6 0.8 0.7
v -0.4 0.8 0.7
v -0.6 0.8 0.6
v -0.4 0.8 0.6
v -0.6 0.8 0
v -0.4 0.8 0
v -0.6 0.8 -0.1
v -0.4 0.8 -0.1
v 0.2 1 0.6
v 0.5 1 0.6
v 0.4 1 0.5
v 0.5 1 0.5
v 0.3 1 0.1
v 0.4 1 0.1
v 0.5 1 0.1
v 0.2 1 0
v 0.3 1 0
v 0.4 1 0
v 0.5 1 0

# faces
f 5/2/1 2/2/1 1/2/1
f 6/1/1 3/1/1 2/1/1
f 6/2/1 2/2/1 5/2/1
f 7/2/1 4/2/1 3/2/1
f 7/1/1 3/1/1 6/1/1
f 8/2/1 4/2/1 7/2/1
f 9/2/1 7/2/1 6/2/1
f 10/2/1 7/2/1 9/2/1
f 15/2/1 12/2/1 11/2/1
f 18/2/1 14/2/1 13/2/1
f 19/2/1 16/2/1 15/2/1
f 19/2/1 15/2/1 11/2/1
f 20/2/1 16/2/1 19/2/1
f 21/2/1 18/2/1 17/2/1
f 22/2/1 14/2/1 18/2/1
f 22/2/1 18/2/1 21/2/1
f 23/2/1 19/2/1 11/2/1
f 24/3/1 20/3/1 19/3/1
f 24/2/1 19/2/1 23/2/1
f 25/2/1 14/2/1 22/2/1
f 25/3/1 22/3/1 21/3/1
f 26/2/1 14/2/1 25/2/1
f 27/2/1 23/2/1 11/2/1
f 27/3/1 24/3/1 23/3/1
f 28/2/1 21/2/1 20/2/1
f 28/3/1 24/3/1 27/3/1
f 28/3/1 20/3/1 24/3/1
f 29/3/1 25/3/1 21/3/1
f 29/2/1 21/2/1 28/2/1
f 29/3/1 26/3/1 25/3/1
f 30/2/1 14/2/1 26/2/1
f 30/3/1 26/3/1 29/3/1
f 31/2/1 27/2/1 11/2/1
f 31/2/1 28/2/1 27/2/1
f 32/4/1 29/4/1 28/4/1
f 32/2/1 28/2/1 31/2/1
f 33/2/1 30/2/1 29/2/1
f 33/4/1 29/4/1 32/4/1
f 34/2/1 14/2/1 30/2/1
f 34/2/1 30/2/1 33/2/1
f 43/4/1 36/4/1 35/4/1
f 43/1/1 37/1/1 36/1/1
f 44/4/1 38/4/1 37/4/1
f 44/1/1 37/1/1 43/1/1
f 45/4/1 38/4/1 44/4/1
f 46/4/1 40/4/1 39/4/1
f 47/1/1 41/1/1 40/1/1
f 47/4/1 40/4/1 46/4/1
f 48/4/1 42/4/1 41/4/1
f 48/1/1 41/1/1 47/1/1
f 49/4/1 43/4/1 35/4/1
f 49/4/1 44/4/1 43/4/1
f 50/4/1 44/4/1 49/4/1
f 51/4/1 48/4/1 47/4/1
f 52/4/1 42/4/1 48/4/1
f 52/4/1 48/4/1 51/4/1
f 53/4/1 49/4/1 35/4/1
f 54/4/1 49/4/1 53/4/1
f 55/4/1 42/4/1 52/4/1
f 56/4/1 42/4/1 55/4/1
f 65/2/1 58/2/1 57/2/1
f 66/2/1 58/2/1 65/2/1
f 67/2/1 60/2/1 59/2/1
f 68/2/1 60/2/1 67/2/1
f 69/2/1 62/2/1 61/2/1
f 70/2/1 62/2/1 69/2/1
f 71/2/1 64/2/1 63/2/1
f 72/2/1 64/2/1 71/2/1
f 75/2/1 74/2/1 73/2/1
f 76/2/1 74/2/1 75/2/1
f 83/1/1 78/1/1 77/1/1
f 84/1/1 78/1/1 83/1/1
f 85/4/1 80/4/1 79/4/1
f 86/4/1 80/4/1 85/4/1
f 87/2/1 82/2/1 81/2/1
f 88/2/1 82/2/1 87/2/1
f 89/4/2 90/4/2 93/4/2
f 93/4/2 90/4/2 94/4/2
f 91/4/2 92/4/2 95/4/2
f 95/4/2 92/4/2 96/4/2
f 89/4/2 93/4/2 97/4/2
f 97/4/2 93/4/2 98/4/2
f 96/4/2 92/4/2 99/4/2
f 99/4/2 92/4/2 100/4/2
f 89/4/2 97/4/2 101/4/2
f 101/4/2 97/4/2 102/4/2
f 100/4/2 92/4/2 103/4/2
f 103/4/2 92/4/2 104/4/2
f 105/4/2 106/4/2 107/4/2
f 107/4/2 106/4/2 108/4/2
f 110/2/2 111/2/2 114/2/2
f 112/2/2 113/2/2 116/2/2
f 116/2/2 113/2/2 117/2/2
f 109/4/2 110/4/2 118/4/2
f 114/2/2 115/2/2 119/2/2
f 118/4/2 110/4/2 119/4/2
f 110/2/2 114/2/2 119/2/2
f 119/2/2 115/2/2 120/2/2
f 120/2/2 115/2/2 121/2/2
f 118/2/2 119/2/2 122/2/2
f 119/2/2 120/2/2 122/2/2
f 122/2/2 120/2/2 123/2/2
f 123/2/2 120/2/2 124/2/2
f 116/4/2 117/4/2 126/4/2
f 122/4/2 123/4/2 127/4/2
f 125/2/2 126/2/2 129/2/2
f 126/4/2 117/4/2 130/4/2
f 129/2/2 126/2/2 130/2/2
f 127/4/2 128/4/2 131/4/2
f 128/2/2 129/2/2 131/2/2
f 129/4/2 130/4/2 132/4/2
f 131/2/2 129/2/2 132/2/2
f 130/4/2 117/4/2 133/4/2
f 132/4/2 130/4/2 133/4/2
f 131/4/2 132/4/2 134/4/2
f 127/4/2 131/4/2 134/4/2
f 122/4/2 127/4/2 134/4/2
f 134/4/2 132/4/2 135/4/2
f 132/2/2 133/2/2 136/2/2
f 136/2/2 133/2/2 137/2/2
f 122/4/2 134/4/2 138/4/2
f 134/2/2 135/2/2 139/2/2
f 138/4/2 134/4/2 139/4/2
f 135/4/2 132/4/2 140/4/2
f 139/2/2 135/2/2 140/2/2
f 132/2/2 136/2/2 141/2/2
f 140/4/2 132/4/2 141/4/2
f 122/4/2 138/4/2 142/4/2
f 138/2/2 139/2/2 143/2/2
f 142/4/2 138/4/2 143/4/2
f 139/2/2 140/2/2 143/2/2
f 140/2/2 141/2/2 143/2/2
f 141/2/2 136/2/2 144/2/2
f 143/2/2 141/2/2 144/2/2
f 143/4/2 144/4/2 145/4/2
f 144/2/2 136/2/2 145/2/2
f 136/4/2 137/4/2 146/4/2
f 145/2/2 136/2/2 146/2/2
f 146/4/2 137/4/2 147/4/2
f 142/2/2 143/2/2 148/2/2
f 143/4/2 145/4/2 149/4/2
f 148/2/2 143/2/2 149/2/2
f 145/4/2 146/4/2 149/4/2
f 146/2/2 147/2/2 150/2/2
f 149/4/2 146/4/2 150/4/2
f 150/2/2 147/2/2 151/2/2
f 152/4/2 153/4/2 162/4/2
f 162/4/2 153/4/2 163/4/2
f 154/4/2 155/4/2 164/4/2
f 164/4/2 155/4/2 165/4/2
f 156/4/2 157/4/2 166/4/2
f 166/4/2 157/4/2 167/4/2
f 158/2/2 159/2/2 168/2/2
f 168/2/2 159/2/2 169/2/2
f 160/2/2 161/2/2 170/2/2
f 170/2/2 161/2/2 171/2/2
f 163/4/2 153/4/2 173/4/2
f 172/4/2 173/4/2 175/4/2
f 173/4/2 153/4/2 176/4/2
f 175/4/2 173/4/2 176/4/2
f 176/4/2 153/4/2 177/4/2
f 174/4/2 175/4/2 178/4/2
f 175/4/2 176/4/2 178/4/2
f 178/4/2 176/4/2 179/4/2
f 180/1/2 181/1/2 186/1/2
f 186/1/2 181/1/2 187/1/2
f 182/4/2 183/4/2 188/4/2
f 188/4/2 183/4/2 189/4/2
f 184/2/2 185/2/2 190/2/2
f 190/2/2 185/2/2 191/2/2
f 194/2/3 193/2/3 192/2/3
f 195/2/3 193/2/3 194/2/3
f 197/2/3 194/2/3 192/2/3
f 198/4/3 196/4/3 195/4/3
f 198/2/3 194/2/3 197/2/3
f 198/4/3 195/4/3 194/4/3
f 199/2/3 197/2/3 192/2/3
f 200/4/3 198/4/3 197/4/3
f 200/2/3 197/2/3 199/2/3
f 201/4/3 196/4/3 198/4/3
f 201/4/3 198/4/3 200/4/3
f 202/4/3 196/4/3 201/4/3
f 203/4/3 200/4/3 199/4/3
f 203/4/3 201/4/3 200/4/3
f 204/4/3 201/4/3 203/4/3
f 207/2/3 206/2/3 205/2/3
f 208/2/3 206/2/3 207/2/3
f 209/2/3 206/2/3 208/2/3
f 210/2/3 206/2/3 209/2/3
f 211/2/3 206/2/3 210/2/3
f 212/2/3 206/2/3 211/2/3
f 213/2/3 209/2/3 208/2/3
f 214/4/3 210/4/3 209/4/3
f 214/2/3 209/2/3 213/2/3
f 215/2/3 211/2/3 210/2/3
f 215/4/3 210/4/3 214/4/3
f 216/4/3 212/4/3 211/4/3
f 216/2/3 211/2/3 215/2/3
f 217/2/3 206/2/3 212/2/3
f 217/4/3 212/4/3 216/4/3
f 218/4/3 208/4/3 207/4/3
f 219/2/3 213/2/3 208/2/3
f 219/4/3 208/4/3 218/4/3
f 220/4/3 216/4/3 215/4/3
f 220/2/3 213/2/3 219/2/3
f 220/4/3 214/4/3 213/4/3
f 220/4/3 215/4/3 214/4/3
f 221/2/3 217/2/3 216/2/3
f 221/4/3 216/4/3 220/4/3
f 222/2/3 206/2/3 217/2/3
f 222/2/3 217/2/3 221/2/3
f 225/2/3 224/2/3 223/2/3
f 226/2/3 224/2/3 225/2/3
f 229/2/3 228/2/3 227/2/3
f 230/2/3 228/2/3 229/2/3
f 235/4/3 232/4/3 231/4/3
f 236/4/3 232/4/3 235/4/3
f 237/4/3 234/4/3 233/4/3
f 238/4/3 234/4/3 237/4/3
f 241/4/3 240/4/3 239/4/3
f 242/4/3 240/4/3 241/4/3
f 245/4/3 244/4/3 243/4/3
f 246/4/3 244/4/3 245/4/3
f 249/4/3 248/4/3 247/4/3
f 250/4/3 248/4/3 249/4/3
f 253/4/3 252/4/3 251/4/3
f 254/4/3 252/4/3 253/4/3
f 257/4/3 256/4/3 255/4/3
f 258/4/3 256/4/3 257/4/3
f 261/2/3 260/2/3 259/2/3
f 262/2/3 260/2/3 261/2/3
f 263/4/3 262/4/3 261/4/3
f 264/4/3 262/4/3 263/4/3
f 267/2/3 266/2/3 265/2/3
f 268/2/3 266/2/3 267/2/3
f 269/4/3 268/4/3 267/4/3
f 270/4/3 268/4/3 269/4/3
f 273/1/3 272/1/3 271/1/3
f 274/1/3 272/1/3 273/1/3
f 277/2/3 276/2/3 275/2/3
f 278/2/3 276/2/3 277/2/3
f 279/4/3 278/4/3 277/4/3
f 280/4/3 278/4/3 279/4/3
f 281/2/3 280/2/3 279/2/3
f 282/2/3 280/2/3 281/2/3
f 285/4/3 284/4/3 283/4/3
f 286/4/3 284/4/3 285/4/3
f 289/2/3 288/2/3 287/2/3
f 290/2/3 288/2/3 289/2/3
f 291/4/3 290/4/3 289/4/3
f 292/4/3 290/4/3 291/4/3
f 293/2/3 292/2/3 291/2/3
f 294/2/3 292/2/3 293/2/3
f 297/2/3 296/2/3 295/2/3
f 298/2/3 296/2/3 297/2/3
f 299/4/4 300/4/4 301/4/4
f 301/4/4 300/4/4 302/4/4
f 303/4/4 304/4/4 305/4/4
f 305/4/4 304/4/4 306/4/4
f 307/4/4 308/4/4 309/4/4
f 309/4/4 308/4/4 310/4/4
f 311/2/4 312/2/4 313/2/4
f 313/2/4 312/2/4 314/2/4
f 315/4/4 316/4/4 317/4/4
f 317/4/4 316/4/4 318/4/4
f 319/2/4 320/2/4 321/2/4
f 321/2/4 320/2/4 322/2/4
f 323/4/4 324/4/4 326/4/4
f 324/4/4 325/4/4 326/4/4
f 326/4/4 325/4/4 327/4/4
f 328/2/4 329/2/4 330/2/4
f 330/2/4 329/2/4 331/2/4
f 331/2/4 329/2/4 332/2/4
f 332/2/4 329/2/4 333/2/4
f 330/4/4 331/4/4 334/4/4
f 331/2/4 332/2/4 335/2/4
f 334/4/4 331/4/4 335/4/4
f 332/4/4 333/4/4 336/4/4
f 335/2/4 332/2/4 336/2/4
f 336/4/4 333/4/4 337/4/4
f 337/4/4 333/4/4 338/4/4
f 328/2/4 330/2/4 339/2/4
f 330/4/4 334/4/4 340/4/4
f 339/2/4 330/2/4 340/2/4
f 334/2/4 335/2/4 341/2/4
f 340/4/4 334/4/4 341/4/4
f 335/4/4 336/4/4 342/4/4
f 341/2/4 335/2/4 342/2/4
f 336/4/4 337/4/4 342/4/4
f 337/2/4 338/2/4 343/2/4
f 342/4/4 337/4/4 343/4/4
f 343/2/4 338/2/4 344/2/4
f 345/2/4 346/2/4 347/2/4
f 345/2/4 347/2/4 349/2/4
f 347/4/4 348/4/4 350/4/4
f 349/2/4 347/2/4 350/2/4
f 345/2/4 349/2/4 351/2/4
f 349/4/4 350/4/4 352/4/4
f 351/2/4 349/2/4 352/2/4
f 350/4/4 348/4/4 353/4/4
f 352/4/4 350/4/4 353/4/4
f 353/4/4 348/4/4 354/4/4
f 351/4/4 352/4/4 355/4/4
f 352/4/4 353/4/4 355/4/4
f 355/4/4 353/4/4 356/4/4
f 357/2/4 358/2/4 359/2/4
f 359/2/4 358/2/4 360/2/4
f 359/4/4 360/4/4 361/4/4
f 361/4/4 360/4/4 362/4/4
f 363/2/4 364/2/4 365/2/4
f 365/2/4 364/2/4 366/2/4
f 365/4/4 366/4/4 367/4/4
f 367/4/4 366/4/4 368/4/4
f 369/1/4 370/1/4 371/1/4
f 371/1/4 370/1/4 372/1/4
f 373/2/4 374/2/4 375/2/4
f 375/2/4 374/2/4 376/2/4
f 375/4/4 376/4/4 377/4/4
f 377/4/4 376/4/4 378/4/4
f 377/2/4 378/2/4 379/2/4
f 379/2/4 378/2/4 380/2/4
f 381/4/4 382/4/4 383/4/4
f 383/4/4 382/4/4 384/4/4
f 385/2/4 386/2/4 387/2/4
f 387/2/4 386/2/4 388/2/4
f 387/4/4 388/4/4 389/4/4
f 389/4/4 388/4/4 390/4/4
f 389/2/4 390/2/4 391/2/4
f 391/2/4 390/2/4 392/2/4
f 393/2/4 394/2/4 395/2/4
f 395/2/4 394/2/4 396/2/4
f 404/2/5 398/2/5 397/2/5
f 405/4/5 402/4/5 401/4/5
f 405/2/5 401/2/5 400/2/5
f 406/4/5 402/4/5 405/4/5
f 407/2/5 404/2/5 403/2/5
f 408/2/5 398/2/5 404/2/5
f 408/2/5 404/2/5 407/2/5
f 409/2/5 406/2/5 405/2/5
f 411/1/5 408/1/5 407/1/5
f 412/2/5 398/2/5 408/2/5
f 412/1/5 408/1/5 411/1/5
f 413/2/5 412/2/5 411/2/5
f 414/2/5 398/2/5 412/2/5
f 414/2/5 412/2/5 413/2/5
f 415/2/5 409/2/5 405/2/5
f 415/4/5 410/4/5 409/4/5
f 416/4/5 410/4/5 415/4/5
f 417/2/5 405/2/5 400/2/5
f 417/2/5 415/2/5 405/2/5
f 418/2/5 415/2/5 417/2/5
f 419/2/5 398/2/5 414/2/5
f 420/4/5 399/4/5 398/4/5
f 420/2/5 398/2/5 419/2/5
f 421/4/5 399/4/5 420/4/5
f 425/2/5 423/2/5 422/2/5
f 426/4/5 424/4/5 423/4/5
f 426/2/5 423/2/5 425/2/5
f 427/4/5 424/4/5 426/4/5
f 433/2/5 429/2/5 428/2/5
f 434/4/5 430/4/5 429/4/5
f 434/2/5 429/2/5 433/2/5
f 435/4/5 430/4/5 434/4/5
f 436/1/5 432/1/5 431/1/5
f 437/1/5 432/1/5 436/1/5
f 444/2/5 439/2/5 438/2/5
f 445/4/5 440/4/5 439/4/5
f 445/2/5 439/2/5 444/2/5
f 446/2/5 441/2/5 440/2/5
f 446/4/5 440/4/5 445/4/5
f 447/2/5 441/2/5 446/2/5
f 448/4/5 443/4/5 442/4/5
f 449/4/5 443/4/5 448/4/5
f 456/2/5 451/2/5 450/2/5
f 457/4/5 452/4/5 451/4/5
f 457/2/5 451/2/5 456/2/5
f 458/2/5 453/2/5 452/2/5
f 458/4/5 452/4/5 457/4/5
f 459/2/5 453/2/5 458/2/5
f 460/2/5 455/2/5 454/2/5
f 461/2/5 455/2/5 460/2/5
f 464/4/5 463/4/5 462/4/5
f 465/4/5 463/4/5 464/4/5
f 468/4/5 467/4/5 466/4/5
f 469/4/5 467/4/5 468/4/5
f 470/2/6 471/2/6 472/2/6
f 472/2/6 471/2/6 473/2/6
f 474/4/6 475/4/6 478/4/6
f 478/4/6 475/4/6 479/4/6
f 476/2/6 477/2/6 480/2/6
f 480/2/6 477/2/6 481/2/6
f 482/2/6 483/2/6 485/2/6
f 483/4/6 484/4/6 486/4/6
f 485/2/6 483/2/6 486/2/6
f 486/4/6 484/4/6 487/4/6
f 488/2/6 489/2/6 493/2/6
f 489/4/6 490/4/6 494/4/6
f 493/2/6 489/2/6 494/2/6
f 494/4/6 490/4/6 495/4/6
f 491/1/6 492/1/6 496/1/6
f 496/1/6 492/1/6 497/1/6
f 498/2/6 499/2/6 504/2/6
f 499/4/6 500/4/6 505/4/6
f 504/2/6 499/2/6 505/2/6
f 500/2/6 501/2/6 506/2/6
f 505/4/6 500/4/6 506/4/6
f 506/2/6 501/2/6 507/2/6
f 502/4/6 503/4/6 508/4/6
f 508/4/6 503/4/6 509/4/6
f 510/2/6 511/2/6 516/2/6
f 511/4/6 512/4/6 517/4/6
f 516/2/6 511/2/6 517/2/6
f 512/2/6 513/2/6 518/2/6
f 517/4/6 512/4/6 518/4/6
f 518/2/6 513/2/6 519/2/6
f 514/2/6 515/2/6 520/2/6
f 520/2/6 515/2/6 521/2/6
f 522/2/6 523/2/6 524/2/6
f 524/2/6 523/2/6 525/2/6
f 526/4/6 527/4/6 528/4/6
f 528/4/6 527/4/6 529/4/6
f 530/4/6 531/4/6 532/4/6
f 532/4/6 531/4/6 533/4/6
f 533/4/6 531/4/6 534/4/6
f 535/2/6 536/2/6 539/2/6
f 535/2/6 539/2/6 540/2/6
f 540/2/6 539/2/6 541/2/6
f 535/2/6 540/2/6 542/2/6
f 540/4/6 541/4/6 543/4/6
f 542/2/6 540/2/6 543/2/6
f 543/4/6 541/4/6 544/4/6
f 537/4/6 538/4/6 545/4/6
f 543/4/6 544/4/6 546/4/6
f 544/4/6 545/4/6 546/4/6
f 542/4/6 543/4/6 546/4/6
f 546/4/6 545/4/6 547/4/6
f 547/4/6 545/4/6 548/4/6
f 545/4/6 538/4/6 549/4/6
f 548/4/6 545/4/6 549/4/6
f 547/4/6 548/4/6 550/4/6
f 546/2/6 547/2/6 550/2/6
f 550/4/6 548/4/6 551/4/6
f 550/2/6 551/2/6 552/2/6
f 546/2/6 550/2/6 553/2/6
f 550/2/6 552/2/6 553/2/6
f 553/2/6 552/2/6 554/2/6
f 549/4/6 538/4/6 555/4/6
f 555/4/6 538/4/6 556/4/6
f 557/4/6 558/4/6 559/4/6
f 559/4/6 558/4/6 560/4/6
f 561/4/6 562/4/6 563/4/6
f 563/4/6 562/4/6 564/4/6
f 565/4/6 566/4/6 567/4/6
f 567/4/6 566/4/6 568/4/6
f 569/4/6 570/4/6 571/4/6
f 571/4/6 570/4/6 572/4/6
f 573/4/6 574/4/6 575/4/6
f 575/4/6 574/4/6 576/4/6
f 577/4/6 578/4/6 579/4/6
f 579/4/6 578/4/6 580/4/6
f 581/2/6 582/2/6 583/2/6
f 583/2/6 582/2/6 584/2/6
f 581/2/6 583/2/6 585/2/6
f 583/4/6 584/4/6 586/4/6
f 585/2/6 583/2/6 586/2/6
f 586/4/6 584/4/6 587/4/6
f 581/2/6 585/2/6 588/2/6
f 585/4/6 586/4/6 589/4/6
f 588/2/6 585/2/6 589/2/6
f 586/2/6 587/2/6 590/2/6
f 589/4/6 586/4/6 590/4/6
f 590/2/6 587/2/6 591/2/6
